<svg xmlns="http://www.w3.org/2000/svg" viewBox="0 0 12.5 10.79"><defs><style>.cls-1{fill:#fff;}</style></defs><title>2D</title><g id="图层_2" data-name="图层 2"><g id="图层_1-2" data-name="图层 1"><path class="cls-1" d="M10.53,10.79a.33.33,0,0,1-.22-.16.78.78,0,0,1-.06-.38v-1a1.88,1.88,0,0,0-1,.43,1.46,1.46,0,0,0-.41.59c0,.07-.07.5-.4.5H2a2,2,0,0,1-2-2V2A2,2,0,0,1,2,0h8.57a2,2,0,0,1,2,2V8.83a2,2,0,0,1-2,2ZM8.3,10.2a2,2,0,0,1,.61-1,2.4,2.4,0,0,1,1.39-.57h.11a.45.45,0,0,1,.28.07c.11.09.11.36.1.41v1a1.37,1.37,0,0,0,1.12-1.34V5.24H10.25V4.7h1.66V2A1.37,1.37,0,0,0,10.54.59h-4V2.25H6V.59H2A1.37,1.37,0,0,0,.59,2V4.7H6V3.42h.54V4.7H8.66v.54H4V7.38H3.42V5.24H.59V8.83A1.37,1.37,0,0,0,2,10.2H3.42V8.54H4V10.2Z"/></g></g></svg>