<svg xmlns="http://www.w3.org/2000/svg" viewBox="0 0 44 58"><defs><style>.cls-1{fill:#ff6d33;}.cls-2{fill:#fff;}</style></defs><title> overall-view</title><g id="图层_2" data-name="图层 2"><g id="图层_1-2" data-name="图层 1"><polygon class="cls-1" points="0 0 0 44.97 22 58 44 44.97 44 0 0 0"/><path class="cls-2" d="M22,10.23A11.42,11.42,0,1,0,33.42,21.68,11.45,11.45,0,0,0,22,10.23Zm9,8.38a15.63,15.63,0,0,0-4-1.27c-.29,0-.57-.08-.63-.49A15.92,15.92,0,0,0,25,12.64,9.72,9.72,0,0,1,31,18.61Zm-11.68-2a8.59,8.59,0,0,1,1.42-3.71c.83-1.08,1.59-1,2.31.11A12,12,0,0,1,24.43,17a39,39,0,0,0-4.75,0C19.41,17,19.26,17,19.33,16.63ZM18.5,12.9a14.29,14.29,0,0,0-1.14,4,.49.49,0,0,1-.48.47,14.17,14.17,0,0,0-3.75,1.17C13.54,16.34,16.07,13.66,18.5,12.9ZM13,24.69A16.09,16.09,0,0,0,17.1,26c.27,0,.5.1.56.47a15.83,15.83,0,0,0,1.29,4.21A9.71,9.71,0,0,1,13,24.69ZM23.5,29.44a4.46,4.46,0,0,1-.84,1.35c-.42.44-.87.51-1.3,0a9.3,9.3,0,0,1-1.74-4.22c-.09-.38.24-.24.4-.24.63,0,1.27,0,1.9,0a.88.88,0,0,0,1-1c0-.61-.39-.9-1-.91l-.83,0c-.6,0-1.38.16-1.73-.23s-.17-1.1-.21-1.68c0-.3,0-.61,0-.91a.88.88,0,0,0-1-.93.85.85,0,0,0-.9.92c0,.68,0,1.37,0,2.05,0,.21,0,.41-.31.33a10.91,10.91,0,0,1-3.8-1.44c-.94-.65-.94-1.23,0-1.87a11.68,11.68,0,0,1,4.92-1.63,24.47,24.47,0,0,1,6.05-.2c.39,0,.57.12.57.56,0,.83.09,1.67.13,2.31A21.34,21.34,0,0,1,23.5,29.44ZM25,30.65a14.79,14.79,0,0,0,1.24-3.94c.05-.33.26-.39.52-.43a14.41,14.41,0,0,0,4.06-1.18A9.74,9.74,0,0,1,25,30.65Zm5.76-7.8A8.38,8.38,0,0,1,27,24.32c-.27.06-.38,0-.36-.3a38.21,38.21,0,0,0,0-4.8,11.54,11.54,0,0,1,4,1.4C31.75,21.31,31.79,22,30.79,22.85Z"/></g></g></svg>