<?xml version="1.0" encoding="utf-8"?>
<!-- Generator: Adobe Illustrator 22.0.0, SVG Export Plug-In . SVG Version: 6.00 Build 0)  -->
<svg version="1.1" id="图层_1" xmlns="http://www.w3.org/2000/svg" xmlns:xlink="http://www.w3.org/1999/xlink" x="0px" y="0px"
	 viewBox="0 0 30 30" style="enable-background:new 0 0 30 30;" xml:space="preserve">
<style type="text/css">
	.st0{fill:#FFFFFF;}
</style>
<path class="st0" d="M24.9,10.8L14.3,6.1h-0.1L7.9,7.9C7.8,7.9,7.6,8,7.6,8.1c-0.1,0.2,0,0.4,0.2,0.4H8v2.8l-3.4,1.2l-0.1,0.1v0.1
	V13l0,0l0.1,6.9l7.6,4l13.1-6.4l0.1-6.2C25.3,11.2,25.2,11,24.9,10.8z M14.2,6.7l10.1,4.5l-12.1,5.3v-6.1h0.1l-0.1-0.3L8.5,8.4
	L14.2,6.7z M11.7,10.6v5.7l-6.5-3.3L11.7,10.6z"/>
</svg>
