<?xml version="1.0" encoding="utf-8"?>
<!-- Generator: Adobe Illustrator 22.0.0, SVG Export Plug-In . SVG Version: 6.00 Build 0)  -->
<svg version="1.1" id="图层_1" xmlns="http://www.w3.org/2000/svg" xmlns:xlink="http://www.w3.org/1999/xlink" x="0px" y="0px"
	 viewBox="0 0 40 40" style="enable-background:new 0 0 40 40;" xml:space="preserve">
<style type="text/css">
	.st0{fill:#FFFFFF;}
</style>
<path class="st0" d="M22.2,38.1c-0.1,0.2-0.2,0.5-0.4,0.7c-0.5,0.8-1.5,1.1-2.4,0.9c-0.9-0.2-1.5-0.9-1.7-1.9c0-0.3,0-0.7,0-1
	c0-11.2,0-22.4,0-33.6c0-1.4,0.5-2.4,1.8-2.9c0.3,0,0.6,0,0.9,0c0.8,0.3,1.4,0.8,1.8,1.6C22.2,13.9,22.2,26,22.2,38.1z"/>
<path class="st0" d="M0.2,19.6c0.5-1.4,1.5-1.8,2.9-1.8c11.4,0,22.8,0,34.2,0c1.6,0,2.6,1,2.4,2.4c-0.1,1.1-1,2-2.1,2.1
	c-0.2,0-0.4,0-0.7,0c-11.3,0-22.5,0-33.8,0c-1.4,0-2.5-0.4-3-1.8C0.2,20.2,0.2,19.9,0.2,19.6z"/>
</svg>
