<svg xmlns="http://www.w3.org/2000/svg" viewBox="0 0 27 17"><defs><style>.cls-1{fill:#fff;}</style></defs><title>AR</title><g id="图层_2" data-name="图层 2"><g id="图层_1-2" data-name="图层 1"><path class="cls-1" d="M17.63,17a2,2,0,0,1-1.94-1.63h0s-.93-2.76-1.1-3.27a1.29,1.29,0,0,0-.58-.84,1.1,1.1,0,0,0-.57-.16,1.07,1.07,0,0,0-.27,0,1.22,1.22,0,0,0-.85.88c-.22.62-.44,1.19-.66,1.76S11.19,15,11,15.54A1.9,1.9,0,0,1,9.15,17H2.31A2.25,2.25,0,0,1,.9,16.48,2.53,2.53,0,0,1,0,14.31V2.63A2.41,2.41,0,0,1,2.57,0H24.44A2.37,2.37,0,0,1,27,2.69c-.05,1.86-.05,3.74-.05,5.72v5.78C26.95,16,26,17,24.33,17h-6.7ZM2.57,1C1.54,1,1,1.55,1,2.63V14.36a1.85,1.85,0,0,0,0,.34,1.47,1.47,0,0,0,.52,1,1.28,1.28,0,0,0,.8.29H9a1,1,0,0,0,1-.74c.21-.6.43-1.15.64-1.69s.49-1.24.7-1.84a2.21,2.21,0,0,1,1.55-1.55,2.06,2.06,0,0,1,1.61.24,2.25,2.25,0,0,1,1,1.43l.55,1.65c.2.59.37,1.1.54,1.62a1.09,1.09,0,0,0,1,.9h6.65c1.13,0,1.62-.54,1.62-1.8V8.41c0-2,0-3.88.05-5.74C26,1.5,25.53,1,24.44,1Z"/><path class="cls-1" d="M19,11.4a3.61,3.61,0,0,1-3.4-3.51v-.1a3.59,3.59,0,0,1,1.1-2.55A3.36,3.36,0,0,1,22.4,7.94a3.55,3.55,0,0,1-1.08,2.56,3.21,3.21,0,0,1-2.22.91Zm0-6.09A2.33,2.33,0,0,0,17.42,6a2.58,2.58,0,0,0,1.63,4.44,2.31,2.31,0,0,0,1.58-.63A2.53,2.53,0,0,0,21.4,8a2.49,2.49,0,0,0-2.34-2.67l0-.1ZM7.88,11.4A3.48,3.48,0,0,1,4.56,7.88,3.45,3.45,0,0,1,7.92,4.34a3.47,3.47,0,0,1,3.33,3.56,3.6,3.6,0,0,1-1,2.48,3.26,3.26,0,0,1-2.36,1ZM8,5.34A2.47,2.47,0,0,0,5.56,7.88,2.47,2.47,0,0,0,7.87,10.4a2.37,2.37,0,0,0,1.66-.71,2.6,2.6,0,0,0,.72-1.79A2.47,2.47,0,0,0,8,5.34Z"/></g></g></svg>