<?xml version="1.0" encoding="utf-8"?>
<!-- Generator: Adobe Illustrator 22.0.0, SVG Export Plug-In . SVG Version: 6.00 Build 0)  -->
<svg version="1.1" id="图层_1" xmlns="http://www.w3.org/2000/svg" xmlns:xlink="http://www.w3.org/1999/xlink" x="0px" y="0px"
	 viewBox="0 0 500 500" style="enable-background:new 0 0 500 500;" xml:space="preserve">
<style type="text/css">
	.st0{fill:#FFFFFF;}
</style>
<g>
	<path class="st0" d="M337.7,197.5c5.2,0,11.6,0,16.8,1.3C339,127.9,264.2,75,176.5,75C79.7,75,1.1,140.8,1.1,224.6
		c0,49,25.8,87.7,70.9,118.7l-18.1,52.9l61.9-31c21.9,5.2,38.7,9,60.6,9h16.8c-2.6-11.6-5.2-24.5-5.2-37.4
		C188.1,259.4,253.9,197.5,337.7,197.5L337.7,197.5z M243.6,149.8c12.9,0,21.9,9,21.9,21.9c0,12.9-9,21.9-21.9,21.9
		c-14.2,0-27.1-9-27.1-21.9C216.5,158.8,229.4,149.8,243.6,149.8L243.6,149.8z M119.7,193.7c-12.9,0-25.8-9-25.8-21.9
		c0-12.9,12.9-21.9,25.8-21.9c12.9,0,21.9,9,21.9,21.9C141.7,184.6,132.6,193.7,119.7,193.7L119.7,193.7z M119.7,193.7"/>
</g>
<path class="st0" d="M498.9,334.3c0-69.7-70.9-127.7-149.6-127.7c-83.8,0-149.6,58-149.6,127.7c0,70.9,65.8,127.7,149.6,127.7
	c16.8,0,34.8-3.9,52.9-7.7l47.7,25.8L437,436.2C471.9,409.1,498.9,374.2,498.9,334.3L498.9,334.3z M300.3,312.3
	c-9,0-18.1-7.7-18.1-16.8c0-9,9-18.1,18.1-18.1c12.9,0,21.9,9,21.9,18.1C322.2,304.6,313.2,312.3,300.3,312.3L300.3,312.3z
	 M397,312.3c-9,0-16.8-7.7-16.8-16.8c0-9,7.7-18.1,16.8-18.1c12.9,0,21.9,9,21.9,18.1C419,304.6,409.9,312.3,397,312.3L397,312.3z
	 M397,312.3"/>
</svg>
