<?xml version="1.0" encoding="utf-8"?>
<!-- Generator: Adobe Illustrator 22.0.0, SVG Export Plug-In . SVG Version: 6.00 Build 0)  -->
<svg version="1.1" id="图层_1" xmlns="http://www.w3.org/2000/svg" xmlns:xlink="http://www.w3.org/1999/xlink" x="0px" y="0px"
	 viewBox="0 0 500 500" style="enable-background:new 0 0 500 500;" xml:space="preserve">
<style type="text/css">
	.st0{fill:#FFFFFF;}
</style>
<g>
	<g>
		<path class="st0" d="M165.4,71.7L9.3,227.9c-12.2,12.2-12.2,32,0,44.2l156.2,156.2c12.2,12.2,32,12.2,44.2,0
			c12.2-12.2,12.2-32,0-44.2L106.8,281.2h361.9c17.3,0,31.2-14,31.2-31.2c0-17.3-14-31.2-31.2-31.2H106.8l102.9-102.9
			c6.1-6.1,9.1-14.1,9.1-22.1c0-8-3-16-9.1-22.1C197.4,59.5,177.6,59.5,165.4,71.7L165.4,71.7z M165.4,71.7"/>
	</g>
</g>
</svg>
