<?xml version="1.0" encoding="utf-8"?>
<!-- Generator: Adobe Illustrator 22.0.0, SVG Export Plug-In . SVG Version: 6.00 Build 0)  -->
<svg version="1.1" id="图层_1" xmlns="http://www.w3.org/2000/svg" xmlns:xlink="http://www.w3.org/1999/xlink" x="0px" y="0px"
	 viewBox="0 0 30 30" style="enable-background:new 0 0 30 30;" xml:space="preserve">
<style type="text/css">
	.st0{fill:#FFFFFF;}
</style>
<g>
	<path class="st0" d="M10.4,25.5L10.4,25.5c-0.6,0-1-0.4-1-1v-19c0-0.5,0.4-1,1-1h0c0.5,0,1,0.4,1,1v19
		C11.4,25.1,10.9,25.5,10.4,25.5z"/>
	<path class="st0" d="M19.6,25.5L19.6,25.5c-0.6,0-1-0.4-1-1v-19c0-0.5,0.4-1,1-1h0c0.5,0,1,0.4,1,1v19
		C20.6,25.1,20.2,25.5,19.6,25.5z"/>
</g>
</svg>
