<?xml version="1.0" encoding="utf-8"?>
<!-- Generator: Adobe Illustrator 22.0.0, SVG Export Plug-In . SVG Version: 6.00 Build 0)  -->
<svg version="1.1" id="图层_1" xmlns="http://www.w3.org/2000/svg" xmlns:xlink="http://www.w3.org/1999/xlink" x="0px" y="0px"
	 viewBox="0 0 500 500" style="enable-background:new 0 0 500 500;" xml:space="preserve">
<style type="text/css">
	.st0{fill:#FFFFFF;}
</style>
<g>
	<path class="st0" d="M47.1,422.8c-12.1,0-23.5-9-23.5-22v-95h154.1c6.8,0,12.4-5.5,12.4-12.4c0-6.8-5.6-12.4-12.4-12.4
		c0,0-164.9,0.1-165.8,0.1c-6.5,0-11.7,5.3-11.7,11.7v108.8c0,24.7,20,44.6,44.6,44.6h318.8l-0.8-23.5H47.1z"/>
	<path class="st0" d="M284.6,199.5c6.5,0,11.7-5.2,11.7-11.7V47c0-13,10.5-23.5,23.5-23.5h79.6c13,0,23.5,10.5,23.5,23.5l0,315.8
		l23.5,0.2V44.6c0-24.6-20-44.6-44.6-44.6h-84.3c-24.6,0-44.6,20-44.6,44.6v143.2C272.9,194.3,278.1,199.5,284.6,199.5z"/>
	<path class="st0" d="M496.4,478.8l-50-50l-23.5-23.5L89.9,72.3c-4.9-4.9-12.7-4.9-17.6,0c-4.9,4.9-4.9,12.7,0,17.6l332.9,332.9
		l23.5,23.5l50.1,50.1c2.4,2.4,5.6,3.6,8.8,3.6c3.2,0,6.4-1.2,8.8-3.6C501.2,491.5,501.2,483.6,496.4,478.8z"/>
</g>
</svg>
