<?xml version="1.0" encoding="utf-8"?>
<!-- Generator: Adobe Illustrator 22.0.0, SVG Export Plug-In . SVG Version: 6.00 Build 0)  -->
<svg version="1.1" id="图层_1" xmlns="http://www.w3.org/2000/svg" xmlns:xlink="http://www.w3.org/1999/xlink" x="0px" y="0px"
	 viewBox="0 0 40 40" style="enable-background:new 0 0 40 40;" xml:space="preserve">
<style type="text/css">
	.st0{fill:#FFFFFF;}
</style>
<path class="st0" d="M26.4,27.6l-14-14c-0.3-0.3-0.3-0.9,0-1.2l0,0c0.3-0.3,0.9-0.3,1.2,0l14.1,14.1c0.3,0.3,0.3,0.9,0,1.2l0,0
	C27.3,28,26.8,28,26.4,27.6z"/>
<path class="st0" d="M12.4,26.4l14.1-14.1c0.3-0.3,0.9-0.3,1.2,0l0,0c0.3,0.3,0.3,0.9,0,1.2L13.6,27.6c-0.3,0.3-0.9,0.3-1.2,0l0,0
	C12,27.3,12,26.8,12.4,26.4z"/>
</svg>
