<?xml version="1.0" encoding="UTF-8"?>
<svg width="20px" height="17px" viewBox="0 0 20 17" version="1.1" xmlns="http://www.w3.org/2000/svg" xmlns:xlink="http://www.w3.org/1999/xlink">
    <!-- Generator: Sketch 49.1 (51147) - http://www.bohemiancoding.com/sketch -->
    <title>Group 12</title>
    <desc>Created with Sketch.</desc>
    <defs>
        <linearGradient x1="50%" y1="0%" x2="50%" y2="96.9517702%" id="linearGradient-1">
            <stop stop-color="#FFFFFF" offset="0%"></stop>
            <stop stop-color="#FFFFFF" offset="100%"></stop>
        </linearGradient>
    </defs>
    <g id="Page-1" stroke="none" stroke-width="1" fill="none" fill-rule="evenodd">
        <g id="3D-3层" transform="translate(-200.000000, -90.000000)">
            <g id="Group-12" transform="translate(200.000000, 90.000000)">
                <g id="Group-11">
                    <g id="Group-16-Copy">
                        <polygon id="Path-60" fill="#FFFFFF" opacity="0.488620924" points="0.838641908 6.82641368 7.57883799 10.221607 19.1334598 5.12881704 19.1334598 10.221607 7.57883799 16.1631952 0.838641908 12.768002"></polygon>
                        <g id="Group-13" transform="translate(0.838642, 0.054761)">
                            <path d="M3.09862165,2.46596472 L8.66596639,0.830064235 L18.1910127,5.02830289 C18.2162814,5.03944025 18.2277371,5.06895317 18.2165997,5.09422183 C18.2115643,5.1056462 18.2024371,5.11477344 18.1910127,5.11980882 L6.74019608,10.1668458 L0.101649879,6.82285591 C0.0769877925,6.81043304 0.0670659436,6.78036975 0.0794888094,6.75570766 C0.0851243635,6.74451986 0.0947542159,6.73585508 0.10647284,6.73142787 L6.67156778,4.25118478 C6.68706711,4.24532925 6.69488496,4.22801771 6.68902943,4.21251838 C6.68618428,4.20498738 6.68043169,4.19891591 6.67306499,4.19566898 L3.08890968,2.6159245 C3.04847982,2.59810472 3.03015073,2.55088406 3.0479705,2.5104542 C3.05747634,2.48888718 3.07600868,2.47260929 3.09862165,2.46596472 Z" id="Path-59-Copy" stroke="#FFFFFF" stroke-width="0.5" stroke-linecap="round"></path>
                            <polyline id="Path-68" stroke="#FFFFFF" stroke-width="0.5" points="0.0875918657 6.7671338 0.212882956 12.6833285 6.74019608 16.1084341 18.1399762 10.5454999 18.1989074 5.00883425"></polyline>
                            <polygon id="Path-70" fill="#FFFFFF" fill-rule="nonzero" points="2.82737184 2.5398718 3.32737184 2.5398718 3.32737184 5.76516891 2.82737184 5.76516891"></polygon>
                            <polygon id="Path-4" fill="url(#linearGradient-1)" fill-rule="nonzero" points="6.42408484 4.21971867 6.92408484 4.21971867 6.92408484 10.1634783 6.42408484 10.1634783"></polygon>
                        </g>
                    </g>
                    <polygon id="Path-61" fill-opacity="0.5" fill="#FFFFFF" points="3.83379158 5.81044965 3.83379158 2.49019271 7.66758316 4.15032118"></polygon>
                </g>
            </g>
        </g>
    </g>
</svg>