
<svg width="15px" height="22px" viewBox="0 0 15 22" version="1.1" xmlns="http://www.w3.org/2000/svg" xmlns:xlink="http://www.w3.org/1999/xlink">
    <g id="Page-1" stroke="none" stroke-width="1" fill="none" fill-rule="evenodd">
        <g id="首页" transform="translate(-799.000000, -68.000000)" fill="#FFFFFF" fill-rule="nonzero">
            <g id="Group-6" transform="translate(751.000000, 56.000000)">
                <g id="小人" transform="translate(48.000000, 12.000000)">
                    <path d="M6.5625,2.5 C6.5625,3.88071187 7.61183262,5 8.90625,5 C10.2006674,5 11.25,3.88071187 11.25,2.5 C11.25,1.11928813 10.2006674,8.45442189e-17 8.90625,0 C7.61183262,-8.45442189e-17 6.5625,1.11928813 6.5625,2.5 Z" id="Shape"></path>
                    <path d="M3.71278201,17.9720532 C3.50045908,18.3846045 0,22 0,22 L2.91857948,22 C2.91857948,22 5.45210847,19.5400453 5.63401759,19.2428895 C5.81592671,18.9457337 6.56250002,16.7170652 6.5625,16.7170652 L4.78357819,15 C4.78357819,15 3.92280955,17.5590067 3.71278201,17.9720532 Z" id="Shape"></path>
                    <path d="M14.3094024,11.3931606 C14.3094024,11.3846181 12.4147549,10.7102587 12.162941,10.609758 C11.9111271,10.5092573 11.541968,10.308256 11.3571366,9.92283601 C11.1723053,9.53741599 10.7487543,8.33743814 10.433987,7.84598991 C10.2436157,7.54901048 9.22528045,5.91687979 7.14378706,6.00331036 C6.10077403,6.04702815 3.46730463,6.98469929 2.80301966,7.36006923 C1.80533311,7.92990797 0.197753419,10.687646 0.197753419,10.687646 C-0.0262262118,11.0011212 -0.0626964364,11.410974 0.102427596,11.7589186 C0.267551629,12.1068633 0.608424532,12.3384392 0.99340072,12.3642113 C1.37837691,12.3899835 1.7471995,12.205918 1.95742871,11.8831013 C1.95742871,11.8831013 3.39931489,9.58917381 3.75386881,9.27008423 C4.17087257,8.89823179 5.45461964,8.52235933 5.69837546,8.49622918 C5.83586584,8.48115407 4.92631415,11.9132515 4.92631417,12.5499232 C4.92631419,13.1865948 5.00387283,13.5046794 5.71197342,14.2921021 C6.42007401,15.0795248 8.50207105,17.2568715 8.68639879,17.5920412 C8.87072654,17.9272109 10.3332615,22 10.3332615,22 L12.5658432,22 C12.5658432,22 11.4744819,17.9131408 10.7694031,16.6734652 C9.95352615,15.2388183 8.15053889,13.4740267 8.08355641,13.1896099 C8.01657393,12.905193 8.83899801,9.58816882 8.83899799,9.5881688 C8.83899797,9.58816878 9.49371404,11.0956787 9.77927095,11.4137633 C10.1366838,11.8018667 10.5497837,12.1349618 11.0051009,12.4021872 C11.4034704,12.6293187 13.0614129,13.2061925 13.6300086,13.3659885 C13.6694594,13.3789365 13.7096541,13.3895081 13.7503756,13.3976462 C13.7723203,13.404055 13.7950042,13.407602 13.8178617,13.4081988 C14.347058,13.4779932 14.843909,13.1386309 14.9701757,12.6211383 C15.0964424,12.1036456 14.8115322,11.5743868 14.3094024,11.3936631 L14.3094024,11.3931606 Z" id="Shape"></path>
                </g>
            </g>
        </g>
    </g>
</svg>