<svg xmlns="http://www.w3.org/2000/svg" viewBox="0 0 24.89 28.26"><defs><style>.cls-1{fill:#fff;}</style></defs><title>location</title><g id="图层_2" data-name="图层 2"><g id="图层_1-2" data-name="图层 1"><path class="cls-1" d="M12.45,28.26a3.16,3.16,0,0,1-2.11-.79l-.86-.76-1-.86c-.8-.72-1.46-1.36-2.1-2C2,19.45,0,15.58,0,11.68,0,5.24,5.58,0,12.45,0S24.89,5.24,24.89,11.68a11.59,11.59,0,0,1-.79,4.16L24,16l-1.15-.6,0-.08a10.41,10.41,0,0,0,.7-3.68c0-5.73-5-10.39-11.16-10.39S1.29,5.95,1.29,11.68c0,3.54,1.92,7.12,6,11.26.61.61,1.26,1.23,2.05,1.95l1.81,1.62a1.91,1.91,0,0,0,2.5,0c2.44-2.16,2.84-2.54,3.95-3.66a26.74,26.74,0,0,0,4.24-5.36l0-.08.13,0,1.05.55-.1.18a27.92,27.92,0,0,1-4.46,5.65c-1.12,1.13-1.53,1.52-4,3.72A3.16,3.16,0,0,1,12.45,28.26Z"/><path class="cls-1" d="M12.37,18.15a5.77,5.77,0,1,1,.08,0ZM12.39,8a4.42,4.42,0,0,0,0,8.83,4.48,4.48,0,0,0,3.87-2.19A4.42,4.42,0,0,0,12.45,8Z"/></g></g></svg>