<?xml version="1.0" encoding="utf-8"?>
<!-- Generator: Adobe Illustrator 22.0.0, SVG Export Plug-In . SVG Version: 6.00 Build 0)  -->
<svg version="1.1" id="图层_1" xmlns="http://www.w3.org/2000/svg" xmlns:xlink="http://www.w3.org/1999/xlink" x="0px" y="0px"
	 viewBox="0 0 40 40" style="enable-background:new 0 0 40 40;" xml:space="preserve">
<style type="text/css">
	.st0{fill:#FFFFFF;}
</style>
<path class="st0" d="M2.1,34.7c-1.1-0.4-1.8-1.1-1.8-2.4c0-1.1,0.7-1.9,1.7-2.1c0.5-0.1,0.9-0.1,1.4-0.1c11.2,0,22.3,0,33.5,0
	c0.3,0,0.6,0,1,0c1.1,0.2,1.8,0.9,2,1.9c0.1,1.1-0.4,2-1.5,2.4c-0.2,0.1-0.3,0.1-0.5,0.2C25.9,34.7,14,34.7,2.1,34.7z"/>
<path class="st0" d="M38,7.1c0.2,0.1,0.5,0.2,0.7,0.4C39.5,8,39.9,9,39.6,9.9c-0.2,0.9-0.9,1.5-1.9,1.7c-0.3,0-0.7,0-1,0
	c-11.2,0-22.4,0-33.6,0c-1.4,0-2.4-0.5-2.9-1.8c0-0.3,0-0.6,0-0.9C0.4,8.1,1,7.5,1.8,7.1C13.9,7.1,25.9,7.1,38,7.1z"/>
<path class="st0" d="M0.1,20.6c0.5-1.4,1.5-1.8,2.9-1.8c11.4,0,22.8,0,34.2,0c1.6,0,2.6,1,2.4,2.4c-0.1,1.1-1,2-2.1,2.1
	c-0.2,0-0.4,0-0.7,0c-11.3,0-22.5,0-33.8,0c-1.4,0-2.5-0.4-3-1.8C0.1,21.2,0.1,20.9,0.1,20.6z"/>
</svg>
