<?xml version="1.0" encoding="UTF-8"?>
<svg width="25px" height="25px" viewBox="0 0 25 25" version="1.1" xmlns="http://www.w3.org/2000/svg" xmlns:xlink="http://www.w3.org/1999/xlink">
    <!-- Generator: Sketch 52.2 (67145) - http://www.bohemiancoding.com/sketch -->
    <title>切片</title>
    <desc>Created with Sketch.</desc>
    <defs>
        <linearGradient x1="68.7986687%" y1="109.469818%" x2="68.7986687%" y2="-41.8006924%" id="linearGradient-1">
            <stop stop-color="#FFFFFF" offset="0%"></stop>
            <stop stop-color="#FFFFFF" stop-opacity="0" offset="100%"></stop>
        </linearGradient>
    </defs>
    <g id="Page-1" stroke="none" stroke-width="1" fill="none" fill-rule="evenodd">
        <g id="分组-2-copy" transform="translate(3.000000, 2.000000)">
            <path d="M15.2819799,10.9562842 C14.8866372,10.7650273 14.4122259,10.9562842 14.2277327,11.3661202 C14.0432394,11.7759563 14.2277327,12.2677596 14.6230754,12.4590164 C16.8633507,13.4972678 18.4183653,15.7650273 18.4183653,17.9781421 L18.4183653,18.4153005 L4.60772698,18.4153005 L4.60772698,17.9781421 C4.60772698,15.7650273 6.1627416,13.5245902 8.4030169,12.4590164 L12.4355124,9.89071038 C12.514581,9.83606557 12.5672933,9.78142077 12.6200057,9.72677596 C13.1734855,9.31693989 13.9378147,8.71584699 14.6494316,7.97814208 C15.4928293,7.07650273 15.9408844,5.90163934 15.9408844,4.67213115 C15.9408844,3.41530055 15.4664731,2.24043716 14.6230754,1.33879781 C13.7533214,0.464480874 12.6200057,0 11.4339776,0 C10.2215933,0 9.08827758,0.491803279 8.21852364,1.36612022 C7.95496184,1.66666667 7.71775622,1.96721311 7.53326296,2.32240437 C7.07261563,3.07692308 6.92707082,4.3715847 6.92707082,4.64480874 C6.92707082,5.92896175 7.40148206,7.07650273 8.24487982,7.92349727 C8.29759218,7.97814208 8.35030454,8.03278689 8.37666072,8.06010929 C8.48208544,8.16939891 8.58751016,8.27868852 8.71929106,8.41530055 C9.0619214,8.7704918 9.56268882,9.15300546 9.9843877,9.48087432 L7.69140004,10.9289617 C4.92400114,12.2404372 3,15.1092896 3,17.9234973 L3,18.6065574 C3,19.3715847 3.60619214,20 4.34416518,20 L18.6555709,20 C19.4199001,20 19.9997361,19.3989071 19.9997361,18.6065574 L19.9997361,17.9234973 C20.0260923,15.136612 18.075735,12.2404372 15.2819799,10.9562842 Z M9.90883032,7.09334144 C9.8266212,7.03861356 9.77181512,6.95652174 9.66220296,6.87442992 C9.60739688,6.81970204 9.5525908,6.76497416 9.47038167,6.68288234 C8.89491782,6.13560353 8.59348438,5.39677714 8.59348438,4.57585892 C8.59348438,4.38431134 8.62088742,4.19276376 8.64829046,4.00121618 C8.75790262,3.83703253 8.8127087,3.64548495 8.8127087,3.45393737 C8.9497239,3.0708422 9.19635127,2.74247492 9.47038167,2.41410763 C10.0458455,1.83946488 10.7857276,1.53846154 11.6352219,1.53846154 C12.4573131,1.53846154 13.1971952,1.83946488 13.8000621,2.41410763 C14.3755259,2.98875038 14.6769594,3.72757677 14.6769594,4.57585892 C14.6769594,5.39677714 14.3755259,6.13560353 13.8000621,6.73761022 C13.0327769,7.50380055 12.1558796,8.13317118 11.6352219,8.46153846 C11.1145641,8.10580724 10.347279,7.55852843 9.93623336,7.14806932 L9.90883032,7.09334144 Z" id="Shape" fill="#FFFFFF" fill-rule="nonzero"></path>
            <path d="M9.69214759,1.48063254 C9.09034757,1.17165448 8.45687387,1 7.79172649,1 C6.65147383,1 5.54289486,1.48063254 4.75105274,2.37323584 C3.92753693,3.26583914 3.48410534,4.4330896 3.48410534,5.66900186 C3.48410534,6.90491412 3.92753693,8.10649548 4.75105274,8.96476788 C4.81440011,9.03342967 4.90942116,9.13642236 5.00444222,9.20508415 C5.06778959,9.27374594 5.13113696,9.30807684 5.16281064,9.37673863 L5.19448433,9.41106953 C5.41620012,9.6170549 5.70126329,9.85737117 5.98632645,10.0976874 L4.30762115,11.2992688 C1.77372636,12.6038429 0,15.3846454 0,18.1311171 L0,18.7834041 C0,19.6416765 0.668531691,19.997513 1.46037381,19.997513 C1.99882646,19.997513 4.42682092,20.0661313 4.42682092,19.482506 C4.42682092,19.0705353 3.85819359,18.9550586 3.54145674,18.7834041 L3.54145674,16.8885361 C3.54145674,14.8973441 3.56790522,15.1630551 5.5,14.20179 L6.19754929,12.4415513 C7.29501291,13.1563624 9.58063761,10.9559598 9.73900603,10.6813127 C13.0899063,9.93421612 8.70569383,7.37847283 8.67402015,7.30981104 C8.23058856,6.8291785 8.39001727,6.60113778 8.39001727,5.88018897 C8.39001727,5.15924015 7.73464361,5.68034137 8.1780752,5.16537793 C8.62150678,4.68474538 7.51292781,3.640358 8.1780752,3.640358 C8.62150678,3.640358 8.47355763,2.13291957 8.85364185,2.37323584 C8.79029448,2.68221391 9.91386338,1.0343309 9.69214759,1.48063254 Z" id="Shape-Copy" fill="url(#linearGradient-1)"></path>
        </g>
    </g>
</svg>