<?xml version="1.0" encoding="utf-8"?>
<!-- Generator: Adobe Illustrator 22.0.0, SVG Export Plug-In . SVG Version: 6.00 Build 0)  -->
<svg version="1.1" id="图层_1" xmlns="http://www.w3.org/2000/svg" xmlns:xlink="http://www.w3.org/1999/xlink" x="0px" y="0px"
	 viewBox="0 0 40 40" style="enable-background:new 0 0 40 40;" xml:space="preserve">
<style type="text/css">
	.st0{fill:#FFFFFF;}
</style>
<g>
	<path class="st0" d="M24,27c-4.6,0-11-7.1-11-11c0-1.5,2.1-3,3-3c1.1,0,3,3.4,3,4c0,0.5-0.2,0.8-0.4,1.1c-0.2,0.2-0.3,0.4-0.3,0.6
		c0,0.5,2.2,2.7,2.7,2.8c0.2,0,0.4-0.1,0.6-0.3c0.3-0.2,0.7-0.4,1.2-0.4c0.7,0,4.1,2.2,4.1,3C27,25.6,25.4,27,24,27L24,27z M16,13.8
		c-0.6,0-2.2,1.2-2.2,2.3c0,1.6,1.4,4.2,3.7,6.4c2.3,2.3,4.8,3.8,6.6,3.8c1,0,2.2-1.1,2.2-2.2c-0.3-0.5-2.8-2.3-3.3-2.4
		c-0.3,0-0.5,0.2-0.8,0.3c-0.3,0.2-0.6,0.3-1,0.3c-0.8,0-3.5-2.7-3.5-3.5c0-0.5,0.2-0.8,0.3-1.1c0.2-0.2,0.3-0.4,0.3-0.7
		C18.1,16.2,16.3,13.8,16,13.8L16,13.8z M26.3,24L26.3,24z M26.3,24"/>
</g>
</svg>
