<svg xmlns="http://www.w3.org/2000/svg" viewBox="0 0 26.2 26.16"><defs><style>.cls-1{fill:#fff;}</style></defs><title>setting</title><g id="图层_2" data-name="图层 2"><g id="图层_1-2" data-name="图层 1"><path class="cls-1" d="M16.94,26.16a2.2,2.2,0,0,1-1.64-.74A4.16,4.16,0,0,0,13.16,24H13a4.08,4.08,0,0,0-2.15,1.37,2.2,2.2,0,0,1-1.64.74A2,2,0,0,1,8.4,26l-.12-.06L5.16,24.06a2.28,2.28,0,0,1-.68-2.66,3.24,3.24,0,0,0,.22-1,2.71,2.71,0,0,0-2.61-2.79A1.93,1.93,0,0,1,.27,15.81c0-.22-.09-.52-.14-.89S0,14.14,0,13.78s0-.46,0-.67a16.72,16.72,0,0,1,.27-2.7C.42,9.6.93,8.65,1.92,8.65h.16A2.71,2.71,0,0,0,4.69,5.87,3.16,3.16,0,0,0,4.46,4.8a2.27,2.27,0,0,1,.71-2.65l.12-.08L8.59.17A2.1,2.1,0,0,1,9.42,0a2.22,2.22,0,0,1,1.64.72A4.18,4.18,0,0,0,13.11,2a4.29,4.29,0,0,0,2-1.31A2.22,2.22,0,0,1,16.78,0a2.11,2.11,0,0,1,.81.16L20.9,2.07l.12.09a2.26,2.26,0,0,1,.72,2.65,3.19,3.19,0,0,0-.24,1.07,2.71,2.71,0,0,0,2.61,2.79h.16c1,0,1.51.95,1.65,1.75a16.72,16.72,0,0,1,.27,2.7c0,.21,0,.43,0,.67s-.06.75-.11,1.13-.1.68-.14.89a1.93,1.93,0,0,1-1.81,1.76,2.71,2.71,0,0,0-2.61,2.79,3.24,3.24,0,0,0,.22,1A2.28,2.28,0,0,1,21.06,24l-3.13,1.86-.12.06A2.05,2.05,0,0,1,16.94,26.16Zm-3.78-3.4a4.81,4.81,0,0,1,3.08,1.81.94.94,0,0,0,.7.3,1,1,0,0,0,.44-.12l3-1.78a1,1,0,0,0,.22-1.06,4.31,4.31,0,0,1-.33-1.56,4,4,0,0,1,4-4.07.65.65,0,0,0,.3-.14.56.56,0,0,0,.13-.29l0-.27c0-.2.08-.48.13-.83s.08-.72.11-1.06,0-.4,0-.58a15.81,15.81,0,0,0-.28-2.61.87.87,0,0,0-.2-.43.54.54,0,0,0-.34-.12,4,4,0,0,1-3.88-4.07,4.37,4.37,0,0,1,.34-1.58,1,1,0,0,0-.38-1.14L17,1.33l-.21,0a1,1,0,0,0-.77.31,4.83,4.83,0,0,1-3,1.73,4.83,4.83,0,0,1-3-1.73,1,1,0,0,0-.71-.3H9.31l-.2.06L6,3.15a1,1,0,0,0-.37,1.13A4.37,4.37,0,0,1,6,5.87,4,4,0,0,1,2.08,9.94a.54.54,0,0,0-.35.12.85.85,0,0,0-.2.43,15.89,15.89,0,0,0-.28,2.61c0,.18,0,.37,0,.58s.06.69.11,1.06.09.64.13.83l0,.26a.56.56,0,0,0,.13.3.71.71,0,0,0,.32.14H2A4,4,0,0,1,6,20.35a4.33,4.33,0,0,1-.33,1.56A1,1,0,0,0,5.87,23l3,1.77a.93.93,0,0,0,.42.11.94.94,0,0,0,.7-.3A4.82,4.82,0,0,1,13,22.76Z"/><path class="cls-1" d="M13,18.3A5.09,5.09,0,0,1,8.1,13.09,5.09,5.09,0,0,1,13,7.88,5.14,5.14,0,0,1,18,13.09,5.1,5.1,0,0,1,13.1,18.3Zm0-9.14a3.82,3.82,0,0,0-3.69,3.92A3.82,3.82,0,0,0,13,17a3.86,3.86,0,0,0,3.69-3.92A3.83,3.83,0,0,0,13.1,9.17L13,9.07Z"/></g></g></svg>