
<svg width="32px" height="32px" viewBox="0 0 32 32" version="1.1" xmlns="http://www.w3.org/2000/svg" xmlns:xlink="http://www.w3.org/1999/xlink">
    <g id="Page-1" stroke="none" stroke-width="1" fill="none" fill-rule="evenodd">
        <g id="下拉多" transform="translate(-1228.000000, -995.000000)">
            <g id="Group-16" transform="translate(574.000000, 975.000000)">
                <g id="Group-15">
                    <g id="微信" transform="translate(654.000000, 20.000000)">
                        <circle id="Oval-4" fill="#4C4C4C" opacity="0.527173913" cx="16" cy="16" r="16"></circle>
                        <path d="M20.7246426,12.4354216 C20.1300236,9.3092687 17.0786896,7 13.4170888,7 C9.53641788,7 6.03129573,9.82767596 6,13.5350733 C6.01564787,15.5144465 7.17359,17.1639241 8.66013734,18.420669 L8.19070134,19.9916001 C8.11246201,20.2586584 8.20634921,20.5571353 8.42541934,20.7299377 C8.64448947,20.9027401 8.94179894,20.9341587 9.19216481,20.7927749 L11.1325003,19.7088325 C11.4924012,19.8030884 11.86795,19.8973442 12.2591467,19.9601815 C12.6346955,20.0230187 13.0102443,20.0701466 13.401441,20.0701466 C13.6048632,20.0701466 13.8082855,20.0544373 14.0117078,20.038728 C14.9349319,22.0652291 17.1412811,23.4633578 19.7075312,23.4633578 C20.3647416,23.4633578 20.9750084,23.321974 21.5383316,23.1805902 L23.0561747,24.0603116 C23.3065406,24.2016954 23.6038501,24.1702768 23.8229202,23.9974744 C24.0419903,23.8246719 24.1358775,23.526195 24.0576382,23.2591367 L23.6977373,22.0181012 C24.9182709,20.9812867 25.8571429,19.583158 25.8571429,17.9179711 C25.841495,15.0902951 23.5099629,12.8752823 20.7246426,12.4354216 Z M13.401441,19.0019135 C13.1041315,19.0019135 12.7755263,18.9704949 12.4469211,18.9076576 C12.0087808,18.8291111 11.5549927,18.7191459 11.0699088,18.5934714 L10.5378813,18.6563087 L9.80243161,19.0647507 L9.92761454,18.6563087 C10.0215017,18.3578318 9.91196668,18.0436455 9.67724868,17.8551338 C8.09681414,16.6455169 7.0327592,15.1060044 7.04840707,13.5350733 C7.04840707,10.6445601 9.99020601,8.09965176 13.4170888,8.09965176 C16.5466622,8.09965176 18.9720815,9.93764113 19.613644,12.2940378 C16.2493527,12.4982588 13.5735675,14.9803299 13.5579196,18.1536107 C13.5579196,18.4363783 13.5892154,18.7034366 13.6205111,18.9704949 C13.5422718,18.9862042 13.4796803,19.0019135 13.401441,19.0019135 Z M22.5867387,22.3165781 L22.6023866,22.3479967 L22.2894292,22.1751943 L21.726106,22.0966477 C21.021952,22.2851595 20.3803895,22.4422526 19.8170663,22.4422526 C16.8439716,22.4265433 14.6376224,20.3529142 14.6376224,17.9022617 C14.6376224,15.4673186 16.8439716,13.3779802 19.8170663,13.3622709 C22.6023866,13.3622709 24.9965102,15.4987372 24.9965102,17.9022617 C25.0121581,19.2061345 24.1358775,20.494298 22.8371046,21.5154032 C22.6023866,21.703915 22.4928515,22.0338105 22.5867387,22.3165781 Z" id="Shape" fill="#FFFFFF" fill-rule="nonzero"></path>
                        <path d="M10.7218863,11.3002114 C10.0844705,11.3002114 9.57142857,11.7786167 9.57142857,12.3729991 C9.57142857,12.9673815 10.0844705,13.4457868 10.7218863,13.4457868 C11.3593021,13.4457868 11.8723441,12.9673815 11.8723441,12.3729991 C11.8723441,11.7786167 11.3593021,11.3002114 10.7218863,11.3002114 Z M14.8573156,13.4312896 C15.4947314,13.4312896 16.0077734,12.9528843 16.0077734,12.358502 C16.0077734,11.7641196 15.4947314,11.2857143 14.8573156,11.2857143 C14.2198998,11.2857143 13.7068578,11.7641196 13.7068578,12.358502 C13.7068578,12.9528843 14.2198998,13.4312896 14.8573156,13.4312896 Z M18.3086889,16.4321957 C18.246502,16.4321957 18.1843151,16.4321957 18.1221282,16.4466928 C17.7023666,16.5336756 17.391432,16.8671096 17.391432,17.2875264 C17.391432,17.6934461 17.7023666,18.0413772 18.1221282,18.12836 C18.1843151,18.1428571 18.246502,18.1428571 18.3086889,18.1428571 C18.8217309,18.1428571 19.2259458,17.7659317 19.2259458,17.2875264 C19.2259458,16.8236182 18.8061841,16.4321957 18.3086889,16.4321957 Z M21.5113146,16.4321957 C21.3247538,16.4321957 21.1381931,16.4901842 20.9982726,16.577167 C20.858352,16.6641498 20.7339782,16.794624 20.6717913,16.9540924 C20.6251511,17.0555723 20.5940577,17.1715494 20.5940577,17.2875264 C20.5940577,17.4035035 20.6251511,17.5194805 20.6717913,17.6209604 C20.7339782,17.7804289 20.858352,17.9109031 20.9982726,17.9978858 C21.1381931,18.0848686 21.3247538,18.1428571 21.5113146,18.1428571 C22.0243565,18.1428571 22.4285714,17.7659317 22.4285714,17.2875264 C22.4285714,16.8236182 22.0243565,16.4321957 21.5113146,16.4321957 Z" id="Shape" fill="#FFFDFD" fill-rule="nonzero"></path>
                    </g>
                </g>
            </g>
        </g>
    </g>
</svg>