<?xml version="1.0" encoding="utf-8"?>
<!-- Generator: Adobe Illustrator 22.0.0, SVG Export Plug-In . SVG Version: 6.00 Build 0)  -->
<svg version="1.1" id="图层_1" xmlns="http://www.w3.org/2000/svg" xmlns:xlink="http://www.w3.org/1999/xlink" x="0px" y="0px"
	 viewBox="0 0 500 500" style="enable-background:new 0 0 500 500;" xml:space="preserve">
<style type="text/css">
	.st0{fill:#FFFFFF;}
</style>
<g>
	<g>
		<path class="st0" d="M443.9,39H55.6C24.9,39-0.1,63.7-0.1,94.1v324.3c0,30.4,25,55.1,55.7,55.1h388.2c30.7,0,55.7-24.7,55.7-55.1
			V94.1C499.5,63.7,474.6,39,443.9,39L443.9,39z M21.6,94.1c0-18.4,15.2-33.4,34-33.4h388.2c18.7,0,34,15,34,33.4v197
			c-27.4-19.2-80.4-50.9-130.8-50.9c-41.2,0-85.9,35.2-129.2,69.2c-39.7,31.2-77.2,60.7-109.8,60.7c-26.2,0-67.1-18.5-86.4-30.6
			V94.1z M477.8,418.3c0,18.4-15.2,33.4-34,33.4H55.6c-18.7,0-34-15-34-33.4v-53.9C45,377.1,81,391.7,108,391.7
			c40.2,0,80.5-31.7,123.3-65.3c40.3-31.7,82.1-64.5,115.8-64.5c51.1,0,111.1,40.3,130.8,56V418.3z M477.8,418.3"/>
	</g>
	<path class="st0" d="M231.8,193.8c0-41.9-34.1-76-76-76c-41.9,0-76,34.1-76,76c0,41.9,34.1,76,76,76
		C197.7,269.8,231.8,235.7,231.8,193.8L231.8,193.8z M101.5,193.8c0-29.9,24.4-54.3,54.3-54.3c30,0,54.3,24.3,54.3,54.3
		c0,30-24.3,54.3-54.3,54.3C125.8,248.1,101.5,223.7,101.5,193.8L101.5,193.8z M101.5,193.8"/>
</g>
</svg>
