<?xml version="1.0" encoding="utf-8"?>
<!-- Generator: Adobe Illustrator 22.0.0, SVG Export Plug-In . SVG Version: 6.00 Build 0)  -->
<svg version="1.1" id="图层_1" xmlns="http://www.w3.org/2000/svg" xmlns:xlink="http://www.w3.org/1999/xlink" x="0px" y="0px"
	 viewBox="0 0 40 40" style="enable-background:new 0 0 40 40;" xml:space="preserve">
<style type="text/css">
	.st0{fill:#FFFFFF;}
</style>
<g>
	<path class="st0" d="M29.5,17.7h-6c2.3-8.7-1.6-9.1-1.6-9.1c-1.7,0-1.3,1.3-1.5,1.5c0,4.2-4.5,7.6-4.5,7.6v12
		c0,1.2,1.6,1.6,2.2,1.6h9.1c0.9,0,1.6-2.2,1.6-2.2c2.2-7.6,2.2-9.9,2.2-9.9C31,17.6,29.5,17.7,29.5,17.7L29.5,17.7z M29.5,17.7"/>
	<path class="st0" d="M13.4,17.7H9.8C9,17.7,9,18.5,9,18.5l0.7,12.1c0,0.8,0.8,0.8,0.8,0.8h3.1c0.7,0,0.6-0.5,0.6-0.5V18.7
		C14.3,17.7,13.4,17.7,13.4,17.7L13.4,17.7z M13.4,17.7"/>
</g>
</svg>
