<svg xmlns="http://www.w3.org/2000/svg" viewBox="0 0 44 58"><defs><style>.cls-1{fill:#e53f2f;}.cls-2{fill:#fff;}</style></defs><title>资源 5</title><g id="图层_2" data-name="图层 2"><g id="图层_1-2" data-name="图层 1"><polygon class="cls-1" points="0 0 0 44.97 22 58 44 44.97 44 0 0 0"/><path class="cls-2" d="M31.68,12.54H12.32A3.39,3.39,0,0,0,9,15.94V27.36a3.39,3.39,0,0,0,3.36,3.39H31.68A3.39,3.39,0,0,0,35,27.36V15.94A3.39,3.39,0,0,0,31.68,12.54ZM25,22.24l-4.12,2.4a.67.67,0,0,1-1-.59V19.25a.67.67,0,0,1,1-.59L25,21.06A.68.68,0,0,1,25,22.24Z"/></g></g></svg>