<?xml version="1.0" encoding="utf-8"?>
<!-- Generator: Adobe Illustrator 22.0.0, SVG Export Plug-In . SVG Version: 6.00 Build 0)  -->
<svg version="1.1" id="图层_1" xmlns="http://www.w3.org/2000/svg" xmlns:xlink="http://www.w3.org/1999/xlink" x="0px" y="0px"
	 viewBox="0 0 30 30" style="enable-background:new 0 0 30 30;" xml:space="preserve">
<style type="text/css">
	.st0{fill:#FFFFFF;}
	.st1{fill:none;stroke:#FFFFFF;stroke-width:1.5;stroke-miterlimit:10;}
</style>
<g>
	<g>
		<g>
			<g>
				<path class="st0" d="M16.9,4.5c0.2,0,0.4,0,0.5,0.1c1.1,0.3,1.8,1.4,1.5,2.5c-0.3,0.9-1.1,1.5-2.1,1.5c-0.2,0-0.4,0-0.5-0.1
					c-1.1-0.3-1.8-1.4-1.5-2.5C15.1,5.1,16,4.5,16.9,4.5 M16.9,3c-1.6,0-3,1-3.5,2.6c-0.3,0.9-0.2,1.9,0.3,2.7
					c0.5,0.8,1.3,1.5,2.3,1.7c0.3,0.1,0.6,0.1,0.9,0.1c1.6,0,3-1,3.5-2.6l0,0l0,0c0.5-2-0.6-3.9-2.6-4.3C17.5,3,17.2,3,16.9,3
					L16.9,3z"/>
			</g>
			<g>
				<path class="st0" d="M14.9,10.1c0.1,0,0.3,0,0.4,0.1c0.1,0,1.1,0.3,1.1,0.3c0.4,0.1,0.7,0.4,0.9,0.6l3.9,4.3
					c0.4,0.4,0.3,1.1-0.1,1.5c-0.1,0.1-0.4,0.2-0.7,0.2c-0.3,0-0.5-0.1-0.8-0.3L17.2,14l-1.1,3.8l2,2.6c0.1,0.1,1.3,3.7,1.3,3.7
					c0.1,0.6-0.1,1.1-0.7,1.3c-0.1,0-0.2,0.1-0.3,0.1c-0.4,0-0.9-0.3-1-0.7l-1.1-3.3l-2.2-2.9c0,0-0.6,3.1-0.8,3.2l-3,3.3
					c-0.2,0.2-0.5,0.3-0.8,0.3c-0.3,0-0.6-0.1-0.7-0.3c-0.4-0.4-0.5-1.1-0.1-1.5l2.8-3.1l1.5-6.7L10.1,16c-0.2,0.1-0.5,0.1-0.7,0.1
					c-0.3,0-0.6-0.1-0.8-0.3c-0.4-0.5-0.3-1.1,0.2-1.5l5.5-4C14.5,10.1,14.7,10.1,14.9,10.1 M14.9,8.6c-0.5,0-1.1,0.2-1.5,0.5
					l-5.4,4c-0.6,0.4-0.9,1-1,1.7c-0.1,0.6,0.1,1.3,0.5,1.9l0,0l0,0c0.5,0.6,1.2,0.9,1.9,0.9c0.4,0,0.8-0.1,1.2-0.2l0,0l-0.6,2.5
					l-2.5,2.8c-1,1-0.9,2.5,0.1,3.6c0.4,0.4,1.1,0.7,1.8,0.7c0.7,0,1.3-0.3,1.8-0.8l0,0l0,0l3-3.3c0.2-0.2,0.3-0.3,0.4-0.8l0.1,0.2
					l1,3l0,0l0,0c0.4,1.1,1.5,1.7,2.4,1.7c0.3,0,0.6-0.1,0.9-0.2c1.2-0.5,1.8-1.8,1.5-3.1l0-0.1l0-0.1c-1.2-3.6-1.3-4-1.5-4.2
					l-1.5-1.9l0.1-0.4l0.7,0.8l0,0l0,0c0.5,0.5,1.1,0.7,1.8,0.7c0.7,0,1.4-0.3,1.8-0.7l0,0l0,0c0.9-1.1,1-2.5,0.2-3.5l0,0l0,0
					l-3.9-4.3C18.2,9.6,17.6,9.2,17,9l0,0l0,0c-0.6-0.2-0.9-0.2-1.1-0.3C15.5,8.6,15.2,8.6,14.9,8.6L14.9,8.6z"/>
			</g>
			<path class="st1" d="M21.3,15.4"/>
		</g>
	</g>
</g>
</svg>
