<?xml version="1.0" encoding="utf-8"?>
<!-- Generator: Adobe Illustrator 22.0.0, SVG Export Plug-In . SVG Version: 6.00 Build 0)  -->
<svg version="1.1" id="图层_1" xmlns="http://www.w3.org/2000/svg" xmlns:xlink="http://www.w3.org/1999/xlink" x="0px" y="0px"
	 viewBox="0 0 500 500" style="enable-background:new 0 0 500 500;" xml:space="preserve">
<style type="text/css">
	.st0{clip-path:url(#SVGID_2_);fill:#FFFFFF;}
	.st1{fill:#FFFFFF;}
</style>
<g>
	<g>
		<defs>
			<rect id="SVGID_1_" x="115.8" y="127.2" width="268.4" height="268.7"/>
		</defs>
		<clipPath id="SVGID_2_">
			<use xlink:href="#SVGID_1_"  style="overflow:visible;"/>
		</clipPath>
		<path class="st0" d="M249.9,127.4c-74.3,0-134.1,59.8-134.1,134.1c0,74.3,59.8,134.1,134.1,134.1c74.3,0,134.1-59.8,134.1-134.1
			C384,187.2,324.1,127.4,249.9,127.4L249.9,127.4z M249.9,385.3c-68.1,0-123.8-55.7-123.8-123.8c0-68.1,55.7-123.8,123.8-123.8
			c68.1,0,123.8,55.7,123.8,123.8C373.7,329.6,317.9,385.3,249.9,385.3L249.9,385.3z M249.9,385.3"/>
	</g>
	<path class="st1" d="M322.1,199.6H188c-6.2,0-10.3,4.1-10.3,10.3c0,6.2,5.2,10.3,10.3,10.3h134.1c6.2,0,10.3-4.1,10.3-10.3
		C332.4,203.7,327.2,199.6,322.1,199.6L322.1,199.6z M322.1,251.2H188c-6.2,0-10.3,4.1-10.3,10.3c0,6.2,5.2,10.3,10.3,10.3h134.1
		c6.2,0,10.3-4.1,10.3-10.3C332.4,255.3,327.2,251.2,322.1,251.2L322.1,251.2z M322.1,302.7H188c-6.2,0-10.3,4.1-10.3,10.3
		c0,6.2,5.2,10.3,10.3,10.3h134.1c6.2,0,10.3-4.1,10.3-10.3C332.4,306.9,327.2,302.7,322.1,302.7L322.1,302.7z M322.1,302.7"/>
</g>
</svg>
