<?xml version="1.0" encoding="utf-8"?>
<!-- Generator: Adobe Illustrator 22.0.0, SVG Export Plug-In . SVG Version: 6.00 Build 0)  -->
<svg version="1.1" id="图层_1" xmlns="http://www.w3.org/2000/svg" xmlns:xlink="http://www.w3.org/1999/xlink" x="0px" y="0px"
	 viewBox="0 0 30 30" style="enable-background:new 0 0 30 30;" xml:space="preserve">
<style type="text/css">
	.st0{fill:#FFFFFF;stroke:#FFFFFF;stroke-width:0.5;stroke-miterlimit:10;}
</style>
<g>
	<g>
		<path class="st0" d="M24.5,14.9c0-0.8-0.1-1.1-1.3-2C22.1,12.1,12.1,5.7,11,5.1c-1.4-0.8-3.2-0.8-4.5,0c-0.6,0.5-1,1.3-0.9,2.1
			v15.5c-0.1,0.8,0.3,1.6,0.9,2.1c0.7,0.4,1.4,0.7,2.2,0.7c0.8,0,1.6-0.2,2.3-0.6c1.1-0.6,11.2-7,12.2-7.7
			C24.4,16.2,24.5,15.7,24.5,14.9L24.5,14.9z M23.2,15.1c0,0.4,0.1,0.5-0.8,1.2c-1,0.8-10.9,7.1-12,7.7c-0.6,0.3-2.1,0.9-3.4,0
			c-0.3-0.2-0.4-0.5-0.4-1.2V7.3c0-0.7,0.1-1,0.4-1.2c0.5-0.3,1-0.5,1.5-0.5c0.6,0,1.3,0.2,1.8,0.5c1.1,0.6,10.9,6.9,12,7.7
			C23.3,14.5,23.2,15.1,23.2,15.1L23.2,15.1z M23.2,15.1"/>
	</g>
</g>
</svg>
