<?xml version="1.0" encoding="utf-8"?>
<!-- Generator: Adobe Illustrator 22.0.0, SVG Export Plug-In . SVG Version: 6.00 Build 0)  -->
<svg version="1.1" id="图层_1" xmlns="http://www.w3.org/2000/svg" xmlns:xlink="http://www.w3.org/1999/xlink" x="0px" y="0px"
	 viewBox="0 0 500 500" style="enable-background:new 0 0 500 500;" xml:space="preserve">
<style type="text/css">
	.st0{fill:#FFFFFF;}
</style>
<g>
	<path class="st0" d="M464.8,82.4C417.1,37.3,353,43.8,353,43.8c-11.9,0.1-21.5,9.7-21.6,21.6v-4.5c0,11.9,9.8,21,21.5,21
		c0,0,61.5-7.1,90.1,34c28.6,41.1,16.9,86.5,16.9,86.5c-0.9,5.4,0.6,11,4.2,15.1c3.6,4.1,8.9,6.4,14.4,6.3h-4.9
		c11.9,0,22.9-9.5,24-21.3C497.6,202.5,512.5,127.5,464.8,82.4"/>
	<path class="st0" d="M416.2,129.2c-26-23.4-56.1-15.2-56.1-15.2c-8.1,1.2-14.1,8.1-14.3,16.2v-4.1c0,7.9,6.3,13.9,14.3,13.9
		c0,0,24.8-3.9,38.7,12.6c13.9,16.5,4,39.2,4,39.2c-2.2,7.6,2.5,13.8,10.5,13.8h1.4c8,0,15.7-6.3,16.8-14.2
		C431.6,191.4,442.2,152.7,416.2,129.2"/>
	<path class="st0" d="M285.8,301.9c-7.5-39-51.7-63.3-98.5-54.2c-46.9,9.1-78.7,48.1-71.1,87.2c7.6,39.1,51.7,63.3,98.6,54.2
		C261.5,380,293.4,341,285.8,301.9z M183,350.4L183,350.4c-14.4,6.7-30.2,3.4-35.2-7.4c-5.1-10.8,2.5-25,17-31.7
		c14.4-6.7,30.2-3.4,35.2,7.4C205.1,329.5,197.4,343.7,183,350.4z M216.2,317.6L216.2,317.6c-8,0-14.5-6.5-14.4-14.4
		c0-8,6.5-14.4,14.4-14.4c8,0,14.4,6.5,14.4,14.4C230.7,311.1,224.2,317.6,216.2,317.6z"/>
	<path class="st0" d="M216.2,317.6"/>
	<path class="st0" d="M361.5,231.6c0-4.4,41.9-43.4,0-67.7c-41.9-24.3-118.5,12.6-116.2,8.6c32.9-56.7-14.2-74.6-38.2-74.6
		c-57.3,0-207,125.6-207,205.1c0,79.6,99.9,144,223.3,144c123.3,0,222.3-64.5,222.3-144C445.7,236,361.5,236,361.5,231.6z
		 M229.3,403.1c-78.8,11.1-148.5-21.5-155.7-72.7c-7.2-51.2,50.8-101.7,129.6-112.8c78.8-11,148.5,21.5,155.7,72.7
		C366.1,341.5,308,392,229.3,403.1z"/>
	<path class="st0" d="M229.3,403.1"/>
</g>
</svg>
