
<svg width="18px" height="18px" viewBox="0 0 18 18" version="1.1" xmlns="http://www.w3.org/2000/svg" xmlns:xlink="http://www.w3.org/1999/xlink">
    <!-- Generator: Sketch 49.1 (51147) - http://www.bohemiancoding.com/sketch -->
    <desc>Created with Sketch.</desc>
    <defs></defs>
    <g id="Page-1" stroke="none" stroke-width="1" fill="none" fill-rule="evenodd">
        <g id="首页-下拉" transform="translate(-312.000000, -271.000000)" fill-rule="nonzero">
            <g id="第五层" transform="translate(21.000000, 81.000000)">
                <g id="放大" transform="translate(291.000000, 190.000000)">
                    <path d="M16.9612767,0 L1.03872334,0 C0.465046419,0 1.790454e-08,0.461085556 1.790454e-08,1.02984968 L0,16.9701319 C0,17.5389144 0.465046401,18 1.03872332,18 L16.9612767,18 C17.5349719,18 18,17.5389328 18,16.9701319 L18,1.02984968 C18.0000183,0.461085556 17.5349719,0 16.9612767,0 Z" id="Shape" fill-opacity="0.396908967" fill="#000000"></path>
                    <path d="M14.2635073,3.19607843 L9.69727701,3.19607843 C9.39882423,3.19607843 9.15686275,3.4060307 9.15686275,3.71030725 C9.15686275,3.71030725 9.20027603,4.1417636 9.6612494,4.1417636 C9.77385371,4.1417636 12.2969758,4.1417636 13.0833506,4.1417636 L9.93329291,7.35330518 C9.71399325,7.5768852 9.7139937,7.93486212 9.93329393,8.15844158 L9.93329393,8.15844158 C10.1471972,8.37651878 10.4973866,8.37990242 10.7154638,8.16599915 C10.7180069,8.16350469 10.7205259,8.16098572 10.7230203,8.15844259 L13.8582326,4.96206874 L13.8582326,8.33634639 C13.8582326,8.80780237 14.3175487,8.84313725 14.3175487,8.84313725 C14.6160015,8.84313725 14.8039216,8.59645434 14.8039216,8.29217781 L14.8039216,3.74703788 C14.8039216,3.44276134 14.5619601,3.19607843 14.2635073,3.19607843 Z" id="Shape" fill="#FFFFFF"></path>
                    <path d="M3.42276891,15.1176471 L7.98899578,15.1176471 C8.28744951,15.1176471 8.52941176,14.9076948 8.52941176,14.6034182 C8.52941176,14.6034182 8.48599835,14.1719619 8.0250235,14.1719619 C7.91241882,14.1719619 5.38928863,14.1719619 4.60291131,14.1719619 L7.7529791,10.9604203 C7.97227927,10.7368405 7.97227881,10.3788632 7.75297808,10.1552839 L7.75297808,10.1552839 C7.53907453,9.93720711 7.18888529,9.93382403 6.97080851,10.1477276 C6.96826513,10.1502223 6.96574591,10.1527415 6.96325121,10.1552849 L3.82804488,13.3516751 L3.82804488,9.9773791 C3.82804488,9.50592312 3.36872732,9.47058824 3.36872732,9.47058824 C3.07027359,9.47058824 2.88235294,9.71727115 2.88235294,10.0215477 L2.88235294,14.5666692 C2.88235292,14.8709641 3.12431518,15.1176471 3.42276891,15.1176471 Z" id="Shape" fill="#FFFFFF"></path>
                </g>
            </g>
        </g>
    </g>
</svg>