<?xml version="1.0" encoding="utf-8"?>
<!-- Generator: Adobe Illustrator 22.0.0, SVG Export Plug-In . SVG Version: 6.00 Build 0)  -->
<svg version="1.1" id="图层_1" xmlns="http://www.w3.org/2000/svg" xmlns:xlink="http://www.w3.org/1999/xlink" x="0px" y="0px"
	 viewBox="0 0 30 30" style="enable-background:new 0 0 30 30;" xml:space="preserve">
<style type="text/css">
	.st0{fill:none;}
	.st1{fill:#FFFFFF;}
</style>
<g>
	<path class="st0" d="M22,10.9c-1.2-0.1-2.1-1.2-2-2.4s1.2-2,2.4-1.9c1.2,0.1,2.1,1.2,2,2.4C24.3,10.2,23.2,11,22,10.9z"/>
	<path class="st1" d="M14.1,27.3C14.1,27.3,14.1,27.3,14.1,27.3c-0.7,0.7-1.9,0.7-2.6,0l-8.8-8.7c-0.7-0.7-0.7-1.8,0-2.5l5.7-5.8
		L6.9,8.7l-5.8,5.8c-1.5,1.5-1.5,4,0,5.5l8.8,8.7c0.8,0.8,1.8,1.2,2.8,1.2c0,0,0,0,0,0c1.1,0,2.1-0.4,2.8-1.1c0,0,0.1-0.1,0.1-0.1
		l6-5.7l-1.6-1.5L14.1,27.3z"/>
	<path class="st1" d="M15.1,3.6c0.4-0.4,0.9-0.6,1.5-0.5L26.8,4l0.6,9.8c0,0.5-0.2,1-0.5,1.4l-1.7,1.6l1.6,1.5l1.7-1.6
		c0.9-0.9,1.3-1.9,1.2-3L29,2.9c0-0.5-0.5-1-1-1L16.8,1c-1.2-0.1-2.4,0.3-3.3,1.2l-1.6,1.7l1.6,1.5L15.1,3.6z"/>
	<path class="st1" d="M22.5,6.6c-1.2-0.1-2.3,0.7-2.4,1.9s0.8,2.2,2,2.4c1.2,0.1,2.3-0.7,2.4-1.9C24.6,7.8,23.7,6.8,22.5,6.6z"/>
	<path class="st1" d="M29.7,24.7L4.6,0.3c-0.4-0.4-1-0.4-1.4,0c-0.4,0.4-0.4,1,0,1.3L28.3,26c0.2,0.2,0.4,0.3,0.7,0.3
		c0.2,0,0.5-0.1,0.7-0.3C30.1,25.7,30.1,25.1,29.7,24.7z"/>
</g>
</svg>
