<?xml version="1.0" encoding="utf-8"?>
<!-- Generator: Adobe Illustrator 22.0.0, SVG Export Plug-In . SVG Version: 6.00 Build 0)  -->
<svg version="1.1" id="图层_1" xmlns="http://www.w3.org/2000/svg" xmlns:xlink="http://www.w3.org/1999/xlink" x="0px" y="0px"
	 viewBox="0 0 40 40" style="enable-background:new 0 0 40 40;" xml:space="preserve">
<style type="text/css">
	.st0{display:none;}
	.st1{display:inline;}
	.st2{fill:#FFFFFF;}
</style>
<g class="st0">
	<path class="st1" d="M37.8,27.8c-2.7,0-5.3-0.4-8-1.3c-0.7-0.2-1.6,0-2.2,0.4l-4.9,4.9C16.4,28.7,11.3,23.3,8,17.1l4.9-4.9
		c0.7-0.7,0.9-1.6,0.4-2.2c-0.7-2.4-1.1-5.1-1.1-7.8C12.2,0.9,11.3,0,10,0H2.2C0.9,0,0,0.9,0,2.2C0,23.1,16.9,40,37.8,40
		c1.3,0,2.2-0.9,2.2-2.2V30C40,28.7,39.1,27.8,37.8,27.8 M35.6,17.8"/>
</g>
<path class="st2" d="M8.6,30.6c0-0.1-0.1-0.3-0.1-0.4c0-4.3,0-8.7,0-13c0-0.3,0.1-0.6,0.1-0.9c0-1.1,0-2.2,0-3.3
	c0-0.8,0.4-1.5,0.9-2.2c0.6-0.8,1.5-1.2,2.4-1.4c5.5,0,10.9,0,16.4,0c0.5,0.2,1.1,0.4,1.6,0.7c0.9,0.6,1.4,1.5,1.7,2.6
	c0,3.8,0,7.5,0,11.3c0,0.1-0.1,0.2-0.1,0.3c-0.1,0.8-0.4,1.4-0.9,2c-0.9,1-2,1.4-3.2,1.4c-4.4,0-8.9,0-13.3,0c-1.2,0-2.1,0.2-3,1
	C10.2,29.3,9.4,29.9,8.6,30.6z M20.1,15.2c-1.8,0-3.6,0-5.3,0c-0.2,0-0.5,0-0.7,0.1c-0.4,0.1-0.7,0.4-0.7,0.9c0,0.5,0.2,0.8,0.6,0.9
	c0.2,0.1,0.3,0.1,0.5,0.1c3.7,0,7.4,0,11.1,0c0.2,0,0.3,0,0.5-0.1c0.4-0.1,0.7-0.5,0.7-0.9c0-0.5-0.3-0.8-0.7-0.9
	c-0.2,0-0.4,0-0.6-0.1C23.6,15.2,21.8,15.2,20.1,15.2z M17.1,21.9c0.9,0,1.9,0,2.8,0c0.6,0,1-0.4,1-0.9c0-0.5-0.4-1-1-1
	c-1.9,0-3.7,0-5.6,0c-0.6,0-1,0.4-1,0.9c0,0.6,0.4,1,1.1,1C15.3,21.9,16.2,21.9,17.1,21.9z"/>
</svg>
