<?xml version="1.0" encoding="utf-8"?>
<!-- Generator: Adobe Illustrator 22.0.0, SVG Export Plug-In . SVG Version: 6.00 Build 0)  -->
<svg version="1.1" id="图层_1" xmlns="http://www.w3.org/2000/svg" xmlns:xlink="http://www.w3.org/1999/xlink" x="0px" y="0px"
	 viewBox="0 0 40 40" style="enable-background:new 0 0 40 40;" xml:space="preserve">
<style type="text/css">
	.st0{opacity:0.5;}
	.st1{fill:#FFFFFF;}
</style>
<g class="st0">
	<path class="st1" d="M30.1,37.5C18.6,37.5,2.6,19.8,2.6,10c0-3.8,5.3-7.5,7.5-7.5c2.8,0,7.5,8.5,7.5,10c0,1.3-0.5,2-1,2.8
		c-0.5,0.5-0.7,1-0.7,1.5c0,1.3,5.5,6.8,6.8,7c0.5,0,1-0.3,1.5-0.7c0.7-0.5,1.8-1,3-1c1.8,0,10.3,5.5,10.3,7.5
		C37.6,34,33.6,37.5,30.1,37.5L30.1,37.5z M10.1,4.5c-1.5,0-5.5,3-5.5,5.8c0,4,3.5,10.5,9.3,16c5.7,5.7,12,9.5,16.5,9.5
		c2.5,0,5.5-2.8,5.5-5.5c-0.8-1.3-7-5.7-8.2-6c-0.7,0-1.3,0.5-2,0.8c-0.7,0.5-1.5,0.7-2.5,0.7c-2,0-8.8-6.8-8.8-8.8
		c0-1.2,0.5-2,0.7-2.8c0.5-0.5,0.7-1,0.7-1.8C15.3,10.5,10.8,4.5,10.1,4.5L10.1,4.5z M35.8,30L35.8,30z"/>
</g>
</svg>
