<svg xmlns="http://www.w3.org/2000/svg" viewBox="0 0 12.5 8.55"><defs><style>.cls-1{fill:#fff;}</style></defs><title>eye</title><g id="图层_2" data-name="图层 2"><g id="图层_1-2" data-name="图层 1"><g id="图层_2-2" data-name="图层 2"><g id="图层_1-2-2" data-name="图层 1-2"><path class="cls-1" d="M6.25,8.55C2.74,8.55.25,5,.15,4.8a1,1,0,0,1,0-1C.25,3.6,2.74,0,6.25,0s6,3.6,6.1,3.75a1,1,0,0,1,0,1C12.25,5,9.73,8.55,6.25,8.55Zm0-7.93C3.14.63.76,4,.66,4.11a.37.37,0,0,0,0,.33s2.42,3.49,5.6,3.49,5.56-3.45,5.58-3.49a.36.36,0,0,0,0-.32C11.76,4,9.41.62,6.25.62Z"/><path class="cls-1" d="M6.25,6.57A2.29,2.29,0,1,1,8.54,4.28,2.29,2.29,0,0,1,6.25,6.57Zm0-4A1.67,1.67,0,1,0,7.92,4.27,1.67,1.67,0,0,0,6.25,2.6Z"/></g></g></g></g></svg>