<?xml version="1.0" encoding="UTF-8"?>
<svg width="30px" height="30px" viewBox="0 0 30 30" version="1.1" xmlns="http://www.w3.org/2000/svg" xmlns:xlink="http://www.w3.org/1999/xlink">
    <!-- Generator: Sketch 52.2 (67145) - http://www.bohemiancoding.com/sketch -->
    <title>切片</title>
    <desc>Created with Sketch.</desc>
    <g id="Page-1" stroke="none" stroke-width="1" fill="none" fill-rule="evenodd">
        <g id="分组-copy" transform="translate(5.000000, 5.000000)" fill-rule="nonzero">
            <path d="M18.3275425,19 L0.672675208,19 C0.432364467,19.0000289 0.210291546,18.9047358 0.0901249482,18.7500234 C-0.0300416494,18.5953109 -0.0300416494,18.4046891 0.0901249482,18.2499766 C0.210291546,18.0952642 0.432364467,17.9999711 0.672675208,18 L18.3275425,18 C18.6989481,18.0000447 19,18.2238892 19,18.5 C19,18.7761108 18.6989481,18.9999553 18.3275425,19 Z" id="形状" fill="#FFFFFF"></path>
            <path d="M2.54399279,10.9951727 L14.0424821,1.76834812 C14.4732313,1.42269861 15.1026268,1.49168553 15.4482763,1.92243472 C15.4550432,1.93086758 15.4616728,1.93940963 15.4681626,1.9480575 L18.100503,5.45573373 C18.4309601,5.89607815 18.3433276,6.52070474 17.9044563,6.85311571 L6.71616515,15.3273786 C6.59128312,15.421967 6.44592465,15.4858917 6.29180644,15.5139999 L1.82387392,16.3288657 C1.55221269,16.3784115 1.29182292,16.1983514 1.24227709,15.9266902 C1.23016009,15.8602523 1.23162768,15.7920484 1.2465913,15.7261933 L2.19470268,11.5535406 C2.24474214,11.3333161 2.36785271,11.1365141 2.54399279,10.9951727 Z" id="路径-4" stroke="#FFFFFF" stroke-width="1.5" transform="translate(9.845142, 8.878814) rotate(9.000000) translate(-9.845142, -8.878814) "></path>
        </g>
    </g>
</svg>