<?xml version="1.0" encoding="UTF-8"?>
<svg width="30px" height="30px" viewBox="0 0 30 30" version="1.1" xmlns="http://www.w3.org/2000/svg" xmlns:xlink="http://www.w3.org/1999/xlink">
    <!-- Generator: Sketch 52.2 (67145) - http://www.bohemiancoding.com/sketch -->
    <title>切片</title>
    <desc>Created with Sketch.</desc>
    <defs>
        <linearGradient x1="50%" y1="2.19924133%" x2="50%" y2="100%" id="linearGradient-1">
            <stop stop-color="#FFFFFF" stop-opacity="0" offset="1.68668714%"></stop>
            <stop stop-color="#FFFFFF" stop-opacity="0.485818614" offset="100%"></stop>
        </linearGradient>
        <path d="M15.0835657,12 L22.0191884,14.1357852 L27.1671314,14.9845731 C27.1671314,14.9845731 26.9159818,17.3291436 26.3091409,18.3797249 C25.7023,19.4303061 23.7351694,20.9260886 23.7351694,20.9260886 L19.4452168,20.0773007 L11.9532077,19.8758677 C11.9532077,19.8758677 8.72887541,20.8893015 7.4333497,20.9260886 C6.13782399,20.9628758 4.85937818,20.0773007 4.85937818,20.0773007 C4.85937818,20.0773007 3.46604076,19.4968654 3.14339716,18.3797249 C2.82075355,17.2625843 3.14339716,14.1357852 3.14339716,14.1357852 L8.29134021,14.1357852 L15.0835657,12 Z" id="path-2"></path>
        <filter x="-115.9%" y="-224.0%" width="331.7%" height="727.3%" filterUnits="objectBoundingBox" id="filter-4">
            <feOffset dx="0" dy="8" in="SourceAlpha" result="shadowOffsetOuter1"></feOffset>
            <feGaussianBlur stdDeviation="8" in="shadowOffsetOuter1" result="shadowBlurOuter1"></feGaussianBlur>
            <feColorMatrix values="0 0 0 0 0   0 0 0 0 0   0 0 0 0 0  0 0 0 0.1 0" type="matrix" in="shadowBlurOuter1"></feColorMatrix>
        </filter>
    </defs>
    <g id="Page-1" stroke="none" stroke-width="1" fill="none" fill-rule="evenodd">
        <g id="标签-(1)-copy-2" transform="translate(-25.012043, 14.000000) rotate(-28.000000) translate(25.012043, -14.000000) translate(-47.012043, -8.500000)">
            <g id="分组-4" transform="translate(0.024820, 0.224254)"></g>
            <g id="Rectangle-3-Copy-6" transform="translate(0.024820, 0.224254)"></g>
        </g>
        <path d="M23.2998454,8.75001638 C22.5392381,8.74863242 21.019653,8.83232353 19.0124062,8.97591278 C16.3399996,9.16709182 13.6599752,9.16709182 10.987618,8.97591293 C8.98034462,8.83232177 7.46076108,8.74863156 6.70014173,8.75001636 C4.92145776,8.75331062 3.34317786,9.76654149 2.97013952,11.5926136 C2.43777551,14.198371 2.84739127,17.9592629 4.08523546,19.7129066 C5.41221821,21.5927796 7.77527368,21.606501 10.7010605,20.6589169 C11.4413453,20.419165 12.205888,20.1748485 12.969466,19.9333554 C14.2977954,19.5131895 15.7022268,19.5131895 17.0305259,19.9333459 C17.792301,20.1742687 18.5577566,20.4188808 19.2989744,20.658921 C22.2246521,21.6065009 24.5877575,21.5927792 25.9147404,19.712906 C27.1526048,17.9592867 27.5622131,14.198463 27.02988,11.5926006 C26.6568466,9.76655281 25.0785397,8.75331511 23.2998454,8.75001638 Z M23.2998454,8.75001638 C23.2998415,8.75001638 23.2998376,8.75001637 23.2998337,8.75001636 L23.2998572,8.7500164 C23.2998533,8.7500164 23.2998494,8.75001639 23.2998454,8.75001638 Z" id="Fill-1-Copy" stroke="#FFFFFF" stroke-width="1.5"></path>
        <mask id="mask-3" fill="white">
            <use xlink:href="#path-2"></use>
        </mask>
        <g id="Mask-Copy-6" opacity="0.15">
            <use fill="black" fill-opacity="1" filter="url(#filter-4)" xlink:href="#path-2"></use>
            <use fill="url(#linearGradient-1)" fill-rule="evenodd" xlink:href="#path-2"></use>
        </g>
    </g>
</svg>