<?xml version="1.0" encoding="utf-8"?>
<!-- Generator: Adobe Illustrator 22.0.0, SVG Export Plug-In . SVG Version: 6.00 Build 0)  -->
<svg version="1.1" id="图层_1" xmlns="http://www.w3.org/2000/svg" xmlns:xlink="http://www.w3.org/1999/xlink" x="0px" y="0px"
	 viewBox="0 0 30 30" style="enable-background:new 0 0 30 30;" xml:space="preserve">
<style type="text/css">
	.st0{fill:#FFFFFF;}
</style>
<path class="st0" d="M24.2,4.4h-8.5c-0.6,0-1.2,0.5-1.2,1.3v8.8H5.8c-0.6,0-1.3,0.5-1.3,1.3v8.5c0,0.6,0.5,1.3,1.3,1.3h18.4
	c0.6,0,1.3-0.5,1.3-1.3V5.7C25.5,5,25,4.4,24.2,4.4z M24.6,14.4h-6.3v1h6.2v9h-9v-6.2h-1v6.2h-9v-9h10v-10h9v9H24.6z"/>
<path class="st0" d="M24.2,4.4h-8.5c-0.6,0-1.2,0.5-1.2,1.3v8.8H5.8c-0.6,0-1.3,0.5-1.3,1.3v8.5c0,0.6,0.5,1.3,1.3,1.3h18.4
	c0.6,0,1.3-0.5,1.3-1.3V5.6C25.5,5,25,4.4,24.2,4.4z M24.6,14.3h-6.3v1h6.2v9h-9v-6.2h-1v6.2h-9v-9h10v-10h9v9H24.6z"/>
<path class="st0" d="M24.2,4.4h-8.5c-0.6,0-1.2,0.5-1.2,1.3v8.8H5.8c-0.6,0-1.3,0.5-1.3,1.3v8.5c0,0.6,0.5,1.3,1.3,1.3h18.4
	c0.6,0,1.3-0.5,1.3-1.3V5.6C25.5,5,25,4.4,24.2,4.4z M24.6,14.3h-6.3v1h6.2v9h-9v-6.2h-1v6.2h-9v-9h10v-10h9v9H24.6z"/>
</svg>
