<?xml version="1.0" encoding="UTF-8"?>
<svg width="17px" height="14px" viewBox="0 0 17 14" version="1.1" xmlns="http://www.w3.org/2000/svg" xmlns:xlink="http://www.w3.org/1999/xlink">
    <!-- Generator: Sketch 49.1 (51147) - http://www.bohemiancoding.com/sketch -->
    <title>Group 13</title>
    <desc>Created with Sketch.</desc>
    <defs>
        <linearGradient x1="50%" y1="0%" x2="50%" y2="100%" id="linearGradient-1">
            <stop stop-color="#FFFFFF" offset="0%"></stop>
            <stop stop-color="#FFFFFF" stop-opacity="0" offset="100%"></stop>
        </linearGradient>
        <linearGradient x1="50%" y1="0%" x2="50%" y2="96.9517702%" id="linearGradient-2">
            <stop stop-color="#FFFFFF" offset="0%"></stop>
            <stop stop-color="#FFFFFF" offset="100%"></stop>
        </linearGradient>
    </defs>
    <g id="主页toast-tip" stroke="none" stroke-width="1" fill="none" fill-rule="evenodd">
        <g id="竖版首页-copy-7" transform="translate(-273.000000, -204.000000)">
            <g id="雷达地图" transform="translate(264.000000, 79.000000)">
                <g id="Group-12" transform="translate(7.000000, 125.000000)">
                    <g id="Group-11" transform="translate(2.415289, 0.000000)">
                        <g id="Group-16-Copy">
                            <g id="Group-13" transform="translate(0.704459, 0.044330)">
                                <polygon id="Path-60" fill="#FFFFFF" opacity="0.488620924" points="-4.61852778e-14 5.48181393 5.66176471 8.23030374 15.3676471 4.10756903 15.3676471 8.23030374 5.66176471 13.0401609 -4.61852778e-14 10.2916711"></polygon>
                                <path d="M2.64489531,1.98434865 L7.27941176,0.671956762 L15.2593042,4.06154861 C15.2847206,4.07234464 15.2965727,4.10170059 15.2857767,4.12711696 C15.2807137,4.13903637 15.2712237,4.14852647 15.2593042,4.15358944 L5.66176471,8.23030374 L0.106224212,5.53338021 C0.0813823762,5.52132081 0.0710201716,5.49140644 0.0830795797,5.4665646 C0.0887519525,5.45487977 0.0987488007,5.44586091 0.110953906,5.4414172 L5.59023752,3.4464886 C5.60580628,3.44082023 5.61383214,3.42360414 5.60816378,3.40803539 C5.60531861,3.40022084 5.59935726,3.39393797 5.5917028,3.39068662 L2.63541573,2.13495459 C2.59474954,2.11768095 2.57578613,2.07071143 2.59305977,2.03004523 C2.60252948,2.0077513 2.62158993,1.99094821 2.64489531,1.98434865 Z" id="Path-59-Copy" stroke="#FFFFFF" stroke-width="0.5" stroke-linecap="round"></path>
                                <polyline id="Path-68" stroke="#FFFFFF" stroke-width="0.5" points="0.0735771672 5.47815593 0.178821683 10.2674564 5.66176471 13.0401609 15.23758 8.53683326 15.2870822 4.05477058"></polyline>
                                <path d="M5.66176471,8.23030374 L5.66176471,13.0401609" id="Path-69" stroke="url(#linearGradient-1)" stroke-width="0.5"></path>
                                <path d="M2.58499235,2.0560867 L2.58499235,4.6670415" id="Path-70" stroke="#FFFFFF" stroke-width="0.5"></path>
                                <polygon id="Path-4" fill="url(#linearGradient-2)" fill-rule="nonzero" points="5.35623127 3.41596274 5.85623127 3.41596274 5.85623127 8.2275777 5.35623127 8.2275777"></polygon>
                                <polygon id="Path-3" fill="url(#linearGradient-1)" fill-rule="nonzero" points="7.09650312 0.698358572 7.59650312 0.698358572 7.59650312 7.80182337 7.09650312 7.80182337"></polygon>
                            </g>
                        </g>
                    </g>
                </g>
            </g>
        </g>
    </g>
</svg>