<?xml version="1.0" encoding="UTF-8"?>
<svg width="32px" height="32px" viewBox="0 0 32 32" version="1.1" xmlns="http://www.w3.org/2000/svg" xmlns:xlink="http://www.w3.org/1999/xlink">
    <!-- Generator: Sketch 49.3 (51167) - http://www.bohemiancoding.com/sketch -->
    <title>microphone-on</title>
    <desc>Created with Sketch.</desc>
    <defs></defs>
    <g id="Page-1" stroke="none" stroke-width="1" fill="none" fill-rule="evenodd">
        <g id="Group-9" transform="translate(3.000000, 0.000000)" fill="#ccc" fill-rule="nonzero">
            <g id="microphone-black-shape" transform="translate(2.255696, 0.000000)">
                <path d="M11.2471063,22.1107227 C12.9647165,22.1107227 14.4346101,21.5093109 15.6575392,20.3070252 C16.8802633,19.1047395 17.4916937,17.6583529 17.4916937,15.9692101 L17.4916937,6.14218487 C17.4916937,4.45304202 16.8807418,3.0072605 15.6575392,1.80436975 C14.4346101,0.601747899 12.9647165,0 11.2471063,0 C9.52970127,0 8.05960253,0.601747899 6.83660506,1.80436975 C5.61353924,3.00705882 5.00210886,4.45304202 5.00210886,6.14218487 L5.00210886,15.9692101 C5.00210886,17.6582857 5.61381266,19.1047395 6.83660506,20.3070252 C8.05939747,21.5093109 9.52970127,22.1107227 11.2471063,22.1107227 Z" id="Shape"></path>
                <path d="M22.1169646,12.6487395 C21.8704785,12.4055798 21.5771013,12.2839664 21.2388152,12.2839664 C20.9008709,12.2839664 20.6081772,12.4055798 20.3606658,12.6487395 C20.1137013,12.8918319 19.9901165,13.1796975 19.9901165,13.5122689 L19.9901165,15.9692101 C19.9901165,18.3365378 19.1344557,20.3613445 17.4235443,22.0439664 C15.7131797,23.7266555 13.6541392,24.568 11.247038,24.568 C8.84000506,24.568 6.78116962,23.7266555 5.07018987,22.0439664 C3.35941519,20.3618151 2.5040962,18.336605 2.5040962,15.9692101 L2.5040962,13.5122689 C2.5040962,13.1796975 2.38044304,12.8918319 2.13334177,12.6487395 C1.8861038,12.4055798 1.59368354,12.2839664 1.25519241,12.2839664 C0.916701266,12.2839664 0.623939241,12.4055798 0.376837975,12.6487395 C0.129531646,12.8918319 0.00594683544,13.1796975 0.00594683544,13.5122689 L0.00594683544,15.9692101 C0.00594683544,18.7971092 0.965643038,21.2572101 2.88448861,23.3491092 C4.80340253,25.4410756 7.17454937,26.640605 9.99799747,26.9474958 L9.99799747,29.4813445 L5.00204051,29.4813445 C4.66375443,29.4813445 4.37106076,29.6030924 4.12389114,29.8462521 C3.87665316,30.0892101 3.753,30.3772101 3.753,30.709916 C3.753,31.042084 3.87665316,31.3306218 4.12389114,31.5735798 C4.37106076,31.8165378 4.66375443,31.9384874 5.00204051,31.9384874 L17.4916937,31.9384874 C17.8299114,31.9384874 18.1230152,31.816605 18.369843,31.5735798 C18.6173544,31.3306891 18.7410759,31.0421513 18.7410759,30.709916 C18.7410759,30.3772773 18.6173544,30.0892773 18.369843,29.8462521 C18.1230835,29.6030924 17.8299797,29.4813445 17.4916937,29.4813445 L12.4963519,29.4813445 L12.4963519,26.9474958 C15.3193215,26.640605 17.6902633,25.4410756 19.6093823,23.3491092 C21.5285013,21.2572101 22.4884709,18.7971092 22.4884709,15.9692101 L22.4884709,13.5122689 C22.4884709,13.1797647 22.3645443,12.8921008 22.1169646,12.6487395 Z" id="Shape"></path>
            </g>
        </g>
    </g>
</svg>