<?xml version="1.0" encoding="utf-8"?>
<!-- Generator: Adobe Illustrator 22.0.0, SVG Export Plug-In . SVG Version: 6.00 Build 0)  -->
<svg version="1.1" id="图层_1" xmlns="http://www.w3.org/2000/svg" xmlns:xlink="http://www.w3.org/1999/xlink" x="0px" y="0px"
	 viewBox="0 0 30 30" style="enable-background:new 0 0 30 30;" xml:space="preserve">
<style type="text/css">
	.st0{opacity:0.4886;fill:#FFFFFF;enable-background:new    ;}
	.st1{fill:none;stroke:#FFFFFF;stroke-width:0.5;stroke-linecap:round;}
	.st2{fill:none;stroke:#FFFFFF;stroke-width:0.5;}
	.st3{fill:#FFFFFF;}
	.st4{fill:url(#Path-4_1_);}
	.st5{fill:#FFFFFF;fill-opacity:0.5;}
</style>
<g id="Page-1">
	<g id="_x33_D-3层" transform="translate(-200.000000, -90.000000)">
		<g id="Group-12" transform="translate(200.000000, 90.000000)">
			<g id="Group-11">
				<g id="Group-16-Copy">
					<polygon id="Path-60" class="st0" points="2.7,12.7 11.8,17.3 27.3,10.4 27.3,17.3 11.8,25.3 2.7,20.7 					"/>
					<g id="Group-13" transform="translate(0.838642, 0.054761)">
						<path id="Path-59-Copy" class="st1" d="M6,6.9l7.5-2.2l12.8,5.7c0,0,0,0.1,0,0.1c0,0,0,0,0,0l-15.4,6.8l-9-4.5
							c0,0,0-0.1,0-0.1c0,0,0,0,0,0l8.9-3.3c0,0,0,0,0-0.1c0,0,0,0,0,0L6,7.1C5.9,7,5.9,7,6,6.9C6,6.9,6,6.9,6,6.9z"/>
						<polyline id="Path-68" class="st2" points="1.9,12.7 2.1,20.6 10.9,25.2 26.3,17.7 26.4,10.3 						"/>
						<polygon id="Path-70" class="st3" points="5.6,7 6.3,7 6.3,11.3 5.6,11.3 						"/>
						
							<linearGradient id="Path-4_1_" gradientUnits="userSpaceOnUse" x1="241.9664" y1="225.1516" x2="241.9664" y2="223.8444" gradientTransform="matrix(0.5 0 0 -5.9438 -110.1566 1347.4624)">
							<stop  offset="0" style="stop-color:#FFFFFF"/>
							<stop  offset="1" style="stop-color:#FFFFFF"/>
						</linearGradient>
						<polygon id="Path-4" class="st4" points="10.5,9.2 11.2,9.2 11.2,17.2 10.5,17.2 						"/>
					</g>
				</g>
				<polygon id="Path-61" class="st5" points="6.7,11.3 6.7,6.9 11.9,9.1 				"/>
			</g>
		</g>
	</g>
</g>
</svg>
