<svg xmlns="http://www.w3.org/2000/svg" viewBox="0 0 26.2 26.2"><defs><style>.cls-1{fill:#fff;}</style></defs><title>narrow</title><g id="图层_2" data-name="图层 2"><g id="图层_1-2" data-name="图层 1"><path class="cls-1" d="M14.75,12.09a.61.61,0,0,1-.44-.18.54.54,0,0,1-.2-.43V4.16a.61.61,0,1,1,1.22,0l0,5.83L21,4.27l.87.87-5.72,5.72H22a.61.61,0,0,1,0,1.23Z"/><path class="cls-1" d="M11.47,22.65a.61.61,0,0,1-.61-.61l0-5.83L5.17,21.93l-.87-.87L10,15.34H4.16a.61.61,0,1,1,0-1.22h7.29a.61.61,0,0,1,.44.18.54.54,0,0,1,.2.43V22A.61.61,0,0,1,11.47,22.65Z"/><path class="cls-1" d="M21.73,26.2V24.95h1.35A1.87,1.87,0,0,0,25,23.08v-20a1.87,1.87,0,0,0-1.87-1.87H6.54V0H23.08A3.12,3.12,0,0,1,26.2,3.12v20a3.12,3.12,0,0,1-3.12,3.12Z"/><path class="cls-1" d="M3.12,26.2A3.12,3.12,0,0,1,0,23.08v-20A3.12,3.12,0,0,1,3.12,0H4.47V1.25H3.12A1.87,1.87,0,0,0,1.25,3.12v20a1.87,1.87,0,0,0,1.87,1.87H19.65V26.2Z"/></g></g></svg>