<?xml version="1.0" encoding="UTF-8"?>
<svg width="30px" height="30px" viewBox="0 0 30 30" version="1.1" xmlns="http://www.w3.org/2000/svg" xmlns:xlink="http://www.w3.org/1999/xlink">
    <!-- Generator: Sketch 52.2 (67145) - http://www.bohemiancoding.com/sketch -->
    <title>切片</title>
    <desc>Created with Sketch.</desc>
    <defs>
        <linearGradient x1="98.9003793%" y1="51.0996207%" x2="-67.5790456%" y2="50%" id="linearGradient-1">
            <stop stop-color="#FFFFFF" stop-opacity="0" offset="0%"></stop>
            <stop stop-color="#FFFFFF" stop-opacity="0.799960371" offset="100%"></stop>
        </linearGradient>
        <path d="M10.9999798,14.1504066 C13.2091299,14.0673393 16.7888709,14.0993817 18.9999433,14.2222191 L20.0000567,14.2777809 C22.2091644,14.4005091 23.7681676,16.2793928 23.482651,18.4708307 L23.2578489,20.1962637 C23.1156839,21.2874285 22.098074,22.1648074 21.0058336,22.1561106 L3.99460291,22.0206615 C2.89301414,22.0118903 1.76666036,21.1366679 1.47974452,20.0692323 L1.03807775,18.4260645 C0.464763241,16.2931173 1.79445134,14.4965479 4.00002024,14.4136153 L10.9999798,14.1504066 Z" id="path-2"></path>
        <filter x="-123.8%" y="-248.4%" width="347.7%" height="795.5%" filterUnits="objectBoundingBox" id="filter-4">
            <feOffset dx="0" dy="8" in="SourceAlpha" result="shadowOffsetOuter1"></feOffset>
            <feGaussianBlur stdDeviation="8" in="shadowOffsetOuter1" result="shadowBlurOuter1"></feGaussianBlur>
            <feColorMatrix values="0 0 0 0 0   0 0 0 0 0   0 0 0 0 0  0 0 0 0.1 0" type="matrix" in="shadowBlurOuter1"></feColorMatrix>
        </filter>
    </defs>
    <g id="主页toast-tip" stroke="none" stroke-width="1" fill="none" fill-rule="evenodd">
        <g id="分组-3" transform="translate(3.000000, 4.000000)">
            <g id="biaochi" transform="translate(12.000000, 11.500000) rotate(-180.000000) translate(-12.000000, -11.500000) translate(1.000000, 0.000000)" fill="#FFFFFF">
                <path d="M0,6.64453125 L0,19.734375 C0,21.5390625 1.4609375,23 3.265625,23 L8.25,23 L8.25,12.6445313 C8.25,12.2885665 7.96143353,12 7.60546875,12 L7.60546875,12 C7.24950397,12 6.9609375,12.2885665 6.9609375,12.6445313 L6.9609375,21.625 L3.265625,21.625 C2.1484375,21.625 1.2890625,20.765625 1.2890625,19.6484375 L1.2890625,17.7578125 L1.2890625,16.46875 L1.2890625,13.4609375 L1.2890625,12.171875 L1.2890625,9.1640625 L1.2890625,7.875 C1.2890625,6.59722222 1.2890625,8.66767178 1.2890625,8.02878289 C1.2890625,7.56736568 1.2890625,7.10594846 1.2890625,6.64453125 L1.2890625,6.64453125 C1.2890625,6.28856647 1.00049603,6 0.64453125,6 L0.64453125,6 C0.28856647,6 8.28759532e-15,6.28856647 1.11022302e-16,6.64453125 Z M3.85036914,2.2589584 L6.875,2.2890625 L8.25,2.2890625 L11.2578125,2.2890625 L12.6328125,2.2890625 L15.640625,2.2890625 L17.015625,2.2890625 L18.734375,2.2890625 C19.8515625,2.2890625 20.7109375,3.1484375 20.7109375,4.265625 L20.7109375,7.875 L10.6445312,7.875 C10.2885665,7.875 10,8.16356647 10,8.51953125 L10,8.51953125 C10,8.87549603 10.2885665,9.1640625 10.6445312,9.1640625 L22,9.1640625 L22,4.265625 C22,2.4609375 20.5390625,1 18.734375,1 L3.85036868,0.850879654 C3.46542123,0.84702293 3.15023317,1.155958 3.14637644,1.54090546 C3.14635312,1.54323312 3.14634146,1.54556089 3.14634146,1.54788867 L3.14634146,1.54788867 C3.14634146,1.93786004 3.46041709,2.25507721 3.85036914,2.2589584 Z" id="形状"></path>
            </g>
            <path d="M14.3388357,0.719948722 L14.3388357,24.8590327 L14.3388357,0.719948722 Z" id="Path" stroke="#FFFFFF" stroke-width="1.5" transform="translate(14.838836, 12.789491) rotate(-47.000000) translate(-14.838836, -12.789491) "></path>
            <mask id="mask-3" fill="white">
                <use xlink:href="#path-2"></use>
            </mask>
            <g id="Mask-Copy-3" opacity="0.15">
                <use fill="black" fill-opacity="1" filter="url(#filter-4)" xlink:href="#path-2"></use>
                <use fill="url(#linearGradient-1)" fill-rule="evenodd" xlink:href="#path-2"></use>
            </g>
        </g>
    </g>
</svg>