<svg xmlns="http://www.w3.org/2000/svg" viewBox="0 0 44 58"><defs><style>.cls-1{fill:#ffc200;}.cls-2{fill:#fff;}</style></defs><title>资源 6</title><g id="图层_2" data-name="图层 2"><g id="图层_1-2" data-name="图层 1"><polygon class="cls-1" points="0 0 0 44.97 22 58 44 44.97 44 0 0 0"/><ellipse class="cls-2" cx="22.26" cy="22.98" rx="3.2" ry="3.28"/><path class="cls-2" d="M31.39,14.22H27.63a.4.4,0,0,1-.39-.4v-.33a2,2,0,0,0-1.92-2h-6.1a2,2,0,0,0-1.94,2v.32a.4.4,0,0,1-.39.4H13.12A3.23,3.23,0,0,0,10,17.49v11a3.23,3.23,0,0,0,3.17,3.27H31.39a3.23,3.23,0,0,0,3.17-3.27v-11A3.23,3.23,0,0,0,31.39,14.22Zm-9.13,14A5.27,5.27,0,1,1,27.4,23,5.21,5.21,0,0,1,22.26,28.25Z"/></g></g></svg>