<svg xmlns="http://www.w3.org/2000/svg" viewBox="0 0 26.19 26.2"><defs><style>.cls-1{fill:#fff;}</style></defs><title>QR</title><g id="图层_2" data-name="图层 2"><g id="图层_1-2" data-name="图层 1"><rect class="cls-1" x="11.19" y="24.65" width="3.83" height="1.55"/><path class="cls-1" d="M0,24.4V17.05H2v-2H0V13.91H3.33v3.18h7.51v1.69l-1.61.09v4h1.64v1.41H9.22V26.2H1.8A1.8,1.8,0,0,1,0,24.4Zm7.8.48V18.47H1.38v5.91a.5.5,0,0,0,.5.5Z"/><path class="cls-1" d="M19.09,10.83V9.2H17v-2L15.37,7.1V5.81h1.55V3.46h-3.6L13.26,2H17V0h7.41a1.8,1.8,0,0,1,1.8,1.8V9.16H20.47l-.1,1.67Zm5.8-3v-6a.5.5,0,0,0-.5-.5h-6V7.85Z"/><path class="cls-1" d="M3.71,10.84V9.23H0V1.8A1.8,1.8,0,0,1,1.82,0H9.16V5.7l1.75.18V7L9.2,7.22v2H5.48l-.07,1.67Zm4.13-3V1.3h-6a.5.5,0,0,0-.5.5V7.87Z"/><path class="cls-1" d="M20.77,26.19V22.83h1.67l.12,1.71h3.63a1.65,1.65,0,0,1-1.65,1.65Z"/><polygon class="cls-1" points="16.97 22.52 16.95 19.15 18.37 19.15 18.44 21.1 20.44 21.1 20.44 22.52 16.97 22.52"/><polygon class="cls-1" points="20.69 20.39 20.76 19.12 22.82 19.12 22.82 15.48 26.18 15.48 26.18 16.7 24.2 16.7 24.2 20.39 20.69 20.39"/><polygon class="cls-1" points="13.29 9.53 14.68 9.53 14.68 11.15 16.62 11.23 16.62 13.03 14.67 12.95 14.67 15.02 13.28 15.12 13.29 9.53"/><path class="cls-1" d="M9.52,15V12.9l-2,0-.1-1.61h3.4V15.1Z"/><polygon class="cls-1" points="20.82 15.13 20.72 13.51 22.45 13.36 22.51 15.13 20.82 15.13"/><polygon class="cls-1" points="13.26 22.55 13.26 17.06 16.64 17.06 16.64 18.53 14.61 18.53 14.61 22.55 13.26 22.55"/><rect class="cls-1" x="3.46" y="20.5" width="2.2" height="2.28"/><rect class="cls-1" x="20.48" y="3.43" width="2.27" height="2.29"/><rect class="cls-1" x="3.43" y="3.47" width="2.23" height="2.24"/></g></g></svg>