<?xml version="1.0" encoding="utf-8"?>
<!-- Generator: Adobe Illustrator 22.0.0, SVG Export Plug-In . SVG Version: 6.00 Build 0)  -->
<svg version="1.1" id="图层_1" xmlns="http://www.w3.org/2000/svg" xmlns:xlink="http://www.w3.org/1999/xlink" x="0px" y="0px"
	 viewBox="0 0 40 40" style="enable-background:new 0 0 40 40;" xml:space="preserve">
<style type="text/css">
	.st0{opacity:0.5;}
	.st1{fill:#FFFFFF;}
</style>
<g class="st0">
	<g>
		<path class="st1" d="M15.5,20.8c-3.8-2.2-5.5-7-3.8-11.2S18,3.3,22.5,4.3c4.3,1.3,7.2,5.5,6.5,10c-0.5,4.5-4.5,7.8-9,7.8
			c-7.3,0-13,5.7-13,13c0,0.5-0.5,1-1,1s-1-0.5-1-1C5,28.5,9.2,22.8,15.5,20.8L15.5,20.8z M20,20c3.8,0,7-3.2,7-7s-3.2-7-7-7
			s-7,3.3-7,7S16.3,20,20,20L20,20z M35,35c0,0.5-0.5,1-1,1s-1-0.5-1-1c0-3.8-1.5-7.2-4.3-9.5c-0.5-0.3-0.5-1,0-1.5
			c0.3-0.5,1-0.5,1.5,0C33.2,26.8,35,30.8,35,35L35,35z"/>
	</g>
</g>
</svg>
