<?xml version="1.0" encoding="UTF-8"?>
<svg width="30px" height="30px" viewBox="0 0 30 30" version="1.1" xmlns="http://www.w3.org/2000/svg" xmlns:xlink="http://www.w3.org/1999/xlink">
    <!-- Generator: Sketch 52.2 (67145) - http://www.bohemiancoding.com/sketch -->
    <title>切片</title>
    <desc>Created with Sketch.</desc>
    <defs>
        <linearGradient x1="50%" y1="2.19924133%" x2="50%" y2="100%" id="linearGradient-1">
            <stop stop-color="#FFFFFF" stop-opacity="0" offset="0%"></stop>
            <stop stop-color="#FFFFFF" stop-opacity="0.799960371" offset="100%"></stop>
        </linearGradient>
        <path d="M13.9156911,19 C15.8939742,19 19.0947003,19 21.0738465,19 L22.4121003,19 C24.3871573,19 25.990472,20.6095351 25.9931916,22.5859962 L25.9953769,24.1741926 C25.9968951,25.2775469 25.0957634,26.1648074 24.003523,26.1561106 L6.99229234,26.0206615 C5.89070357,26.0118903 4.99768943,25.1176196 4.99768943,23.997491 L4.99768943,22.5844705 C4.99768943,20.6048221 6.60625581,19 8.57968774,19 L13.9156911,19 Z" id="path-2"></path>
        <filter x="-133.3%" y="-279.5%" width="366.7%" height="882.5%" filterUnits="objectBoundingBox" id="filter-4">
            <feOffset dx="0" dy="8" in="SourceAlpha" result="shadowOffsetOuter1"></feOffset>
            <feGaussianBlur stdDeviation="8" in="shadowOffsetOuter1" result="shadowBlurOuter1"></feGaussianBlur>
            <feColorMatrix values="0 0 0 0 0   0 0 0 0 0   0 0 0 0 0  0 0 0 0.1 0" type="matrix" in="shadowBlurOuter1"></feColorMatrix>
        </filter>
    </defs>
    <g id="Page-1" stroke="none" stroke-width="1" fill="none" fill-rule="evenodd">
        <g id="biaochi-copy" transform="translate(14.997689, 15.000000) rotate(-180.000000) translate(-14.997689, -15.000000) translate(3.997689, 4.000000)" fill="#FFFFFF">
            <path d="M9.5625,7.51953125 L9.5625,7.51953125 C9.5625,7.87549603 9.85106647,8.1640625 10.2070313,8.1640625 L22,8.1640625 L22,3.265625 C22,1.4609375 20.5390625,-5.68434189e-14 18.734375,-5.68434189e-14 L2.234375,-5.68434189e-14 C1.03125,-5.68434189e-14 0,1.03125 0,2.234375 L0,18.734375 C0,20.5390625 1.4609375,22 3.265625,22 L8.25,22 L8.25,11.6445312 C8.25,11.2885665 7.96143353,11 7.60546875,11 L7.60546875,11 C7.24950397,11 6.9609375,11.2885665 6.9609375,11.6445312 L6.9609375,20.625 L3.265625,20.625 C2.1484375,20.625 1.2890625,19.765625 1.2890625,18.6484375 L1.2890625,16.7578125 L1.2890625,15.46875 L1.2890625,12.4609375 L1.2890625,11.171875 L1.2890625,8.1640625 L1.2890625,6.875 L1.2890625,2.234375 C1.2890625,1.71875 1.71875,1.2890625 2.234375,1.2890625 L6.875,1.2890625 L6.875,4.125 C6.875,4.46875 7.1328125,4.8125 7.5625,4.8125 C7.9921875,4.8125 8.25,4.5546875 8.25,4.125 L8.25,1.2890625 L11.2578125,1.2890625 L11.2578125,3.265625 C11.2578125,3.609375 11.515625,3.953125 11.9453125,3.953125 C12.375,3.953125 12.6328125,3.6953125 12.6328125,3.265625 L12.6328125,1.2890625 L15.640625,1.2890625 L15.640625,4.125 C15.640625,4.46875 15.8984375,4.8125 16.328125,4.8125 C16.7578125,4.8125 17.015625,4.5546875 17.015625,4.125 L17.015625,1.2890625 L18.734375,1.2890625 C19.8515625,1.2890625 20.7109375,2.1484375 20.7109375,3.265625 L20.7109375,6.875 L10.2070313,6.875 C9.85106647,6.875 9.5625,7.16356647 9.5625,7.51953125 Z" id="路径"></path>
        </g>
        <mask id="mask-3" fill="white">
            <use xlink:href="#path-2"></use>
        </mask>
        <g id="Mask-Copy-6" opacity="0.2">
            <use fill="black" fill-opacity="1" filter="url(#filter-4)" xlink:href="#path-2"></use>
            <use fill="url(#linearGradient-1)" fill-rule="evenodd" xlink:href="#path-2"></use>
        </g>
    </g>
</svg>