
<svg width="25px" height="23px" viewBox="0 0 25 23" version="1.1" xmlns="http://www.w3.org/2000/svg" xmlns:xlink="http://www.w3.org/1999/xlink">
    <g id="Page-1" stroke="none" stroke-width="1" fill="none" fill-rule="evenodd">
        <g id="下拉多" transform="translate(-1162.000000, -1000.000000)" fill="#FFFFFF" fill-rule="nonzero">
            <g id="Group-16" transform="translate(574.000000, 975.000000)">
                <g id="Group-15">
                    <g id="设置" transform="translate(588.000000, 25.000000)">
                        <path d="M16.3043478,23 C15.8862876,23 15.3846154,22.8357143 15.1337793,22.5071429 C14.715719,22.0964286 13.5451505,21.0285714 12.458194,21.0285714 C11.4548495,21.0285714 10.2006689,22.0964286 9.86622072,22.5071429 C9.6153846,22.8357143 9.11371236,23 8.69565218,23 C8.44481606,23 8.27759197,23 8.11036788,22.9178571 L5.01672241,21.275 C4.43143813,20.8642857 4.26421405,20.125 4.51505017,19.55 C4.51505017,19.55 4.76588629,18.8928571 4.76588629,18.3178571 C4.76588629,16.5928571 3.3444816,15.1142857 1.50501672,15.1142857 L1.33779263,15.1142857 C0.836120393,15.1142857 0.418060209,14.7035714 0.25083612,13.9642857 C0.25083612,13.8821429 0,12.5678571 0,11.5 C0,10.4321429 0.25083612,9.20000001 0.25083612,9.11785714 C0.418060209,8.46071427 0.836120393,7.96785713 1.33779263,7.96785715 L1.42140469,7.96785715 C3.26086956,7.96785715 4.68227425,6.57142857 4.68227425,4.76428573 C4.68227425,4.18928574 4.43143813,3.53214287 4.43143813,3.53214287 C4.18060201,3.03928573 4.3478261,2.30000001 4.93311037,1.88928572 L8.19397994,0.164285722 C8.44481606,0 8.61204015,0 8.86287624,0 C9.28093645,0 9.78260869,0.164285722 10.0334448,0.492857143 C10.451505,0.903571436 11.6220736,1.88928572 12.625418,1.88928572 C13.6287625,1.88928572 14.7993311,0.903571436 15.2173913,0.492857143 C15.4682274,0.246428571 15.8862876,0 16.3043478,0 C16.5551839,0 16.722408,0 16.8896321,0.0821428731 L20.0668896,1.80714287 C20.6521739,2.21785717 20.819398,2.95714288 20.5685619,3.53214287 C20.5685619,3.53214287 20.3177257,4.18928574 20.3177257,4.76428573 C20.3177257,6.48928573 21.7391304,7.96785715 23.5785953,7.96785715 L23.6622073,7.96785715 C24.1638796,7.96785715 24.5819398,8.37857145 24.7491639,9.11785714 C24.7491639,9.19999999 25,10.5142857 25,11.5 C25,12.5678571 24.7491639,13.8 24.7491639,13.8821429 C24.5819398,14.5392857 24.1638796,15.0321429 23.6622073,15.0321428 L23.5785953,15.0321428 C21.7391304,15.0321428 20.3177257,16.4285714 20.3177257,18.2357143 C20.3177257,18.8107143 20.5685619,19.4678571 20.5685619,19.4678571 C20.819398,20.0428571 20.6521739,20.7821428 20.0668896,21.1928571 L16.8896321,22.9178571 C16.722408,23 16.4715719,23 16.3043478,23 Z M16.2207358,21.5214286 L16.3043478,21.5214286 L19.3143813,19.9607143 C19.2307692,19.7964285 18.8963211,18.975 18.8963211,18.1535714 C18.8963211,15.6892857 20.90301,13.7178571 23.4113712,13.5535714 C23.4113712,13.3892857 23.6622073,12.2392857 23.6622073,11.5 C23.6622073,10.6785714 23.4949833,9.61071428 23.4113712,9.44642858 C20.90301,9.28214286 18.8963211,7.31071429 18.8963211,4.84642858 C18.8963211,4.02500001 19.2307692,3.20357143 19.3143813,3.03928573 L16.3879599,1.47857143 L16.3043478,1.47857143 C16.2207358,1.56071428 15.8026756,1.97142857 15.2173913,2.38214286 C14.2140468,3.03928573 13.3779264,3.2857143 12.625418,3.2857143 C11.8729097,3.2857143 10.9531772,2.95714288 10.0334448,2.30000001 C9.44816054,1.88928572 9.03010033,1.47857145 8.9464883,1.39642858 L8.86287624,1.39642858 L5.8528428,3.03928573 C5.8528428,3.20357145 6.18729095,4.02500001 6.18729098,4.84642858 C6.18729098,7.31071429 4.18060201,9.28214286 1.67224081,9.44642858 C1.67224081,9.6107143 1.50501672,10.6785714 1.50501672,11.5 C1.50501672,12.3214286 1.67224081,13.3892857 1.75585284,13.5535714 C4.26421405,13.7178571 6.27090301,15.6892857 6.27090301,18.1535714 C6.27090301,18.975 5.93645486,19.7964286 5.8528428,19.9607143 L8.69565218,21.5214286 L8.77926421,21.5214286 C8.86287624,21.4392857 9.28093645,21.0285714 9.86622072,20.6178571 C10.7859532,19.9607143 11.6220736,19.6321429 12.458194,19.6321429 C13.2943144,19.6321429 14.1304348,19.9607143 15.0501672,20.6178571 C15.7190635,21.0285714 16.1371237,21.5214286 16.2207358,21.5214286 Z" id="Shape"></path>
                        <path d="M12.5,16 C9.9903846,16 8,13.9705882 8,11.5 C8,9.02941177 9.99038463,7 12.5,7 C15.0096154,7 17,9.02941177 17,11.5 C17,13.9705882 15.0096154,16 12.5,16 Z M12.5,8.50000001 C10.8557692,8.50000001 9.55769231,9.82352942 9.55769231,11.5 C9.55769231,13.1764706 10.8557692,14.5 12.5,14.5 C14.1442308,14.5 15.4423077,13.1764706 15.4423077,11.5 C15.4423077,9.82352942 14.1442308,8.50000001 12.5,8.50000001 Z" id="Shape"></path>
                    </g>
                </g>
            </g>
        </g>
    </g>
</svg>