<svg xmlns="http://www.w3.org/2000/svg" viewBox="0 0 25.2 28.02"><defs><style>.cls-1{fill:#fff;}</style></defs><title>share</title><g id="图层_2" data-name="图层 2"><g id="图层_1-2" data-name="图层 1"><path class="cls-1" d="M4.24,18.14a4.13,4.13,0,1,1,0-8.26,4.13,4.13,0,1,1,0,8.26Zm0-7.05a2.92,2.92,0,1,0,0,5.84,2.92,2.92,0,1,0,0-5.84Z"/><path class="cls-1" d="M21,8.26a4.19,4.19,0,0,1-4.24-4.13,4.24,4.24,0,0,1,8.48,0A4.19,4.19,0,0,1,21,8.26Zm0-7.05a3,3,0,0,0-3,2.92,3,3,0,0,0,6.06,0A3,3,0,0,0,21,1.21Z"/><path class="cls-1" d="M21,28a4.13,4.13,0,1,1,4.24-4.13A4.19,4.19,0,0,1,21,28ZM21,21a2.92,2.92,0,1,0,3,2.92A3,3,0,0,0,21,21Z"/><rect class="cls-1" x="14.28" y="16.31" width="1.21" height="7.09" transform="translate(-9.91 20.68) rotate(-55.04)"/><polygon class="cls-1" points="7.34 15.32 7.35 12.96 17.45 5.81 18.14 6.8 8.46 13.57 8.49 14.75 11.01 16.4 10.31 17.4 7.34 15.32"/></g></g></svg>