<?xml version="1.0" encoding="UTF-8"?>
<svg width="17px" height="16px" viewBox="0 0 17 16" version="1.1" xmlns="http://www.w3.org/2000/svg" xmlns:xlink="http://www.w3.org/1999/xlink">
    <!-- Generator: Sketch 49.1 (51147) - http://www.bohemiancoding.com/sketch -->
    <title>Group 4</title>
    <desc>Created with Sketch.</desc>
    <defs>
        <linearGradient x1="4.44191234%" y1="95.8091142%" x2="58.1807291%" y2="42.5210803%" id="linearGradient-1">
            <stop stop-color="#FFFFFF" stop-opacity="0" offset="0%"></stop>
            <stop stop-color="#FFFFFF" offset="100%"></stop>
        </linearGradient>
    </defs>
    <g id="主页toast-tip" stroke="none" stroke-width="1" fill="none" fill-rule="evenodd">
        <g id="toast样式-copy-3" transform="translate(-338.000000, -45.000000)" fill-rule="nonzero">
            <g id="Group-4" transform="translate(338.000000, 45.000000)">
                <g id="Group-21" fill="#FFFFFF">
                    <path d="M15.1853486,11.8305553 C15.1853486,11.4163418 15.521135,11.0805553 15.9353486,11.0805553 C16.3495621,11.0805553 16.6853486,11.4163418 16.6853486,11.8305553 L16.6853486,15.0033573 C16.6853486,15.4175709 16.3495621,15.7533573 15.9353486,15.7533573 L0.99534899,15.7533573 C0.581135428,15.7533573 0.24534899,15.4175709 0.24534899,15.0033573 L0.24534899,1.00335733 C0.24534899,0.589143768 0.581135428,0.25335733 0.99534899,0.25335733 L4.96519737,0.25335733 C5.37941094,0.25335733 5.71519737,0.589143768 5.71519737,1.00335733 C5.71519737,1.41757089 5.37941094,1.75335733 4.96519737,1.75335733 L1.74534899,1.75335733 L1.74534899,14.2533573 L15.1853486,14.2533573 L15.1853486,11.8305553 Z" id="Path-5"></path>
                    <path d="M15.1927204,1.7602299 L9.55092465,1.75949689 C9.13671109,1.75944307 8.80096829,1.42361301 8.8010221,1.00939945 C8.80107592,0.595185891 9.13690598,0.259443083 9.55111954,0.2594969 L15.9428179,0.260327346 C16.3569934,0.260381158 16.6927204,0.596151831 16.6927204,1.01032734 L16.6927204,7.38532734 C16.6927204,7.7995409 16.356934,8.13532734 15.9427204,8.13532734 C15.5285069,8.13532734 15.1927204,7.7995409 15.1927204,7.38532734 L15.1927204,1.7602299 Z" id="Path-16"></path>
                </g>
                <path d="M15.4030662,0.482431274 C15.6945529,0.188138296 16.1694212,0.185863389 16.4637142,0.477350126 C16.7580071,0.768836864 16.7602821,1.24370515 16.4687953,1.53799813 L6.31693867,11.2868232 C6.02545193,11.5811162 5.55058365,11.5833911 5.25629067,11.2919043 C4.96199769,11.0004176 4.95972278,10.5255493 5.25120952,10.2312563 L15.4030662,0.482431274 Z" id="Path-24" fill="url(#linearGradient-1)"></path>
            </g>
        </g>
    </g>
</svg>