
<svg width="32px" height="32px" viewBox="0 0 32 32" version="1.1" xmlns="http://www.w3.org/2000/svg" xmlns:xlink="http://www.w3.org/1999/xlink">
    <g id="Page-1" stroke="none" stroke-width="1" fill="none" fill-rule="evenodd">
        <g id="下拉多" transform="translate(-1279.000000, -995.000000)">
            <g id="Group-16" transform="translate(574.000000, 975.000000)">
                <g id="Group-15">
                    <g id="微信-copy" transform="translate(705.000000, 20.000000)">
                        <circle id="Oval-4" fill="#4C4C4C" opacity="0.527173913" cx="16" cy="16" r="16"></circle>
                        <g id="微博-2" transform="translate(7.000000, 8.000000)" fill="#FFFFFF" fill-rule="nonzero">
                            <path d="M14.0723224,7.78798041 C13.333233,7.6367375 13.6922193,7.21800716 13.6922193,7.21800716 C13.6922193,7.21800716 14.415311,5.96181612 13.5488807,5.04873395 C12.4751214,3.91753704 9.86623186,5.1924772 9.86623186,5.1924772 C8.86990098,5.51808693 9.13418143,5.04373417 9.27496035,4.23627207 C9.27496035,3.28444173 8.9658866,1.67389231 6.31156387,2.62509767 C3.65980074,3.5813028 1.3830215,6.93239554 1.3830215,6.93239554 C-0.200101568,9.15916606 0.00914712927,10.8803353 0.00914712927,10.8803353 C0.40460795,14.680157 4.23507465,15.723233 7.21382884,15.9694715 C10.3480798,16.2288343 14.5784866,14.8307749 15.8614946,11.9590347 C17.1445026,9.08229469 14.8139714,7.94359811 14.0723224,7.78798041 Z M7.44675398,14.8976468 C4.33553962,15.0507646 1.8200761,13.4064668 1.8200761,11.2178195 C1.8200761,9.02729725 4.33553962,7.27050469 7.44675398,7.11926178 C10.560528,6.96801887 13.0811107,8.31983045 13.0811107,10.5066028 C13.0811107,12.6952501 10.560528,14.7489038 7.44675398,14.8976468 Z M6.82604688,8.56231908 C3.6962753,8.94855096 4.05782118,12.038406 4.05782118,12.038406 C4.05782118,12.038406 4.02582598,13.0164851 4.89673563,13.5145867 C6.72814154,14.5595377 8.61329939,13.9270673 9.56611679,12.6302532 C10.5195741,11.3334391 9.9602978,8.17921207 6.82604688,8.56231908 Z M6.03704497,12.8989906 C5.4528124,12.9708622 4.98184289,12.6165038 4.98184289,12.100903 C4.98184289,11.5878021 5.40034027,11.0509523 5.98457281,10.9865803 C6.65583234,10.9190835 7.09224702,11.3271893 7.09224702,11.8421652 C7.09224705,12.3546411 6.61871791,12.8289939 6.03704497,12.8989906 Z M7.88188888,11.2421933 C7.68415848,11.397811 7.44035495,11.376562 7.33605057,11.1896958 C7.22726684,11.0072044 7.26758081,10.7153431 7.46787085,10.5616003 C7.69951619,10.3797338 7.94076007,10.4316064 8.04570436,10.6147228 C8.15000874,10.801589 8.07513995,11.0815759 7.88188888,11.2421933 Z M15.5959343,6.45054317 C15.8480566,6.45054317 16.0624245,6.25367741 16.0982592,5.99743944 C16.1027385,5.97806534 16.1052981,5.96181612 16.1052981,5.93994213 C16.4873209,2.31823707 13.2897195,2.94133285 13.2897195,2.94133285 C13.005602,2.94133285 12.7777961,3.18382146 12.7777961,3.48568231 C12.7777961,3.78316836 13.005602,4.02503201 13.2897195,4.02503201 C15.5863358,3.49068208 15.0795316,5.91181847 15.0795316,5.91181847 C15.0801715,6.21055445 15.3118169,6.45054317 15.5959343,6.45054317 Z M15.2235101,0.128964822 C14.1177556,-0.144147357 12.9806458,0.0914665747 12.6619735,0.155838559 C12.6376571,0.158338447 12.6146205,0.182712295 12.591584,0.187712071 C12.5807056,0.190211958 12.5736667,0.202086391 12.5736667,0.202086391 C12.2594737,0.295832 12.0297481,0.602067612 12.0297481,0.964550608 C12.0297481,1.3951554 12.3618584,1.75013875 12.7758764,1.75013875 C12.7758764,1.75013875 13.1783762,1.69326643 13.4516153,1.58077171 C13.7222948,1.46515214 16.012512,1.49515072 17.1496218,3.50818127 C17.7703289,4.97748733 17.4228609,5.96056619 17.3787075,6.11868376 C17.3787075,6.11868376 17.2308896,6.50054086 17.2308896,6.87677319 C17.2308896,7.31050283 17.5629999,7.58299005 17.9738184,7.58299005 C18.317447,7.58299005 18.6066837,7.53361736 18.6905112,6.92052113 L18.6949905,6.92052113 C19.9172076,2.63072243 17.202094,0.615191989 15.2235101,0.128964822 Z" id="Shape"></path>
                        </g>
                    </g>
                </g>
            </g>
        </g>
    </g>
</svg>