<?xml version="1.0" encoding="UTF-8"?>
<svg width="28px" height="28px" viewBox="0 0 28 28" version="1.1" xmlns="http://www.w3.org/2000/svg" xmlns:xlink="http://www.w3.org/1999/xlink">
    <!-- Generator: Sketch 49.3 (51167) - http://www.bohemiancoding.com/sketch -->
    <title>暂停</title>
    <desc>Created with Sketch.</desc>
    <defs></defs>
    <g id="Page-1" stroke="none" stroke-width="1" fill="none" fill-rule="evenodd">
        <g id="Group-677" transform="translate(9.000000, 7.000000)" fill="#FFFFFF" fill-rule="nonzero">
            <path d="M0,0.471428346 C0,0.21106566 0.223857625,0 0.5,0 C0.776142375,0 1,0.21106566 1,0.471428346 L1,13.5285717 C1,13.7889343 0.776142375,14 0.5,14 C0.223857625,14 0,13.7889343 0,13.5285717 L0,0.471428346 Z" id="Path-29"></path>
            <path d="M9,0.471428346 C9,0.21106566 9.22385763,0 9.5,0 C9.77614237,0 10,0.21106566 10,0.471428346 L10,13.5285717 C10,13.7889343 9.77614237,14 9.5,14 C9.22385763,14 9,13.7889343 9,13.5285717 L9,0.471428346 Z" id="Path-29-Copy"></path>
        </g>
    </g>
</svg>