<?xml version="1.0" encoding="utf-8"?>
<!-- Generator: Adobe Illustrator 22.0.0, SVG Export Plug-In . SVG Version: 6.00 Build 0)  -->
<svg version="1.1" id="图层_1" xmlns="http://www.w3.org/2000/svg" xmlns:xlink="http://www.w3.org/1999/xlink" x="0px" y="0px"
	 viewBox="0 0 30 30" style="enable-background:new 0 0 30 30;" xml:space="preserve">
<style type="text/css">
	.st0{fill:none;stroke:#FFFFFF;stroke-width:1.5;}
	.st1{opacity:0.5;fill:none;stroke:#FFFFFF;stroke-miterlimit:10;enable-background:new    ;}
</style>
<title>切片</title>
<desc>Created with Sketch.</desc>
<g>
	<g>
		<g id="Page-1_9_">
			<path id="Fill-1-Copy_12_" class="st0" d="M22.2,9.6c-0.7,0-1.9,0.1-3.7,0.2c-2.3,0.2-4.6,0.2-6.9,0C9.8,9.7,8.6,9.6,7.9,9.6
				c-1.5,0-2.9,0.9-3.2,2.5c-0.5,2.2-0.1,5.5,1,7c1.2,1.6,3.2,1.6,5.7,0.8c0.7-0.2,1.3-0.4,1.9-0.7c1.2-0.4,2.4-0.4,3.5,0
				c0.7,0.2,1.3,0.4,1.9,0.7c2.5,0.9,4.5,0.8,5.7-0.8c1.1-1.5,1.4-4.7,1-7C25.1,10.4,23.8,9.6,22.2,9.6z M22.2,9.6L22.2,9.6
				L22.2,9.6L22.2,9.6z"/>
		</g>
		<circle class="st1" cx="9.8" cy="14.6" r="2.1"/>
		<circle class="st1" cx="19.6" cy="14.6" r="2.1"/>
	</g>
</g>
</svg>
