<?xml version="1.0" encoding="utf-8"?>
<!-- Generator: Adobe Illustrator 22.0.0, SVG Export Plug-In . SVG Version: 6.00 Build 0)  -->
<svg version="1.1" id="图层_1" xmlns="http://www.w3.org/2000/svg" xmlns:xlink="http://www.w3.org/1999/xlink" x="0px" y="0px"
	 viewBox="0 0 40 40" style="enable-background:new 0 0 40 40;" xml:space="preserve">
<style type="text/css">
	.st0{fill:#FFFFFF;}
</style>
<g>
	<path class="st0" d="M34.1,10.5L34.1,10.5l-0.1,0c-0.1,0-10.2,1.3-14,1.3c-3.8,0-13.9-1.3-14-1.3l-0.1,0H5.9
		c-2.7,0-4.9,2.2-4.9,4.9v9.2c0,2.7,2.2,4.9,4.9,4.9h5.6c1.5,0,3-0.8,3.7-2.2c0.8-1.4,2.3-3.1,4.8-3.1c2.6,0,4.1,1.7,4.9,3.1
		c0.8,1.3,2.2,2.2,3.7,2.2h5.6c2.7,0,4.9-2.2,4.9-4.9v-9.2C39,12.7,36.8,10.5,34.1,10.5z M37.3,24.6L37.3,24.6
		c0,1.7-1.4,3.2-3.2,3.2h-5.6c-0.9,0-1.8-0.5-2.2-1.3c-0.6-1.1-1.4-1.9-2.2-2.6c-1.2-0.9-2.6-1.4-4.1-1.4c-1.5,0-2.9,0.5-4.1,1.4
		c-0.9,0.7-1.6,1.5-2.2,2.6c-0.5,0.8-1.3,1.3-2.2,1.3H5.9c-1.7,0-3.2-1.4-3.2-3.2v-9.2c0-1.7,1.4-3.1,3.1-3.2
		c0.9,0.1,10.4,1.3,14.2,1.3c3.8,0,13.3-1.2,14.2-1.3c1.7,0,3.1,1.4,3.1,3.2V24.6z"/>
	<path class="st0" d="M37.3,24.6"/>
	<g>
		<path class="st0" d="M9.9,17.5c1.2,0,2.1,1,2.1,2.1s-1,2.1-2.1,2.1s-2.1-1-2.1-2.1S8.8,17.5,9.9,17.5 M9.9,16
			c-2,0-3.6,1.6-3.6,3.6s1.6,3.6,3.6,3.6s3.6-1.6,3.6-3.6S11.9,16,9.9,16L9.9,16z"/>
	</g>
	<g>
		<path class="st0" d="M30.1,17.5c1.2,0,2.1,1,2.1,2.1s-1,2.1-2.1,2.1s-2.1-1-2.1-2.1S28.9,17.5,30.1,17.5 M30.1,16
			c-2,0-3.6,1.6-3.6,3.6s1.6,3.6,3.6,3.6s3.6-1.6,3.6-3.6S32.1,16,30.1,16L30.1,16z"/>
	</g>
</g>
</svg>
