<?xml version="1.0" encoding="utf-8"?>
<!-- Generator: Adobe Illustrator 22.0.0, SVG Export Plug-In . SVG Version: 6.00 Build 0)  -->
<svg version="1.1" id="图层_1" xmlns="http://www.w3.org/2000/svg" xmlns:xlink="http://www.w3.org/1999/xlink" x="0px" y="0px"
	 viewBox="0 0 30 30" style="enable-background:new 0 0 30 30;" xml:space="preserve">
<style type="text/css">
	.st0{fill:none;stroke:#FFFFFF;stroke-miterlimit:10;}
</style>
<g>
	<path class="st0" d="M16.8,6.8c1.6,0.4,3.2-0.5,3.7-2.1c0.4-1.6-0.5-3.2-2.1-3.6c-1.6-0.4-3.2,0.5-3.7,2.1
		C14.2,4.8,15.2,6.4,16.8,6.8L16.8,6.8z M16.8,6.8"/>
	<path class="st0" d="M24,14.8l-5.6-6.2c-0.3-0.4-0.7-0.7-1.3-0.9c0,0-1.5-0.4-1.6-0.4c-0.5-0.2-1-0.2-1.5,0.2l-7.8,5.7
		c-0.7,0.5-0.8,1.4-0.3,2.1c0.5,0.6,1.3,0.6,2.1,0.3l4.1-3l-2.1,9.6l-4,4.4c-0.6,0.6-0.5,1.5,0.1,2.1c0.3,0.3,1.3,0.7,2.1-0.1
		l4.3-4.7c0.2-0.2,1.1-4.6,1.1-4.6l3.2,4.2l1.5,4.7c0.3,0.8,1.4,1.2,1.9,0.9c0.8-0.3,1.2-1.1,1-1.9c0,0-1.7-5.2-1.8-5.3l-2.8-3.7
		l1.5-5.4l3.6,4.1c0.7,0.7,1.8,0.4,2.1,0.1C24.4,16.3,24.5,15.4,24,14.8L24,14.8z"/>
	<path class="st0" d="M24,14.8"/>
</g>
</svg>
