<?xml version="1.0" encoding="utf-8"?>
<!-- Generator: Adobe Illustrator 22.0.0, SVG Export Plug-In . SVG Version: 6.00 Build 0)  -->
<svg version="1.1" id="图层_1" xmlns="http://www.w3.org/2000/svg" xmlns:xlink="http://www.w3.org/1999/xlink" x="0px" y="0px"
	 viewBox="0 0 30 30" style="enable-background:new 0 0 30 30;" xml:space="preserve">
<style type="text/css">
	.st0{fill:#FFFFFF;}
</style>
<g>
	<g>
		<path class="st0" d="M16.5,9.4c1.4,0.4,2.6,1.2,3.4,2.4c1.1,0.7,2.3,1.7,3.4,3c0,0-1.2,1.6-3.2,2.9c-1,1.7-2.8,2.9-5,2.9
			c-1.9,0-3.7-1-4.7-2.4c-1.3-0.7-2.6-1.9-3.9-3.5c0,0,1.5-1.9,4-3.2c0.8-1.1,1.9-1.9,3.3-2.2c-5.5,0.7-9.3,5.4-9.3,5.4
			c10.9,13.2,21,0.1,21,0.1C22.4,11.3,19.3,9.8,16.5,9.4L16.5,9.4z M10.6,11.6c-0.7,0.9-1.1,2.1-1.1,3.4c0,1.2,0.4,2.3,1,3.3
			c1,1.5,2.7,2.4,4.7,2.4c2.1,0,4-1.2,5-2.9c0.5-0.8,0.7-1.8,0.7-2.8c0-1.2-0.3-2.2-0.9-3.1c-0.8-1.2-2-2.1-3.4-2.4
			c-0.4-0.1-0.9-0.2-1.4-0.2c-0.5,0-0.9,0.1-1.3,0.2C12.5,9.7,11.3,10.5,10.6,11.6L10.6,11.6z M15.1,19.6c-2.5,0-4.6-2.1-4.6-4.6
			s2.1-4.6,4.6-4.6c2.5,0,4.6,2.1,4.6,4.6S17.7,19.6,15.1,19.6L15.1,19.6z M15.4,12.8c-0.1,0-0.2,0-0.3,0c0,0.1,0,0.1,0,0.2
			c0,1.2-0.9,2.2-2.1,2.3c0.1,1.2,1.1,2.1,2.3,2.1c1.3,0,2.3-1,2.3-2.3S16.7,12.8,15.4,12.8L15.4,12.8z M15.4,12.8"/>
	</g>
</g>
</svg>
