<svg xmlns="http://www.w3.org/2000/svg" viewBox="0 0 12.5 11.41"><defs><style>.cls-1{fill:#fff;}</style></defs><title>3D</title><g id="图层_2" data-name="图层 2"><g id="图层_1-2" data-name="图层 1"><path class="cls-1" d="M4.33,11.41A.63.63,0,0,1,4,11.33L.14,9.07l0,0L.05,9A.28.28,0,0,1,0,8.82V1.68a.43.43,0,0,1,.36-.42L8.34,0h.08a.69.69,0,0,1,.31.07L12.25,2a.49.49,0,0,1,.18.18.47.47,0,0,1,.07.24V9.59a.43.43,0,0,1-.35.42L5.08,11.28l-.74.13Zm.35-.64,7.25-1.3V2.81L4.68,4.2ZM.58,8.68l3.52,2V4.1l-3.52-2ZM4.38,3.62l.12,0L8.2,2.93V.61L1.14,1.73Zm4.39-.8,2.84-.54L8.78.75Z"/></g></g></svg>