<svg xmlns="http://www.w3.org/2000/svg" viewBox="0 0 44 58"><defs><style>.cls-1{fill:#9031ff;}.cls-2{fill:#fff;}</style></defs><title>3D</title><g id="图层_2" data-name="图层 2"><g id="图层_1-2" data-name="图层 1"><polygon class="cls-1" points="0 0 0 44.97 22 58 44 44.97 44 0 0 0"/><path class="cls-2" d="M22,33.15a1,1,0,0,1-.39-.08L10.44,28.39a1,1,0,0,1-.61-.92V15.39a1,1,0,0,1,1.39-.92l11.14,4.67a1,1,0,0,1,.61.92V32.15a1,1,0,0,1-1,1ZM11.83,26.81,21,30.64V20.73L11.83,16.9Z"/><path class="cls-2" d="M22,33.15a1,1,0,0,1-1-1V20.07a1,1,0,0,1,.61-.92l11.2-4.67a1,1,0,0,1,1.39.93l-.05,12.08a1,1,0,0,1-.61.92L22.36,33.07A1,1,0,0,1,22,33.15Zm1-12.41v9.91l9.15-3.84,0-9.91Zm10.14,6.74h0Z"/><path class="cls-2" d="M22,21a1,1,0,0,1-.39-.08L10.44,16.31a1,1,0,0,1,0-1.85l11.14-4.22a1,1,0,0,1,.71,0l11.2,4.22a1,1,0,0,1,0,1.86L22.37,21A1,1,0,0,1,22,21ZM13.5,15.45,22,18.94l8.51-3.49L22,12.24Z"/></g></g></svg>