<svg xmlns="http://www.w3.org/2000/svg" viewBox="0 0 12.5 9.27"><defs><style>.cls-1{fill:#fff;}</style></defs><title>hide-eye</title><g id="图层_2" data-name="图层 2"><g id="图层_1-2" data-name="图层 1"><g id="图层_2-2" data-name="图层 2"><g id="图层_1-2-2" data-name="图层 1-2"><path class="cls-1" d="M6.26,9.07a5.38,5.38,0,0,1-1.68-.29.31.31,0,0,1,.1-.61h.1a4.76,4.76,0,0,0,1.51.26c3.11,0,5.49-3.34,5.59-3.48a.37.37,0,0,0,0-.33,10.52,10.52,0,0,0-1.65-1.79.31.31,0,0,1,.19-.55.32.32,0,0,1,.21.07,10.91,10.91,0,0,1,1.73,1.92,1,1,0,0,1,0,1C12.26,5.49,9.74,9.07,6.26,9.07Zm-4.43-2A.31.31,0,0,1,1.62,7,10.71,10.71,0,0,1,.15,5.32a1,1,0,0,1,0-1C.26,4.12,2.74.52,6.26.52A5.36,5.36,0,0,1,7.85.77a.31.31,0,0,1,0,.57l-.12,0h-.1a4.72,4.72,0,0,0-1.41-.22C3.16,1.15.78,4.49.68,4.63A.37.37,0,0,0,.68,5,10.36,10.36,0,0,0,2.05,6.51a.31.31,0,0,1,.1.21A.31.31,0,0,1,2.07,7,.31.31,0,0,1,1.83,7.05Z"/><path class="cls-1" d="M6.26,7.09H6.05a.31.31,0,0,1,0-.62h.18A1.66,1.66,0,0,0,7.92,4.62a.31.31,0,0,1,.28-.34h0a.32.32,0,0,1,.34.28,2.41,2.41,0,0,1,0,.25A2.29,2.29,0,0,1,6.26,7.09Zm-2-2A.31.31,0,0,1,4,4.8H4A2.29,2.29,0,0,1,6.25,2.51a.31.31,0,1,1,0,.62A1.67,1.67,0,0,0,4.57,4.8.31.31,0,0,1,4.27,5.11Z"/><path class="cls-1" d="M1.93,9.27a.31.31,0,0,1-.22-.53L10.35.09A.31.31,0,0,1,10.57,0a.31.31,0,0,1,.31.31h0a.31.31,0,0,1-.09.22L2.15,9.17A.31.31,0,0,1,1.93,9.27Z"/></g></g></g></g></svg>