<?xml version="1.0" encoding="UTF-8" standalone="no"?>
<svg width="20px" height="16px" viewBox="0 0 20 16" version="1.1" xmlns="http://www.w3.org/2000/svg" xmlns:xlink="http://www.w3.org/1999/xlink">
    <!-- Generator: Sketch 39 (31667) - http://www.bohemiancoding.com/sketch -->
    <title>noun_421 + Shape</title>
    <desc>Created with Sketch.</desc>
    <defs></defs>
    <g id="Assets" stroke="none" stroke-width="1" fill="none" fill-rule="evenodd">
        <g id="noun_421-+-Shape" fill="#000000">
            <path d="M16.7496336,5.0327992 C16.9923143,5.20062401 17.2303192,5.37381757 17.4635294,5.55115789 C18.2201961,6.12622222 18.9643137,6.75592982 19.5898039,7.46348538 C19.6992157,7.56790643 19.7705882,7.70357895 19.7947059,7.84823392 C19.7947059,7.84898246 19.794902,7.84991813 19.795098,7.85066667 C19.7962745,7.85702924 19.7970588,7.86357895 19.7978431,7.87012865 C19.7986275,7.87555556 19.7996078,7.88116959 19.8001961,7.88678363 C19.8005882,7.89052632 19.8007843,7.89445614 19.8011765,7.89838596 C19.8017647,7.90605848 19.802549,7.91354386 19.8029412,7.92140351 C19.8035294,7.93300585 19.8043137,7.94442105 19.8043137,7.95621053 C19.8043137,7.968 19.8039216,7.97960234 19.8033333,7.99120468 C19.8029412,7.99906433 19.8021569,8.00654971 19.8015686,8.01403509 C19.8011765,8.01796491 19.8009804,8.0217076 19.8005882,8.02563743 C19.8,8.03125146 19.7990196,8.0368655 19.7982353,8.0422924 C19.797451,8.04884211 19.7966667,8.05520468 19.7954902,8.06175439 C19.7952941,8.06250292 19.795098,8.0634386 19.795098,8.06418713 C19.7709804,8.20902924 19.6996078,8.34451462 19.5901961,8.44912281 C19.3847059,8.68173099 19.1598039,8.90011696 18.9337255,9.11438596 C17.7121569,10.2714386 16.3101961,11.3032982 14.775098,12.0520234 C13.7941176,12.5303392 12.7462745,12.9162105 11.6592157,13.101848 C10.5959998,13.2832854 9.53169797,13.2951905 8.472658,13.1258417 L16.7496336,5.0327992 Z M11.3579621,2.76218333 C10.351986,2.61886637 9.34165187,2.63830306 8.33215686,2.8105731 C7.24490196,2.99621053 6.19705882,3.38208187 5.21627451,3.86039766 C3.68117647,4.60893567 2.27921569,5.64098246 1.05764706,6.79803509 C0.831568627,7.01211696 0.606666667,7.23069006 0.401176471,7.46329825 C0.12745098,7.77281871 0.12745098,8.1394152 0.401176471,8.44893567 C1.02666667,9.15649123 1.77078431,9.7860117 2.52745098,10.3612632 C2.7259151,10.5121633 2.92784789,10.6600582 3.13317642,10.8041958 L11.3579621,2.76218333 Z" id="Shape"></path>
            <polygon id="Shape" points="16.1113955 0.628539352 2.46100617 13.9755863 1.81818182 14.6041257 3.10383049 15.8612044 3.74665485 15.2326651 17.3970442 1.88561809 18.0398685 1.25707874 16.7542199 0"></polygon>
        </g>
    </g>
</svg>