<?xml version="1.0" encoding="UTF-8" standalone="no"?>
<svg width="40px" height="40px" viewBox="0 0 40 40" version="1.1" xmlns="http://www.w3.org/2000/svg" xmlns:xlink="http://www.w3.org/1999/xlink">
    <!-- Generator: Sketch 39 (31667) - http://www.bohemiancoding.com/sketch -->
    <title>ico-back-normal</title>
    <desc>Created with Sketch.</desc>
    <defs></defs>
    <g id="Assets" stroke="none" stroke-width="1" fill="none" fill-rule="evenodd">
        <g id="Artboard-2" transform="translate(-23.000000, -24.000000)">
            <g id="ico-back-normal" transform="translate(23.000000, 7.000000)">
                <rect id="Rectangle" fill-opacity="0.7" fill="#FFFFFF" x="0" y="17" width="40" height="40" rx="20"></rect>
                <path d="M27.9638,36.6963 L14.825,36.6963 L18.9638,32.5575 C19.4138,32.1075 19.4138,31.3875 18.9638,30.9825 C18.5138,30.5325 17.7944,30.5325 17.3888,30.9825 L11.3138,37.0101 C11.0888,37.2351 11,37.5519 11,37.8213 C11,38.0907 11.0888,38.4075 11.3138,38.6325 L17.3444,44.6625 C17.7944,45.1125 18.5138,45.1125 18.9194,44.6625 C19.3694,44.2125 19.3694,43.4931 18.9194,43.0875 L14.7806,38.9487 L27.9194,38.9487 C28.5056,38.9487 28.9556,38.4543 28.9556,37.8237 C28.9556,37.1931 28.55,36.6963 27.9638,36.6963 L27.9638,36.6963 Z" id="Page-1" fill="#000000"></path>
            </g>
        </g>
    </g>
</svg>