<?xml version="1.0" encoding="UTF-8" standalone="no"?>
<svg width="82px" height="82px" viewBox="0 0 82 82" version="1.1" xmlns="http://www.w3.org/2000/svg" xmlns:xlink="http://www.w3.org/1999/xlink">
    <!-- Generator: Sketch 39 (31667) - http://www.bohemiancoding.com/sketch -->
    <title>Icon - Snapshot Hover</title>
    <desc>Created with Sketch.</desc>
    <defs></defs>
    <g id="Assets" stroke="none" stroke-width="1" fill="none" fill-rule="evenodd">
        <g id="button" transform="translate(1.000000, 1.000000)">
            <g>
                <path d="M40,80 C62.09139,80 80,62.09139 80,40 C80,17.90861 62.09139,0 40,0 C17.90861,0 0,17.90861 0,40 C0,62.09139 17.90861,80 40,80 Z" id="Mask" fill="#000000"></path>
                <circle id="Oval-51-Copy" fill="#E5E3DB" opacity="0.800000012" cx="40" cy="40" r="33.3333333"></circle>
            </g>
            <g id="Icon---Snapshot" transform="translate(20.000000, 24.000000)">
                <path d="M37.3780692,5.40295166 L30.6722614,5.40295166 L26.7745916,1.48800473 C26.7697276,1.48313135 26.7656743,1.47988243 26.761621,1.47500905 L26.754325,1.46932344 C26.169026,0.888579241 25.3648479,0.529573734 24.4755501,0.529573734 L16.3689159,0.529573734 C15.426925,0.529573734 14.5870777,0.93731302 13.993672,1.57978668 L13.9904294,1.57085215 L10.1730153,5.40295166 L3.33020535,5.40295166 C1.53944984,5.40295166 0.0875516499,6.85765497 0.0875516499,8.65187027 L0.0875516499,28.145382 C0.0875516499,29.9395973 1.53944984,31.3943006 3.33020535,31.3943006 L37.3780692,31.3943006 C39.1696354,31.3943006 40.6215336,29.9395973 40.6215336,28.145382 L40.6215336,8.65187027 C40.6215336,6.85765497 39.1696354,5.40295166 37.3780692,5.40295166 L37.3780692,5.40295166 Z" id="Fill-1" fill="#000000"></path>
                <path d="M20.5581665,7.27632958 C15.3099442,7.27632958 11.0581665,11.5281074 11.0581665,16.7742185 C11.0581665,22.0213851 15.3099442,26.2763296 20.5581665,26.2763296 C25.8063887,26.2763296 30.0581665,22.0213851 30.0581665,16.7742185 C30.0581665,11.5281074 25.8063887,7.27632958 20.5581665,7.27632958 L20.5581665,7.27632958 Z M20.5581665,24.1652185 C16.483722,24.1652185 13.1692776,20.8486629 13.1692776,16.7742185 C13.1692776,12.7008296 16.483722,9.38744069 20.5581665,9.38744069 C24.6315553,9.38744069 27.9470553,12.7008296 27.9470553,16.7742185 C27.9470553,20.8486629 24.6315553,24.1652185 20.5581665,24.1652185 L20.5581665,24.1652185 Z" id="Fill-3" fill="#B7B6AF"></path>
            </g>
        </g>
    </g>
</svg>