<?xml version="1.0" encoding="UTF-8" standalone="no"?>
<svg width="82px" height="82px" viewBox="0 0 82 82" version="1.1" xmlns="http://www.w3.org/2000/svg" xmlns:xlink="http://www.w3.org/1999/xlink">
    <!-- Generator: Sketch 39 (31667) - http://www.bohemiancoding.com/sketch -->
    <title>Icon - Snapshot Normal</title>
    <desc>Created with Sketch.</desc>
    <defs>
        <path d="M40,80 C62.09139,80 80,62.09139 80,40 C80,17.90861 62.09139,0 40,0 C17.90861,0 0,17.90861 0,40 C0,62.09139 17.90861,80 40,80 Z" id="path-1"></path>
        <filter x="-50%" y="-50%" width="200%" height="200%" filterUnits="objectBoundingBox" id="filter-2">
            <feOffset dx="0" dy="0" in="SourceAlpha" result="shadowOffsetOuter1"></feOffset>
            <feGaussianBlur stdDeviation="0.5" in="shadowOffsetOuter1" result="shadowBlurOuter1"></feGaussianBlur>
            <feComposite in="shadowBlurOuter1" in2="SourceAlpha" operator="out" result="shadowBlurOuter1"></feComposite>
            <feColorMatrix values="0 0 0 0 0   0 0 0 0 0   0 0 0 0 0  0 0 0 0.3 0" type="matrix" in="shadowBlurOuter1"></feColorMatrix>
        </filter>
    </defs>
    <g id="Assets" stroke="none" stroke-width="1" fill="none" fill-rule="evenodd">
        <g id="button" transform="translate(1.000000, 1.000000)">
            <g>
                <g id="Mask">
                    <use fill="black" fill-opacity="1" filter="url(#filter-2)" xlink:href="#path-1"></use>
                    <use fill-opacity="0.7" fill="#FFFFFF" fill-rule="evenodd" xlink:href="#path-1"></use>
                </g>
                <circle id="Oval-51-Copy" fill="#000000" opacity="0.800000012" cx="40" cy="40" r="33.3333333"></circle>
            </g>
            <g id="Icon---Snapshot" transform="translate(20.000000, 24.000000)" fill="#FFFFFF">
                <path d="M37.3780692,5.40295166 L30.6722614,5.40295166 L26.7745916,1.48800473 C26.7697276,1.48313135 26.7656743,1.47988243 26.761621,1.47500905 L26.754325,1.46932344 C26.169026,0.888579241 25.3648479,0.529573734 24.4755501,0.529573734 L16.3689159,0.529573734 C15.426925,0.529573734 14.5870777,0.93731302 13.993672,1.57978668 L13.9904294,1.57085215 L10.1730153,5.40295166 L3.33020535,5.40295166 C1.53944984,5.40295166 0.0875516499,6.85765497 0.0875516499,8.65187027 L0.0875516499,28.145382 C0.0875516499,29.9395973 1.53944984,31.3943006 3.33020535,31.3943006 L37.3780692,31.3943006 C39.1696354,31.3943006 40.6215336,29.9395973 40.6215336,28.145382 L40.6215336,8.65187027 C40.6215336,6.85765497 39.1696354,5.40295166 37.3780692,5.40295166 L37.3780692,5.40295166 Z M39.0002067,28.145382 C39.0002067,29.040459 38.2714203,29.7698413 37.3780692,29.7698413 L3.33020535,29.7698413 C2.43604359,29.7698413 1.7088785,29.040459 1.7088785,28.145382 L1.7088785,8.65187027 C1.7088785,7.75598096 2.43604359,7.02741096 3.33020535,7.02741096 L10.8450553,7.02741096 L11.3209147,6.55063216 L13.2835309,4.58016302 L13.3232534,4.69874855 L15.1845366,2.68279455 C15.4998847,2.34165809 15.9198083,2.15403304 16.3689159,2.15403304 L24.4755501,2.15403304 C24.9035804,2.15403304 25.3089121,2.32054012 25.6266922,2.634873 L29.5243619,6.55063216 L29.9994107,7.02741096 L37.3780692,7.02741096 C38.2714203,7.02741096 39.0002067,7.75598096 39.0002067,8.65187027 L39.0002067,28.145382 L39.0002067,28.145382 Z" id="Fill-1"></path>
                <path d="M20.3541373,7.02741096 C14.5335739,7.02741096 9.81551275,11.7537753 9.81551275,17.584772 C9.81551275,23.4165809 14.5335739,28.145382 20.3541373,28.145382 C26.1747007,28.145382 30.8927618,23.4165809 30.8927618,17.584772 C30.8927618,11.7537753 26.1747007,7.02741096 20.3541373,7.02741096 L20.3541373,7.02741096 Z M20.3541373,26.5209227 C15.4374636,26.5209227 11.4368396,22.5125693 11.4368396,17.584772 C11.4368396,12.6594114 15.4374636,8.65187027 20.3541373,8.65187027 C25.270811,8.65187027 29.271435,12.6594114 29.271435,17.584772 C29.271435,22.5125693 25.270811,26.5209227 20.3541373,26.5209227 L20.3541373,26.5209227 Z" id="Fill-2"></path>
                <path d="M20.3541373,10.2763296 C16.3235187,10.2763296 13.0581665,13.5479906 13.0581665,17.584772 C13.0581665,21.6223656 16.3235187,24.8964633 20.3541373,24.8964633 C24.3847558,24.8964633 27.6501081,21.6223656 27.6501081,17.584772 C27.6501081,13.5479906 24.3847558,10.2763296 20.3541373,10.2763296 L20.3541373,10.2763296 Z M20.3541373,23.272004 C17.2249765,23.272004 14.6794933,20.7199785 14.6794933,17.584772 C14.6794933,14.4503778 17.2249765,11.9007889 20.3541373,11.9007889 C23.4824874,11.9007889 26.0287813,14.4503778 26.0287813,17.584772 C26.0287813,20.7199785 23.4824874,23.272004 20.3541373,23.272004 L20.3541373,23.272004 Z" id="Fill-3"></path>
            </g>
        </g>
    </g>
</svg>