<?xml version="1.0" encoding="UTF-8"?>
<svg width="32px" height="32px" viewBox="0 0 32 32" version="1.1" xmlns="http://www.w3.org/2000/svg" xmlns:xlink="http://www.w3.org/1999/xlink">
    <!-- Generator: Sketch 49.3 (51167) - http://www.bohemiancoding.com/sketch -->
    <title>microphone-off</title>
    <desc>Created with Sketch.</desc>
    <defs></defs>
    <g id="Page-1" stroke="none" stroke-width="1" fill="none" fill-rule="evenodd">
        <g id="Group-9" transform="translate(3.000000, 0.000000)" fill="#ccc" fill-rule="nonzero">
            <g id="microphone-off">
                <path d="M5.0528962,18.1380168 C4.85767595,17.3703529 4.76013418,16.6474622 4.76013418,15.9692773 L4.76013418,13.5121345 C4.76013418,13.179563 4.63648101,12.8916975 4.38937975,12.6484706 C4.14214177,12.4053782 3.84951646,12.2838319 3.51123038,12.2838319 C3.17273924,12.2838319 2.87997722,12.4054454 2.63280759,12.6484706 C2.38556962,12.8916303 2.26191646,13.179563 2.26191646,13.5121345 L2.26191646,15.9690756 C2.26191646,17.3895126 2.53526582,18.7585882 3.08169114,20.077042 L5.0528962,18.1380168 Z" id="Shape"></path>
                <path d="M13.5030759,22.1107227 C15.2205494,22.1107227 16.6909899,21.5093109 17.9133722,20.3070252 C19.1363013,19.1047395 19.7478,17.6583529 19.7478,15.9692101 L19.7478,13.5122689 L26.7930228,6.58346218 C26.9230329,6.45552941 26.9881063,6.30830252 26.9881063,6.14198319 C26.9881063,5.97566387 26.9230329,5.82843697 26.7930228,5.7005042 L25.1930506,4.12652101 C25.0624937,3.99838655 24.9130025,3.93452101 24.743962,3.93452101 C24.5749899,3.93452101 24.425362,3.99838655 24.2952835,4.12652101 L0.213060759,27.8116303 C0.0829822785,27.9394958 0.0181139241,28.0867899 0.0181139241,28.2528403 C0.0181139241,28.4194286 0.0829822785,28.5666555 0.213060759,28.694521 L1.81330633,30.2683697 C1.94345316,30.3963025 2.09321772,30.4600336 2.26218987,30.4600336 C2.43136709,30.4600336 2.58106329,30.3963697 2.71107342,30.2683697 L7.66806835,25.3931429 C9.09893165,26.2636639 10.6277468,26.7817815 12.2541722,26.9478992 L12.2541722,29.4817479 L7.25821519,29.4817479 C6.91992911,29.4817479 6.62696203,29.6034958 6.38006582,29.8466555 C6.13275949,30.0895462 6.00890127,30.3776134 6.00890127,30.7103193 C6.00890127,31.0424874 6.13275949,31.3310252 6.38006582,31.5739832 C6.62696203,31.8169412 6.91992911,31.9388908 7.25821519,31.9388908 L19.7478,31.9388908 C20.0860177,31.9388908 20.3788481,31.8170084 20.6259494,31.5739832 C20.8733924,31.3310924 20.9969772,31.0425546 20.9969772,30.7103193 C20.9969772,30.3776807 20.8733924,30.0896134 20.6259494,29.8466555 C20.3789165,29.6034958 20.0860861,29.4817479 19.7478,29.4817479 L14.7519797,29.4817479 L14.7519797,26.9478992 C17.5751544,26.6410084 19.9460962,25.441479 21.8654203,23.3495126 C23.7842658,21.2576134 24.7438253,18.7975126 24.7438253,15.9696134 L24.7438253,13.5122017 C24.7438253,13.1796303 24.6202405,12.8917647 24.3732759,12.6486723 C24.1257646,12.4055126 23.8331392,12.2838992 23.4948532,12.2838992 C23.1568405,12.2838992 22.8640101,12.4055126 22.6167038,12.6486723 C22.3694658,12.8917647 22.2459494,13.1796303 22.2459494,13.5122017 L22.2459494,15.9691429 C22.2459494,18.3364706 21.3902203,20.3612773 19.6795823,22.0436975 C17.9689443,23.7261176 15.9097671,24.5676639 13.5029392,24.5676639 C12.0977772,24.5676639 10.764319,24.2416807 9.50222278,23.5887731 L11.375681,21.7466891 C12.0787063,21.9897143 12.7876785,22.1107227 13.5030759,22.1107227 Z" id="Shape"></path>
                <path d="M17.1038506,1.13270588 C16.0303443,0.377680672 14.8301089,0 13.5030759,0 C11.7856709,0 10.3153671,0.601747899 9.09257468,1.80436975 C7.86971392,3.00705882 7.25828354,4.45304202 7.25828354,6.14218487 L7.25828354,15.9692101 L19.377319,4.05001681 C18.9347241,2.86003361 18.1772886,1.88752941 17.1038506,1.13270588 Z" id="Shape"></path>
            </g>
        </g>
    </g>
</svg>