<?xml version="1.0" encoding="utf-8"?>
<!-- Generator: Adobe Illustrator 21.0.0, SVG Export Plug-In . SVG Version: 6.00 Build 0)  -->
<svg version="1.1" xmlns="http://www.w3.org/2000/svg" xmlns:xlink="http://www.w3.org/1999/xlink" x="0px" y="0px"
	 viewBox="0 0 44 58" style="enable-background:new 0 0 44 58;" xml:space="preserve">
<style type="text/css">
	.st0{opacity:0.5;fill:#FFFFFF;}
	.st1{fill:#FFC200;}
	.st2{fill:#FFFFFF;}
</style>
<g id="图层_2_1_">
	<circle class="st0" cx="22" cy="22.2" r="21.3"/>
</g>
<g id="图层_2_x5F_复制">
	<circle class="st1" cx="22" cy="22.2" r="17.9"/>
</g>
<g id="图层_1">
	<title>资源 6</title>
	<g id="图层_2_3_">
		<g id="图层_1-2_2_">
			<ellipse class="st2" cx="22" cy="23.6" rx="3.2" ry="3.3"/>
			<path class="st2" d="M31.1,14.8h-3.8c-0.2,0-0.4-0.2-0.4-0.4v-0.3c0-1.1-0.8-2-1.9-2h-6.1c-1.1,0-1.9,0.9-1.9,2v0.3
				c0,0.2-0.2,0.4-0.4,0.4h-3.8c-1.8,0.1-3.1,1.5-3.1,3.3v11c0,1.8,1.4,3.2,3.2,3.3h18.2c1.8,0,3.2-1.5,3.2-3.3v-11
				C34.3,16.3,32.9,14.9,31.1,14.8z M22,28.8c-2.9,0.1-5.3-2.2-5.4-5.1c-0.1-2.9,2.2-5.3,5.1-5.4c2.9-0.1,5.3,2.2,5.4,5.1
				c0,0.1,0,0.1,0,0.2C27.1,26.5,24.8,28.8,22,28.8L22,28.8z"/>
		</g>
	</g>
</g>
</svg>
