<svg xmlns="http://www.w3.org/2000/svg" xmlns:xlink="http://www.w3.org/1999/xlink" width="40px" height="40px" viewBox="-5 -4 40 40" version="1.1" class="injected-svg" data-src="images/icn-snapshot-ctrl-360.svg">
                    <!-- Generator: Sketch 43.2 (39069) - http://www.bohemiancoding.com/sketch -->
                    <desc>Created with Sketch.</desc>
                    <defs></defs>
                    <g id="Symbols" stroke="none" stroke-width="1" fill="none" fill-rule="evenodd">
                        <g class="mode-svg" id="icn-360snapshot-white" fill="#FFFFFF">
                            <g id="Page-1" transform="translate(0.000000, 3.000000)">
                                <g id="Group-3" transform="translate(0.000000, 0.064900)">
                                    <path class="mode-svg" d="M23.6431,9.78188478 L23.6421,10.8406369 L21.4291,8.60867303 C21.2371,8.40932241 20.9081,8.39119963 20.6941,8.5705198 C20.6791,8.58196577 20.6661,8.5953194 20.6531,8.60867303 L17.9391,11.4310581 L13.3981,6.85362455 C13.2061,6.6533201 12.8771,6.63615115 12.6631,6.81547132 C12.6491,6.82691729 12.6351,6.84027092 12.6221,6.85362455 L7.2041,12.3848888 L7.2041,10.000312 C3.6531,9.16189483 1.4291,7.80745524 1.4291,6.54839872 C1.4291,4.52627765 7.0001,2.27523721 14.9901,2.27523721 C22.9791,2.27523721 28.5511,4.52627765 28.5511,6.54839872 C28.5611,7.70253387 26.7251,8.94251377 23.6431,9.78188478 L23.6431,9.78188478 Z M23.6421,14.8371875 C22.7951,14.6178064 21.8371,14.4461169 20.8881,14.3030423 L19.0711,12.5384555 L21.0001,10.5258727 L23.6421,13.1365073 L23.6421,14.8371875 Z M14.9901,13.8833568 C12.3891,13.8690493 9.7941,14.1284913 7.2551,14.6559596 L13.0101,8.75174763 L18.2551,14.0264314 C17.2041,13.9405866 16.1121,13.8833568 14.9901,13.8833568 L14.9901,13.8833568 Z M25.3471,2.42785012 C22.0101,1.38435934 18.5081,0.880736732 14.9901,0.939874235 C11.4861,0.885505886 7.9971,1.38817466 4.6731,2.42785012 C1.6121,3.46752558 0.0001,4.92688654 0.0001,6.54839872 L0.0001,19.482343 C0.0001,20.7509378 2.7251,22.1053774 7.2041,22.9352101 L7.2041,16.0294758 C9.7561,15.4781617 12.3711,15.2149044 14.9901,15.2463808 C17.8911,15.1929663 20.7851,15.5134534 23.5921,16.2002115 L23.6421,22.9342562 C26.6011,22.3056818 28.6841,21.1896999 29.5511,20.321714 C29.8151,20.0899331 29.9751,19.7732613 30.0001,19.4346514 L30.0001,6.54839872 C29.9901,4.92688654 28.3371,3.46752558 25.3471,2.42785012 Z" id="Fill-1"></path>
                                </g>
                                <path class="mode-svg" d="M17.9565,7.4351 C17.3935,7.4351 16.9355,6.9871 16.9355,6.4351 C16.9355,5.8821 17.3935,5.4351 17.9565,5.4351 C18.5195,5.4351 18.9775,5.8821 18.9775,6.4351 C18.9715,6.9831 18.5165,7.4251 17.9565,7.4251 L17.9565,7.4351 Z M17.9565,3.8051 C16.4685,3.8051 15.2625,4.9871 15.2625,6.4451 C15.2625,7.9031 16.4685,9.0841 17.9565,9.0841 C19.4445,9.0841 20.6505,7.9031 20.6505,6.4451 C20.6505,4.9871 19.4445,3.8051 17.9565,3.8051 L17.9565,3.8051 Z" id="Fill-4"></path>
                            </g>
                        </g>
                    </g>
                </svg>