<svg xmlns="http://www.w3.org/2000/svg" xmlns:xlink="http://www.w3.org/1999/xlink" width="40px" height="40px" viewBox="0 0 40 40" version="1.1" class="injected-svg" data-src="images/icn-snapshot-ctrl-2D.svg">
                <!-- Generator: Sketch 43.1 (39012) - http://www.bohemiancoding.com/sketch -->
                <desc>Created with Sketch.</desc>
                <defs></defs>
                <g id="Visual-Design---Workshop" stroke="none" stroke-width="1" fill="none" fill-rule="evenodd">
                    <g class="mode-svg" transform="translate(-55.000000, -149.000000)" fill="#FFFFFF">
                        <g id="icn-snapshot-2D-white" transform="translate(60.000000, 154.000000)">
                            <path d="M3.1,5 C1.9516,5 1,5.9516 1,7.1 L1,22.1 C1,23.2484 1.9516,24.2 3.1,24.2 L26.5,24.2 C27.6484,24.2 28.6,23.2484 28.6,22.1 L28.6,7.1 C28.6,5.9516 27.6484,5 26.5,5 L3.1,5 Z M3.1,6.8 L26.5,6.8 C26.6812,6.8 26.8,6.9188 26.8,7.1 L26.8,18.8752 L22.0656,13.6908 C21.8828,13.4908 21.6048,13.3796 21.3344,13.4 C21.1124,13.4156 20.8968,13.5188 20.7436,13.6812 L16.6752,18.0032 L10.6752,11.3 C10.4936,11.0968 10.2156,10.9828 9.9436,11 C9.7188,11.014 9.4984,11.1172 9.3436,11.2812 L2.8,18.3124 L2.8,7.1 C2.8,6.9188 2.9188,6.8 3.1,6.8 L3.1,6.8 Z M16.9,7.4 C15.4188,7.4 14.2,8.6188 14.2,10.1 C14.2,11.5812 15.4188,12.8 16.9,12.8 C18.3812,12.8 19.6,11.5812 19.6,10.1 C19.6,8.6188 18.3812,7.4 16.9,7.4 L16.9,7.4 Z M16.9,9.2 C17.408,9.2 17.8,9.592 17.8,10.1 C17.8,10.608 17.408,11 16.9,11 C16.392,11 16,10.608 16,10.1 C16,9.592 16.392,9.2 16.9,9.2 L16.9,9.2 Z M9.9812,13.2312 L18.1844,22.4 L3.1,22.4 C2.9188,22.4 2.8,22.2812 2.8,22.1 L2.8,20.9468 L9.9812,13.2312 Z M21.3908,15.622 L26.8,21.5468 L26.8,22.1 C26.8,22.2812 26.6812,22.4 26.5,22.4 L20.6032,22.4 L17.8752,19.3532 L21.3908,15.622 Z" id="Page-1"></path>
                        </g>
                    </g>
                </g>
                </svg>