<svg xmlns="http://www.w3.org/2000/svg" viewBox="0 0 26 24.88"><defs><style>.cls-1{fill:#fff;}</style></defs><title>VR</title><g id="图层_2" data-name="图层 2"><g id="图层_1-2" data-name="图层 1"><path class="cls-1" d="M26,16.79a1.77,1.77,0,0,1-1.33,2l-.06,0a12.28,12.28,0,0,0-2.72,1A14.12,14.12,0,0,0,20,21.89,9.73,9.73,0,0,1,4.74,20.34a1.73,1.73,0,0,0-.77-.6C3,19.36,2.06,19,1.11,18.67A1.63,1.63,0,0,1,0,17c0-2.84,0-5.68,0-8.52A2.11,2.11,0,0,1,1.8,6.28C2.37,6.16,3,6.14,3.52,6a1.12,1.12,0,0,0,.66-.48A9.46,9.46,0,0,1,13,0a9.47,9.47,0,0,1,8.81,5.53,1.12,1.12,0,0,0,.67.48c.54.13,1.12.15,1.67.26A2.14,2.14,0,0,1,26,8.51c0,1.89,0,3.77,0,5.66ZM24.85,9.18c.14-1.35-.12-1.79-1.24-1.9-2.69-.28-5.39-.51-8.08-.73a.78.78,0,0,0-.58.34,2.18,2.18,0,0,1-3.9,0,.83.83,0,0,0-.63-.36c-2.65.21-5.31.44-8,.71-1.2.12-1.52.61-1.33,1.92.59,0,1.19,0,1.79,0s.88.21.87.83c0,1.63,0,3.25,0,4.88,0,.58-.25.83-.83.81s-1.24,0-1.9,0a8.1,8.1,0,0,0,0,1.31,1,1,0,0,0,.42.65A21.15,21.15,0,0,0,8,19.45a2.28,2.28,0,0,0,2.3-1,2.78,2.78,0,0,1,2-1.11A3.61,3.61,0,0,1,16,18.72a1.76,1.76,0,0,0,1.63.74,19.92,19.92,0,0,0,6.93-1.83.77.77,0,0,0,.37-.54,11.91,11.91,0,0,0,0-1.41c-.69,0-1.31,0-1.94,0s-.75-.21-.75-.74c0-1.67,0-3.34,0-5,0-.56.25-.78.79-.76S24.21,9.18,24.85,9.18ZM20.63,5.76C19.56,3.09,16.13,1,13,1.06S6.32,3.18,5.37,5.76l5.5-.38c.08-.18.15-.36.25-.53a2.12,2.12,0,0,1,3.62-.13A1.34,1.34,0,0,0,16,5.47C17.57,5.54,19.1,5.66,20.63,5.76ZM20,20.28l-1.11.17c-1.57.23-3,.15-4-1.33a2.32,2.32,0,0,0-1.39-.69,2.4,2.4,0,0,0-2.56,1,2.65,2.65,0,0,1-2.61,1.09c-.68-.07-1.36-.11-2.17-.18A8.5,8.5,0,0,0,13,23.79,8.57,8.57,0,0,0,20,20.28ZM1.08,14.57H2.66V10.3H1.08Zm22.23,0h1.55V10.29H23.32ZM14.07,5.9a1.05,1.05,0,0,0-1.1-1,1,1,0,0,0-1,1.09A1,1,0,0,0,13,7,1,1,0,0,0,14.07,5.9Z"/></g></g></svg>