<?xml version="1.0" encoding="UTF-8"?>
<svg width="28px" height="28px" viewBox="0 0 28 28" version="1.1" xmlns="http://www.w3.org/2000/svg" xmlns:xlink="http://www.w3.org/1999/xlink">
    <!-- Generator: Sketch 49.3 (51167) - http://www.bohemiancoding.com/sketch -->
    <title>walk</title>
    <desc>Created with Sketch.</desc>
    <defs></defs>
    <g id="Page-1" stroke="none" stroke-width="1" fill="none" fill-rule="evenodd">
        <path d="M12.7524918,18.0640556 C12.8502374,18.0677173 12.9474183,18.0658864 13.0434134,18.0579354 C13.3546069,18.5263146 13.6124948,18.8117152 13.7681198,19.3537986 C13.9236883,19.8959865 13.9830923,21.8239053 13.9716858,22.1051735 C13.9471789,22.7036464 14.4510401,23.20723 15.0971999,23.2298277 C15.1123333,23.2304554 15.1272972,23.2307692 15.1423741,23.2307692 C16.2835298,23.2307692 16.3150387,22.088696 16.3150387,22.088696 C16.3215325,21.8920123 16.3290992,21.5368831 16.3200079,21.1142224 L16.2772618,20.2466694 C16.2319183,19.6823022 16.1464262,19.1043869 15.9893331,18.6679687 C15.7738523,18.069025 15.3196262,17.3329781 14.9283615,16.7578351 C14.9620163,16.6795801 14.9915489,16.5990758 15.0153783,16.5155899 L15.8161466,13.7078253 C16.7521552,14.9272643 17.8774999,15.6591265 19.0969197,15.8339448 C19.145369,15.840902 19.1937054,15.8443544 19.2413076,15.8443544 C19.6953079,15.8443544 20.0941392,15.5378731 20.1656838,15.109249 C20.2446821,14.6357435 19.8945259,14.1924728 19.3833804,14.1192395 C17.8419252,13.8982319 16.7389417,11.9358934 16.317128,10.9057625 C16.2840944,10.7881184 15.992947,10.1870823 15.5323965,9.79235484 C16.9305931,9.6897236 18.0310355,8.60686471 18.0310355,7.28516065 C18.0310355,5.89566348 16.8150602,4.76923077 15.3150523,4.76923077 C13.8151574,4.76923077 12.5991256,5.89566348 12.5991256,7.28516065 C12.5991256,8.0841359 13.0016273,8.79564968 13.6285317,9.25649635 C13.0638547,9.39877818 10.0128487,10.310585 7.9676452,13.809358 C7.72138958,14.230711 7.89045386,14.7572061 8.34530114,14.9853278 C8.48703506,15.0564164 8.63978018,15.0901561 8.79043599,15.0901561 C9.12308718,15.0901561 9.44529185,14.9255381 9.61480787,14.6355342 C10.1482582,13.7228381 10.8012506,12.9478206 11.562774,12.3188512 L10.6692291,15.4517193 C10.564651,15.8183043 10.5730082,16.1876093 10.6733513,16.5288765 C10.4714793,17.6467304 10.1783555,18.9758101 9.95626802,19.4129606 C9.83983164,19.6421285 9.6051519,19.9419665 9.33365522,20.246617 L8.48387287,21.1141701 C8.3904753,21.2018408 8.30148221,21.280985 8.2238956,21.3513413 C7.31730675,22.1733327 8.26314065,22.9561444 8.26314065,22.9561444 C8.48217884,23.1326889 8.75610363,23.221772 9.03064956,23.221772 C9.32032884,23.221772 9.61333971,23.1254179 9.83706472,22.9232417 C11.3990176,21.5118269 12.1181337,20.246617 12.1181337,20.246617 C12.3582344,19.7277068 12.5788537,18.8719758 12.7524918,18.0640556 Z M12.8450056,20.6074812 C12.7390231,20.7939464 12.5369109,21.1035702 12.2340184,21.5015297 C11.7371272,22.154377 11.1305529,22.8243983 10.4091879,23.4762395 C10.0362998,23.8132117 9.54129879,23.9910028 9.03064956,23.9910028 C8.55440793,23.9910028 8.09098574,23.8331619 7.71747578,23.5320257 C7.61515231,23.4473385 7.48856582,23.3188609 7.36406548,23.1458633 C6.84585257,22.4257882 6.82964873,21.5437501 7.65075165,20.7992676 C7.77468762,20.6876324 7.83671843,20.6314061 7.87678349,20.594756 L8.70122428,19.7543224 C8.95812412,19.4660512 9.14101024,19.224243 9.21276027,19.0830259 C9.35798529,18.7971692 9.61371176,17.7437456 9.83376291,16.5540811 C9.76173269,16.2280488 9.75156953,15.8923403 9.80548823,15.5602149 C9.51207559,15.752594 9.15830955,15.8593868 8.79043599,15.8593868 C8.50126814,15.8593868 8.21523449,15.7930942 7.95611731,15.6631303 C7.09942163,15.2334677 6.77958236,14.237501 7.24534604,13.4405611 C8.21775779,11.7770357 9.4742039,10.5265036 10.8946097,9.63553224 C11.3660313,9.33982579 11.8207172,9.10364176 12.2447703,8.91935714 C11.9426576,8.43118332 11.7760647,7.87077238 11.7760647,7.28516065 C11.7760647,5.46931297 13.3621994,4 15.3150523,4 C17.2679899,4 18.8540964,5.46928682 18.8540964,7.28516065 C18.8540964,8.56777522 18.0597714,9.68516233 16.8947956,10.2251044 C16.9862734,10.3849122 17.0563476,10.5349733 17.0974317,10.6590199 C17.6689545,12.0390625 18.6366715,13.2339496 19.5080978,13.3588912 C20.4678544,13.4963983 21.1283141,14.332299 20.9789088,15.2278151 C20.8451294,16.0292884 20.1028524,16.6135852 19.2413076,16.6135852 C19.1515291,16.6135852 19.0614109,16.6071033 18.9721266,16.5942823 C17.9738939,16.4511738 17.0431124,16.0057423 16.215322,15.2948695 L15.8280473,16.6527856 C16.2555796,17.3080576 16.5839901,17.9072441 16.7694323,18.4226935 C16.938638,18.8927615 17.0416687,19.4877943 17.0994514,20.2112842 L17.1429025,21.0987617 C17.1508295,21.4672948 17.1475606,21.8140048 17.1378261,22.1085239 C17.1310928,22.3525782 17.0698855,22.6678816 16.8949486,22.999712 C16.5752247,23.6061828 15.9741085,24 15.1423741,24 C15.101391,23.9997134 15.101391,23.9997134 15.0664228,23.9985204 C13.9673885,23.9600847 13.1072622,23.1005589 13.1492155,22.0760394 C13.1627727,21.7417389 13.1161163,20.7519128 13.0521115,20.0993408 C12.9859095,20.2838553 12.9171182,20.453277 12.8450056,20.6074812 Z" id="Shape-Copy-2" fill="#FFFFFF" fill-rule="nonzero"></path>
    </g>
</svg>