<?xml version="1.0" standalone="no"?>
<!DOCTYPE svg PUBLIC "-//W3C//DTD SVG 1.1//EN" "http://www.w3.org/Graphics/SVG/1.1/DTD/svg11.dtd" >
<!--
2013-9-30: Created.
-->
<svg>
<metadata>
Created by iconfont
</metadata>
<defs>

<font id="iconfont" horiz-adv-x="1024" >
  <font-face
    font-family="iconfont"
    font-weight="500"
    font-stretch="normal"
    units-per-em="1024"
    ascent="896"
    descent="-128"
  />
    <missing-glyph />
    
    <glyph glyph-name="lianjie" unicode="&#58908;" d="M582.239997 232.857032c-56.713997 0-113.426994 21.589999-156.609992 64.772997-11.728999 11.726999-11.728999 30.792998 0 42.520998 11.728999 11.726999 30.791998 11.726999 42.520998 0 62.910997-62.909997 165.212992-62.909997 228.121989 0L914.94998 558.830016c62.910997 62.909997 62.910997 165.211992 0 228.121989-62.907997 62.909997-165.210992 62.909997-228.119989 0L502.313 602.434014c-11.728999-11.727999-30.792998-11.727999-42.521998 0-11.726999 11.727999-11.726999 30.792998 0 42.520998L644.308994 829.472003c86.364996 86.364996 226.858989 86.364996 313.163985 0 86.304996-86.363996 86.363996-226.857989 0-313.163985L738.794989 297.631029c-43.183998-43.183998-99.898995-64.772997-156.612992-64.772997L582.239997 232.858032zM221.386014-127.99995c-56.714997 0-113.429994 21.591999-156.611992 64.772997-86.363996 86.364996-86.363996 226.856989 0 313.163985l218.678989 218.678989c86.364996 86.364996 226.858989 86.364996 313.162985 0 11.727999-11.727999 11.727999-30.791998 0-42.520998-11.727999-11.726999-30.792998-11.726999-42.518998 0-62.910997 62.909997-165.213992 62.909997-228.122989 0L107.29402 207.416034c-62.909997-62.907997-62.909997-165.212992 0-228.120989 62.908997-62.907997 165.211992-62.907997 228.121989 0l184.516991 184.517991c11.728999 11.728999 30.793998 11.728999 42.520998 0 11.728999-11.726999 11.728999-30.790998 0-42.520998L377.938007-63.226953C334.755009-106.407951 278.040011-127.99995 221.325014-127.99995L221.386014-127.99995z"  horiz-adv-x="1024" />

    
    <glyph glyph-name="tiaozhuan" unicode="&#58909;" d="M790.536784-27.653571 77.292364-27.653571 77.292364 667.171338 625.784486 667.171338 625.784486 631.355621 113.108081 631.355621 113.108081 8.162146 753.697761 8.162146 753.697761 485.022835 790.536784 485.022835ZM904.925691 780.198156l25.885344-25.885344-400.116482-400.116482-25.885344 25.885344 400.116482 400.116482ZM932.909375 555.83767 896.369158 557.983543 908.096247 757.4689 708.61089 745.741811 706.465017 782.282029 947.06784 796.440493Z"  horiz-adv-x="1024" />

    
    <glyph glyph-name="yinle" unicode="&#58917;" d="M784.2 425.8c-3.8 0.5-7.2 3.3-10.2 8.2-3 4.9-5.3 13.9-7 27-2.7 21.3-9.7 37-20.9 47.1-11.2 10.1-28.5 17.3-52 21.7-24.6 4.9-46.3 14.9-65.1 29.9-18.8 15-34.5 29.1-47.1 42.2-12 11.5-21.3 15.6-27.9 12.3-6.6-3.3-9.8-9.3-9.8-18V484c0-30.6-0.1-63.6-0.4-99.1-0.3-35.5-0.4-69.1-0.4-100.8v-130.3c0.5-13.1-1.5-27.7-6.1-43.8-4.6-16.1-13.4-31.3-26.2-45.5s-29.9-26.4-51.2-36.5c-21.3-10.1-47.8-16-79.5-17.6-32.2-1.6-61.3 4.1-87.2 17.2-25.9 13.1-46 29.6-60.2 49.6-14.2 19.9-21.2 41.8-20.9 65.5 0.3 23.8 10.5 46 30.7 66.8 20.2 20.8 42.1 35.2 65.5 43.4 23.5 8.2 46.1 12.7 68 13.5 21.8 0.8 41.4-0.7 58.6-4.5 17.2-3.8 29.9-7.4 38.1-10.6V483.1c0 64.4 0.3 137.1 0.8 217.9 0 15.8 4.1 28.8 12.3 38.9 8.2 10.1 19.1 16 32.8 17.6 11.5 1.6 20.9-0.7 28.3-7 7.4-6.3 14.9-15 22.5-26.2s17.1-23.9 28.3-38.1c11.2-14.2 26.4-28.1 45.5-41.8 16.4-12.6 30.7-21.6 43-27 12.3-5.5 23.8-10.5 34.4-15.2 10.6-4.6 21.2-10.2 31.5-16.8 10.4-6.6 21.8-17.2 34.4-31.9 12.6-14.2 20.2-28.9 22.9-44.2 2.7-15.3 2.9-29.2 0.4-41.8-2.5-12.6-6.4-22.8-11.9-30.7-5.5-7.9-10.2-11.6-14-11z m0 0"  horiz-adv-x="1024" />

    
    <glyph glyph-name="jian" unicode="&#58947;" d="M117.734106 437.786746 906.212134 437.786746C925.995765 437.786746 959.972 413.720246 959.972 384.02688 959.972 354.333514 925.995765 330.267014 906.212134 330.267014L117.734106 330.267014C97.950475 330.267014 63.97424 354.333514 63.97424 384.02688 63.97424 413.720246 97.950475 437.786746 117.734106 437.786746Z"  horiz-adv-x="1024" />

    
    <glyph glyph-name="cubelifangti" unicode="&#59132;" d="M1024 128.3072c0-7.168-2.8672-12.0832-8.4992-14.9504L571.2896-125.8496 569.1392-125.8496C567.7056-127.2832 565.5552-128 562.688-128c-2.8672 0-5.0176 0.7168-6.4512 2.1504L554.1888-125.8496 109.9776 113.3568C104.2432 116.224 101.376 121.1392 101.376 128.3072L101.376 640.8192 101.376 642.9696c0 1.3312 0.7168 2.8672 2.1504 4.3008L103.5264 649.4208l4.3008 4.3008 2.1504 2.1504L554.1888 894.976c5.7344 1.3312 11.3664 1.3312 17.1008 0l444.2112-239.2064 2.1504-2.1504 4.3008-4.3008 0-2.1504L1024 642.9696l0-2.1504L1024 128.3072zM135.5776 138.9568l410.0096-222.1056 0 474.112L135.5776 613.0688 135.5776 138.9568zM154.8288 640.8192 562.688 420.864l407.8592 219.9552L562.688 860.7744 154.8288 640.8192zM989.7984 138.9568l0 474.112L579.7888 390.9632l0-474.112L989.7984 138.9568z"  horiz-adv-x="1024" />

    
    <glyph glyph-name="microphoneslash" unicode="&#59271;" d="M266.870981 355.954629l-57.722589-57.722589q-23.99775 58.842484-23.99775 122.260538l0 73.145143q0 14.846608 10.846983 25.725588t25.725588 10.846983 25.725588-10.846983 10.846983-25.725588l0-73.145143q0-30.269162 8.575196-64.569947zM903.387307 699.922382l-206.252664-206.252664 0-73.145143q0-75.41693-53.722963-129.139893t-129.139893-53.722963q-31.421054 0-62.266163 10.846983l-54.842858-54.842858q55.418804-29.149267 117.141018-29.149267 105.718089 0 180.847046 75.128957t75.128957 180.847046l0 73.145143q0 14.846608 10.846983 25.725588t25.725588 10.846983 25.725588-10.846983 10.846983-25.725588l0-73.145143q0-126.260163-84.280099-219.691404t-208.268475-107.125957l0-75.41693 146.258288 0q14.846608 0 25.725588-10.846983t10.846983-25.725588-10.846983-25.725588-25.725588-10.846983l-365.693716 0q-14.846608 0-25.725588 10.846983t-10.846983 25.725588 10.846983 25.725588 25.725588 10.846983l146.258288 0 0 75.41693q-71.417305 7.423304-134.259413 46.267662l-145.138393-145.138393q-5.727463-5.727463-13.150767-5.727463t-13.150767 5.727463l-46.843608 46.843608q-5.727463 5.727463-5.727463 13.150767t5.727463 13.150767l705.085898 705.085898q5.727463 5.727463 13.150767 5.727463t13.150767-5.727463l46.843608-46.843608q5.727463-5.727463 5.727463-13.150767t-5.727463-13.150767zM686.255664 775.339312l-354.814736-354.814736 0 292.548574q0 75.41693 53.722963 129.139893t129.139893 53.722963q58.266538 0 105.430116-33.724838t66.553761-86.839859z"  horiz-adv-x="1024" />

    
    <glyph glyph-name="portrait" unicode="&#59098;" d="M214.633 322.963c-97.515-85.034-115.524-252.321-117.554-350.26 95.249-92.831 702.051-87.684 828.017 0 12.089 111.578-37.104 282.518-113.799 355.099-29.655 0-57.238-0.076-83.278-0.214-22.555-1.703-41.647 0.214-56.059 7.466-16.462 17.12-26.674 45.632-33.251 80.916 20.601 23.366 37.024 52.075 46.81 84.163 12.439 6.807 21.743 18.241 27.934 33.699 6.79 16.713 9.866 38.492 9.458 64.241l-0.154 8.279-6.905 4.72c-2.592 1.779-5.262 3.403-7.874 4.814 13.715 100.957-4.854 168.272-56.524 206.148-76.175 55.865-219.031 55.362-294.22-6.228-48.338-39.635-61.243-91.033-45.923-202.182-1.295-0.814-2.67-1.662-3.967-2.553l-6.905-4.682-0.114-8.317c-0.445-26.269 2.805-48.381 9.826-65.266 6.482-15.515 16.094-26.928 28.996-33.405 10.618-34.354 28.782-64.822 51.513-88.827-5.437-27.333-13.308-50.234-24.741-66.525-14.277-17.023-35.207-23.309-61.457-20.87-27.948-0.14-57.719-0.214-89.828-0.214v0z"  horiz-adv-x="1024" />

    
    <glyph glyph-name="phone" unicode="&#59100;" d="M89.472 671.498c0 0 75.008 159.424 201.792 0 126.528-159.616 0-206.4 0-206.4s-84.352-79.808-18.816-131.456c65.664-51.456 225.28-192.256 225.28-192.256s63.232-84.288 131.2-23.36c84.48 70.144 117.312 81.984 182.912 32.768 114.496-85.376 150.272-171.264-23.232-239.232-192.384-93.824-534.784 229.888-534.784 229.888s-337.856 323.648-164.352 530.048zM525.76 589.003c0 0-63.232-6.72-51.712 59.2 5.312 29.952 56.32 39.808 103.232 25.536 47.168-14.016 222.912-91.392 230.016-288.512 0 0-12.992-55.296-54.208-44.352-44.288 11.776-32.64 95.616-35.136 111.936-2.24 16.384-63.104 143.168-192.192 136.192zM647.616 760.203c0 0-77.376-8.064-63.104 72.256 6.336 36.864 68.928 48.896 126.528 31.68 57.408-17.28 272.704-112 281.216-353.152 0 0-18.432-75.264-65.792-54.72-41.408 18.24-43.52 120-46.272 140.096-3.136 20.096-74.304 172.48-232.576 163.84z"  horiz-adv-x="1024" />

    
    <glyph glyph-name="microphone" unicode="&#59084;" d="M814.114614 493.714286v-73.142857q0-126.285714-84.285714-219.714286T521.543186 93.714286v-75.428572h146.285714q14.857143 0 25.714286-10.857143t10.857143-25.714285-10.857143-25.714286-25.714286-10.857143H302.114614q-14.857143 0-25.714285 10.857143t-10.857143 25.714286 10.857143 25.714285 25.714285 10.857143h146.285715v75.428572q-124 13.714286-208.285715 107.142857T155.8289 420.571429V493.714286q0 14.857143 10.857143 25.714285t25.714286 10.857143 25.714285-10.857143 10.857143-25.714285v-73.142857q0-105.714286 75.142857-180.857143T484.971757 164.571429t180.857143 75.142857T740.971757 420.571429V493.714286q0 14.857143 10.857143 25.714285t25.714286 10.857143 25.714285-10.857143 10.857143-25.714285zM667.8289 713.142857v-292.571428q0-75.428571-53.714286-129.142858t-129.142857-53.714285-129.142857 53.714285-53.714286 129.142858V713.142857q0 75.428571 53.714286 129.142857T484.971757 896t129.142857-53.714286 53.714286-129.142857z"  horiz-adv-x="1024" />

    
    <glyph glyph-name="zhengquedaan" unicode="&#58920;" d="M385.792 102.93248a50.60608 50.60608 0 0 0-38.43584 17.67936L83.97312 427.89888c-18.19648 21.22752-15.73888 53.18144 5.48864 71.37792 21.22752 18.19648 53.18144 15.73376 71.37792-5.49376l230.15936-268.5184 477.32224 416.38912c21.0688 18.37568 53.0432 16.19968 71.424-4.86912 18.37568-21.0688 16.19968-53.0432-4.86912-71.424L419.06688 115.4048a50.60608 50.60608 0 0 0-33.27488-12.47232z"  horiz-adv-x="1024" />

    
    <glyph glyph-name="jia" unicode="&#58948;" d="M880.15737 448.280872H575.934072V752.50417c0 35.915501-29.109546 65.025048-65.025048 65.025048s-65.025048-29.109546-65.025047-65.025048v-304.223298H141.660679a65.025048 65.025048 0 0 1 0-130.050095h304.223298v-304.223298c0-35.915501 29.109546-65.025048 65.025047-65.025048s65.025048 29.109546 65.025048 65.025048V318.230777h304.216073a65.025048 65.025048 0 0 1 65.025047 65.025047 65.010598 65.010598 0 0 1-65.017822 65.025048z"  horiz-adv-x="1024" />

    
    <glyph glyph-name="back" unicode="&#59096;" d="M957.046154 443.076923H303.261538c-17.723077 0-25.6 21.661538-13.784615 33.476923l189.046154 189.046154c11.815385 11.815385 11.815385 29.538462 0 41.353846l-43.323077 43.323077c-11.815385 11.815385-29.538462 11.815385-41.353846 0L49.230769 403.692308c-11.815385-11.815385-11.815385-29.538462 0-41.353846L393.846154 17.723077c11.815385-11.815385 29.538462-11.815385 41.353846 0l41.353846 41.353846c11.815385 11.815385 11.815385 29.538462 0 41.353846l-189.046154 189.046154c-11.815385 13.784615-3.938462 35.446154 13.784616 35.446154h653.784615c15.753846 0 29.538462 11.815385 29.538462 27.569231v59.076923c0 15.753846-11.815385 31.507692-27.569231 31.507692z"  horiz-adv-x="1024" />

    
    <glyph glyph-name="xiajiantou" unicode="&#58882;" d="M65.582671 607.208665l446.417329-446.41733 446.417329 446.41733z"  horiz-adv-x="1024" />

    
    <glyph glyph-name="yincangbukejian" unicode="&#59605;" d="M253.6 216.8l109.6 109.6C356 344 352 363.2 352 384c0 88 72 160 160 160 20.8 0 40-4 57.6-11.2l82.4 82.4C607.2 631.2 560 640 512 640c-168 0-329.6-106.4-384-256 24-65.6 68.8-123.2 125.6-167.2zM416 384v-4.8L516.8 480H512c-52.8 0-96-43.2-96-96zM770.4 551.2l163.2 163.2L888 760l-753.6-753.6 45.6-45.6 192.8 192.8A390.4 390.4 0 0 1 512 128c167.2 0 330.4 106.4 384.8 256-24 65.6-69.6 123.2-126.4 167.2zM512 224c-20 0-40 4-57.6 11.2l53.6 53.6h4.8c52.8 0 96 43.2 96 96v4.8l53.6 53.6C668 424 672 404 672 384c0-88-72-160-160-160z"  horiz-adv-x="1024" />

    
    <glyph glyph-name="arrow-left" unicode="&#59021;" d="M737.14166666 42.21366666999995l-56.285-58.26-393.996 392.021 393.996 392.021 56.285-58.26-331.786-333.76100001z"  horiz-adv-x="1024" />

    
    <glyph glyph-name="phone1" unicode="&#59173;" d="M1024 87.273c0-13.091-2.424-30.182-7.273-51.273-4.848-21.09-9.94-37.697-15.272-49.818-10.182-24.243-39.758-49.94-88.728-77.091-45.575-24.727-90.666-37.091-135.272-37.091-13.091 0-25.819 0.848-38.182 2.545-12.364 1.697-26.303 4.728-41.818 9.091-15.516 4.364-27.03 7.88-34.546 10.546-7.515 2.666-20.97 7.636-40.364 14.909-19.393 7.273-31.272 11.636-35.636 13.09-47.515 16.97-89.94 37.092-127.273 60.364-62.06 38.303-126.181 90.546-192.363 156.728S148.848 269.576 110.545 331.636C87.273 368.97 67.152 411.394 50.182 458.91c-1.455 4.364-5.818 16.243-13.091 35.636-7.273 19.394-12.243 32.849-14.91 40.364-2.666 7.515-6.181 19.03-10.545 34.546-4.363 15.515-7.394 29.454-9.09 41.818C0.847 623.636 0 636.363 0 649.455c0 44.606 12.364 89.697 37.09 135.272 27.152 48.97 52.85 78.546 77.092 88.728C126.303 878.788 142.909 883.879 164 888.727 185.09 893.576 202.182 896 215.273 896c6.788 0 11.879-0.727 15.272-2.182 8.728-2.909 21.576-21.333 38.546-55.273 5.333-9.212 12.606-22.303 21.818-39.272 9.212-16.97 17.697-32.364 25.455-46.182 7.757-13.818 15.272-26.788 22.545-38.91 1.455-1.939 5.697-8 12.727-18.181 7.03-10.182 12.243-18.788 15.637-25.818 3.394-7.03 5.09-13.94 5.09-20.727 0-9.697-6.908-21.819-20.727-36.364-13.818-14.546-28.848-27.879-45.09-40-16.243-12.121-31.273-24.97-45.091-38.546-13.819-13.575-20.728-24.727-20.728-33.454 0-4.364 1.212-9.818 3.637-16.364 2.424-6.545 4.484-11.515 6.181-14.909s5.091-9.212 10.182-17.454c5.091-8.243 7.88-12.849 8.364-13.819 36.848-66.424 79.03-123.393 126.545-170.909 47.516-47.515 104.485-89.697 170.91-126.545 0.97-0.485 5.575-3.273 13.818-8.364 8.242-5.09 14.06-8.485 17.454-10.182 3.394-1.697 8.364-3.757 14.91-6.181 6.545-2.425 12-3.637 16.363-3.637 8.727 0 19.879 6.91 33.454 20.728 13.576 13.818 26.425 28.848 38.546 45.09 12.121 16.243 25.454 31.273 40 45.091 14.545 13.819 26.667 20.728 36.364 20.728 6.787 0 13.697-1.697 20.727-5.091 7.03-3.394 15.636-8.606 25.818-15.637 10.182-7.03 16.242-11.272 18.182-12.727 12.121-7.273 25.09-14.788 38.909-22.545 13.818-7.758 29.212-16.243 46.182-25.455 16.97-9.212 30.06-16.485 39.272-21.818 33.94-16.97 52.364-29.818 55.273-38.546 1.455-3.393 2.182-8.484 2.182-15.272z m0 0"  horiz-adv-x="1024" />

    
    <glyph glyph-name="six" unicode="&#58952;" d="M511.4028759 729.71399689C321.24472809 729.71399689 166.5362854 575.0024642999999 166.5362854 384.84663391c0-190.15737533 154.70921516-344.86736297 344.8665905-344.86736297s344.86581803 154.70998764 344.86581802 344.86736297c0 190.15583039-154.70998764 344.86581803-344.86581802 344.86581802z m0-646.62437439c-166.39291763 0-301.75855637 135.36486625-301.75855637 301.75778389 0 166.39214516 135.36563872 301.75701142 301.75855637 301.75701141 166.39214516 0 301.75701142-135.36486625 301.75701141-301.75701141 0-166.39291763-135.36563872-301.75855637-301.75701141-301.75855637zM661.35518264 424.43912888L476.88168717 524.5698108700001c-8.75601768 4.77853775-18.16555024 7.30453492-27.21665383 7.30453491-26.68982505 0-46.03417397-20.48143387-46.03417397-48.6876297V286.50577926999995c0-28.20465088 19.34434891-48.66445541 46.03417397-48.68608475 9.05033112 0 18.45986366 2.52599717 27.15408326 7.26050377l185.46149253 100.21565437c16.77663803 9.1353035 26.41714096 23.38517189 26.41714096 39.06721116 0 15.99798203-9.95799065 30.6055069-27.34411239 40.07761001z m-19.63866233-41.25640869L456.25502776 282.96938323999996c-3.24285507-1.7913723-5.53710938-2.04165458-6.58922194-2.04165458-1.1780262 0-2.92613983 0-2.92613984 5.57727813V483.18748855c0 5.57882309 1.74811363 5.57882309 2.92613984 5.57882309 1.05288505 0 3.34636688-0.27422905 6.60853385-2.04165458l184.49512482-100.15231133c1.32634162-0.73616982 2.35682487-1.43062592 3.1578827-2.04165459a18.95038605 18.95038605 0 0 0-2.21082688-1.34642601z"  horiz-adv-x="1024" />

    
    <glyph glyph-name="five" unicode="&#58941;" d="M808.63085938 404.96191406h-194.58984376c-7.51464844 0-13.84277344-5.93261719-13.84277343-13.84277344 0-7.51464844 5.93261719-13.84277344 13.84277344-13.84277343h167.29980468c23.33496094 0 41.92382813-18.984375 41.92382813-41.92382813V103.18945312000005c0-23.33496094-18.984375-41.92382813-41.92382813-41.92382812H244.24121094c-23.33496094 0-41.92382813 18.984375-41.92382813 41.92382813v232.16308593c0 23.33496094 18.984375 41.92382813 41.92382813 41.92382813h250.75195312c7.51464844 0 13.84277344 5.93261719 13.84277344 13.84277344 0 7.51464844-5.93261719 13.84277344-13.84277344 13.84277343h-276.85546875c-23.33496094 0-41.92382813-18.984375-41.92382812-41.92382812v-285.55664063c0-23.33496094 18.984375-41.92382813 41.92382812-41.92382812H808.63085938c23.33496094 0 41.92382813 18.984375 41.92382812 41.92382812v285.55664063c0 23.33496094-18.58886719 41.92382813-41.92382813 41.92382812zM808.63085938 710.68945313h-285.55664063c-23.33496094 0-41.92382813-18.984375-41.92382813-41.92382813v-276.85546875c0-7.51464844 5.93261719-13.84277344 13.84277344-13.84277344 7.51464844 0 13.84277344 5.93261719 13.84277344 13.84277344V641.08007813c0 23.33496094 18.984375 41.92382813 41.92382813 41.92382812h232.16308593c23.33496094 0 41.92382813-18.984375 41.92382813-41.92382813v-537.09960937c0-23.33496094-18.984375-41.92382813-41.92382813-41.92382813h-232.16308593c-23.33496094 0-41.92382813 18.984375-41.92382813 41.92382813v168.48632813c0 7.51464844-5.93261719 13.84277344-13.84277344 13.84277343-7.51464844 0-13.84277344-5.93261719-13.84277344-13.84277344v-194.98535156c0-23.33496094 18.984375-41.92382813 41.92382813-41.92382812H808.63085938c23.33496094 0 41.92382813 18.984375 41.92382812 41.92382812V668.37011719c0 23.33496094-18.58886719 42.31933594-41.92382813 42.31933594z"  horiz-adv-x="1027" />

    
    <glyph glyph-name="four" unicode="&#58975;" d="M419.81746575 460.22086561l398.78174757-93.17038979-361.24323105-296.46069358-9.04667841 238.22919963-31.09145811 9.04667905 2.59962001 142.35520469zM205.60875631 360.49943293l231.67815737-57.91953919v-231.0542485L205.60875631 129.44518443000004V360.49943293M195.21027567 373.80948834000003V121.33436902999995l252.47511931-63.11877984V310.69070851000004L195.21027567 373.80948834000003zM817.97530444 607.2553878599999v-7.59089167a11.85426866 11.85426866 0 0 1-5.71916502 2.80759027l5.51119539 4.57533178h0.31195412M455.48425564 73.91729561a11.85426866 11.85426866 0 0 1 5.71916438-2.80758963l-2.91157476-2.4956355h-2.80758963v5.30322513m358.85158004 543.84055803l-0.31195412-0.20796963h-1.03984813a1.45578738 1.45578738 0 0 1-1.45578738-1.45578737 1.45578738 1.45578738 0 0 0-0.51992437-1.14383326L448.30930386 311.10664776a1.45578738 1.45578738 0 0 0-0.93586364-0.31195413h-0.8318785a1.45578738 1.45578738 0 0 1-1.45578737-1.45578738v-249.56354455a1.45578738 1.45578738 0 0 1 1.45578738-1.45578738h15.18178268v-0.20796963l366.44247105 306.96316h0.20796963l0.41593924 0.41593926-0.41593924 0.51992373V616.19808112a1.45578738 1.45578738 0 0 1-1.4557874 1.45578738h-12.37419239l-0.20796963 0.20796963zM463.38710141 81.30021766000004a1.45578738 1.45578738 0 0 0-1.45578738 1.45578737V300.29222786a1.45578738 1.45578738 0 0 0 0.51992374 1.14383262l346.68535725 290.5335602a1.45578738 1.45578738 0 0 0 0.93586363 0.31195412 1.45578738 1.45578738 0 0 0 1.45578739-1.45578739v-217.43223832a1.45578738 1.45578738 0 0 0-0.51992438-1.14383262L464.32296441 81.61217177000003a1.45578738 1.45578738 0 0 0-0.935863-0.31195411zM415.34611912 530.8265519700001v-10.81441989a11.85426866 11.85426866 0 0 1-8.63073977 6.13510364l5.51119539 4.36736213 0.20796963 0.20796963h2.80758963m-6.23908878 10.60645028l-0.31195413-0.20796963h-1.03984812a1.45578738 1.45578738 0 0 1-1.45578738-1.45578737 1.45578738 1.45578738 0 0 0-0.51992439-1.14383263L198.43380453 374.53738235000003a1.45578738 1.45578738 0 0 0-0.93586299-0.31195477h-0.8318785a1.45578738 1.45578738 0 0 1-1.45578737-1.45578738v-249.56354454a1.45578738 1.45578738 0 0 1 1.45578737-1.45578739H211.84784509v-0.20796962l8.83870878 6.96698278h-0.20796963l-0.72789338-0.41593926-0.20796962 0.62390887-7.48690652 1.97571114V363.61897731a1.45578738 1.45578738 0 0 0 0.51992437 1.14383262l191.33205062 150.77797488a1.45578738 1.45578738 0 0 0 0.93586363 0.31195474 1.45578738 1.45578738 0 0 0 1.45578674-1.45578737v-207.24172667l19.4451597-2.80759028V541.0170636299999l-1.7677415-0.20796962a18.30132642 18.30132642 0 0 0-2.28766588 0.31195412h-12.47817755l-0.20796963 0.20796963zM422.5210709 699.07397476l-1.97571176-1.663757v1.66375701h1.97571176M426.57647827 709.88839531v-0.41593926h-12.68614653a3.74345326 3.74345326 0 0 1-3.74345327-3.74345326v-234.48574701h0.10398451l-0.41593925-1.45578738 17.05350931-4.47134662V687.6356459799999a3.74345326 3.74345326 0 0 0 3.74345263 3.74345327h0.8318785l377.04892198-86.6193469a3.74345326 3.74345326 0 0 0 2.91157476-3.63946877v-230.63830863l-4.36736214-3.63946876 7.2789369-1.87172662h0.93586362a3.74345326 3.74345326 0 0 1 3.63946815 2.80759026 3.74345326 3.74345326 0 0 0 3.63946813 2.80758962h1.97571176a3.74345326 3.74345326 0 0 1 3.74345328 3.74345327V611.6227493700001a3.74345326 3.74345326 0 0 0 0.10398448 0.83187849l0.31195477 1.24781776a3.74345326 3.74345326 0 0 1-2.80759028 4.47134727L426.57647827 709.88839531zM266.02393165 557.96658782a14.14193392 14.14193392 0 0 1-5.92713465-8.73472428v8.73472428h5.92713465m143.49903795-24.95635446l4.26337701-0.72789401a9.56660279 9.56660279 0 0 1 2.28766589-3.84743776l1.14383325-211.19314956-4.78330138 1.03984813V524.5874632a13.62201017 13.62201017 0 0 1-2.91157476 8.42277016M269.66339978 568.78100773v-0.41593926H254.2736481c-2.49563551 0-4.57533175-1.66375701-4.57533177-3.74345327v-218.0561472l21.00493157-5.30322514a3.22352887 3.22352887 0 0 0-0.41593925 1.66375701V546.52825841c0 2.07969626 2.07969626 3.74345326 4.57533177 3.74345326h1.03984813l122.59809089-21.83681008a4.05540739 4.05540739 0 0 0 3.53548363-3.63946876v-215.04058732c0-0.1039845 0.1039845-0.20796963 0.20796964-0.20796963l0.727894 0.20796963c0.1039845 0 0.1039845 0 0-0.10398513l24.74838484-5.30322515-1.24781776 231.05424849c-3.84743777 0.1039845-2.59962001 0.31195412-2.49563551 0.41593927l-1.03984813 1.45578738c0.51992375 2.07969626-0.935863 4.05540739-3.43149915 4.47134664l-149.84211123 27.03605071zM416.59393688 699.07397476v-7.48690587a11.85426866 11.85426866 0 0 1-5.82314952 2.80758962l5.51119476 4.47134663h0.31195476M412.95446811 709.47245606l-0.31195412-0.20796963h-1.03984813a1.45578738 1.45578738 0 0 1-1.45578739-1.45578739 1.45578738 1.45578738 0 0 0-0.51992437-1.14383262l-158.05691113-130.18898254a1.45578738 1.45578738 0 0 0-0.93586364-0.31195476h0.41593926a1.45578738 1.45578738 0 0 1-1.45578739-1.45578738v-227.62274937l34.52295726-9.15066352 12.89411615 10.50246577-20.38102269 5.09525615-7.90284577-6.3430739a1.45578738 1.45578738 0 0 0-0.935863-0.31195412 1.45578738 1.45578738 0 0 0-1.45578738 1.45578739v217.32825321a1.45578738 1.45578738 0 0 0 0.51992438 1.14383326L407.75522746 683.89219272a1.45578738 1.45578738 0 0 0 0.93586364 0.31195476 1.45578738 1.45578738 0 0 0 1.45578737-1.45578738v-217.43223833a1.45578738 1.45578738 0 0 0-0.51992437-1.14383326l-3.74345326-3.01555926v-21.1089167l20.90094707 16.94952419h0.20796962l-3.84743775-2.70360514 3.84743775 3.63946877V708.1206538a1.45578738 1.45578738 0 0 1-1.45578738 1.4557874h-12.37419241l-0.20796963 0.20796961z"  horiz-adv-x="1024" />

    
    <glyph glyph-name="three" unicode="&#58966;" d="M360.53689158 564.83075232L432.10495042 583.24452432 354.40003452 397.06395552l-69.5335404-245.51269883-87.94283015-173.91069755 67.49005615-36.82882536 98.17177862 173.91069754 94.07328289 184.13772526 105.02395127-133.22672478 11.73066257-234.60045234 72.69194451-2.34382815 0.73516657 282.18783108-100.20693778 155.49948565 36.81729949 155.49500481 70.22324001-50.65484482 144.50975465-53.69413488 26.33283471 54.8590039-157.81897925 80.24086044-52.57601421 110.41731533-32.71432015 34.77317452-59.30779411 18.42145774-71.58855189-10.2347121-157.5000644-91.63980224-49.04362455-170.23998213 59.31035557-22.50330331z m226.52769649 156.75336921a68.46985248 68.46985248 0 1 1-68.44231575 68.46665169 68.45768589 68.45768589 0 0 1 68.44231575-68.46665169z"  horiz-adv-x="1024" />

    
    <glyph glyph-name="two" unicode="&#58963;" d="M897.54565398 13.211425780000013H131.24926752V754.78857422h762.17651407v-741.57714844zM172.44799806 54.41015632999995h679.77905297V713.5898436699999H172.44799806v-659.17968735zM81.8107907 754.78857422h865.17334009v-70.03784172H81.8107907zM81.8107907 83.24926749999997h865.17334009V13.211425780000013H81.8107907z"  horiz-adv-x="1024" />

    
    <glyph glyph-name="one" unicode="&#58970;" d="M512 727.99353248C322.26030797 727.99353248 168.00646752 573.73969203 168.00646752 384s154.25384045-343.99353248 343.99353248-343.99353248 343.99353248 154.25384045 343.99353248 343.99353248S701.73969203 727.99353248 512 727.99353248z m0-653.22563612C341.08986788 74.76789636000001 202.76789636 213.08986788000004 202.76789636 384S341.08986788 693.95584745 512 693.95584745 821.95584745 555.63455486 821.95584745 384.72442274c0-171.63455486-139.04571533-309.95652638-309.95584745-309.95652638zM445.37415438 228.29799300000002h-2.1725893c-18.10513717 0-32.58883953 14.48370236-32.58883953 32.58883953v249.84776974c0 18.10445823 14.48370236 32.58883953 32.58883953 32.58883953h2.1725893c18.10445823 0 32.58883953-14.48438131 32.58883953-32.58883953v-249.84776974c0-18.10513717-14.48438131-32.58883953-32.58883953-32.58883953z m135.42428054 7.24151171h-2.1725893c-18.10445823 0-32.58883953 14.48438131-32.58883953 32.58883954v249.84776973c0 18.10513717 14.48438131 32.58883953 32.58883953 32.58883953h2.1725893c18.10513717 0 32.58883953-14.48370236 32.58883953-32.58883953v-249.84776973c0-17.38071443-15.20812511-32.58883953-32.58883953-32.58883954z"  horiz-adv-x="1024" />

    
    <glyph glyph-name="arrow-right-copy" unicode="&#59022;" d="M286.85833334 725.7863333299999l56.285 58.26 393.996-392.021-393.996-392.02099999-56.285 58.25999999 331.786 333.76100002z"  horiz-adv-x="1024" />

    
    <glyph glyph-name="photo" unicode="&#58897;" d="M139.636364 546.909091C139.636364 481.745455 190.836364 430.545455 256 430.545455S372.363636 481.745455 372.363636 546.909091 321.163636 663.272727 256 663.272727 139.636364 612.072727 139.636364 546.909091z m186.181818 0C325.818182 509.672727 293.236364 477.090909 256 477.090909S186.181818 509.672727 186.181818 546.909091 218.763636 616.727273 256 616.727273 325.818182 584.145455 325.818182 546.909091zM930.909091 802.909091H93.090909C41.890909 802.909091 0 761.018182 0 709.818182v-651.636364c0-51.2 41.890909-93.090909 93.090909-93.090909h837.818182c51.2 0 93.090909 41.890909 93.090909 93.090909v102.4l-23.272727 27.927273-134.981818 172.218182c0 4.654545-55.854545 74.472727-134.981819 69.818182-60.509091-4.654545-111.709091-60.509091-153.6-158.254546-32.581818-74.472727-65.163636-111.709091-93.090909-121.018182-27.927273-9.309091-60.509091 18.618182-97.745454 46.545455l-4.654546 4.654545c-41.890909 32.581818-74.472727 37.236364-111.709091 23.272728-32.581818-13.963636-69.818182-41.890909-121.018181-93.09091-9.309091-4.654545-9.309091-18.618182-4.654546-27.927272s23.272727-9.309091 27.927273 0c102.4 93.090909 125.672727 107.054545 176.872727 65.163636l4.654546-4.654545c46.545455-37.236364 88.436364-69.818182 134.981818-55.854546 23.272727 4.654545 41.890909 18.618182 65.163636 41.890909 18.618182 23.272727 37.236364 55.854545 60.509091 102.4 37.236364 83.781818 79.127273 125.672727 121.018182 130.327273 51.2 4.654545 97.745455-51.2 97.745454-51.2l130.327273-172.218182 13.963636-13.963636V58.181818c0-23.272727-23.272727-46.545455-46.545454-46.545454H93.090909c-23.272727 0-46.545455 23.272727-46.545454 46.545454V709.818182c0 27.927273 23.272727 46.545455 46.545454 46.545454h837.818182c23.272727 0 46.545455-18.618182 46.545454-46.545454v-418.909091c0-9.309091 9.309091-18.618182 23.272728-18.618182s23.272727 9.309091 23.272727 18.618182V709.818182c0 51.2-41.890909 93.090909-93.090909 93.090909z"  horiz-adv-x="1024" />

    
    <glyph glyph-name="xianshikejian" unicode="&#59344;" d="M512 646.61718751c-179.12109375 0-333.01757813-108.72070313-394.01367189-262.61718751C178.98242187 230.10351562000005 332.87890625 121.38281248999999 512 121.38281248999999S845.01757813 230.10351562000005 906.01367189 384C845.01757813 537.89648438 691.12109375 646.61718751 512 646.61718751z m0-437.51953126c-100.37109375 0-179.12109375 77.25585938-179.12109375 174.90234375 0 98.26171875 78.75 174.90234375 179.12109375 174.90234375s179.12109375-77.25585938 179.12109375-174.90234375c0-98.26171875-78.75-174.90234375-179.12109375-174.90234375z m0 279.93164062c-60.90820311 0-107.66601563-45.703125-107.66601563-105.02929687S451.09179689 278.97070311000004 512 278.97070311000004s107.66601563 45.703125 107.66601563 105.02929689S572.90820311 489.02929689 512 489.02929689z"  horiz-adv-x="1024" />

    
    <glyph glyph-name="icon_sanjiaoxing" unicode="&#59067;" d="M814.344 216.03099999999995l-298.604 335.938-306.084-335.839 604.688-0.099z"  horiz-adv-x="1024" />

    
    <glyph glyph-name="quxiao" unicode="&#58954;" d="M512 444.67l242.679 242.679c16.754 16.753 43.916 16.753 60.67 0 16.753-16.754 16.753-43.916 0-60.67L572.669 384l242.68-242.679c16.753-16.754 16.753-43.916 0-60.67-16.754-16.753-43.916-16.753-60.67 0L512 323.331 269.321 80.65c-16.754-16.753-43.916-16.753-60.67 0-16.753 16.754-16.753 43.916 0 60.67L451.331 384 208.65 626.679c-16.753 16.754-16.753 43.916 0 60.67 16.754 16.753 43.916 16.753 60.67 0L512 444.669z"  horiz-adv-x="1024" />

    
    <glyph glyph-name="icon_sanjiaoxing-copy" unicode="&#59606;" d="M209.656 551.969l298.604-335.938 306.084 335.839-604.688 0.099z"  horiz-adv-x="1024" />

    
    <glyph glyph-name="biaoqian" unicode="&#58888;" d="M883.97748148 786.31822222h-309.47555556c-10.55857778 1.82044445-21.72397037-1.21362963-29.85528889-9.34494814L115.87128889 348.19792592c-7.40314075-7.40314075-9.95176297-17.3549037-9.34494814-26.69985184-0.60681482-9.95176297 1.82044445-19.90352592 9.34494814-27.30666667l304.49967408-304.49967408c7.40314075-7.40314075 17.3549037-10.55857778 26.69985185-9.34494815 9.95176297-1.21362963 20.51034075 1.82044445 27.91348148 9.34494815l428.77534815 428.77534815c3.76225185 3.76225185 6.18951111 8.73813333 8.13131852 13.71401482 1.82044445 3.76225185 3.15543703 8.13131852 3.15543703 12.37902222v310.68918518c0 17.3549037-13.71401482 31.06891852-31.06891852 31.06891852z m-31.06891851-322.46139259L447.67762963 59.23271110999997 185.53362963 321.49807408000004l403.28912592 402.6823111h264.08580742v-260.32355555z m-186.41351112 11.7722074c34.22435555 0 62.13783703 27.91348148 62.13783704 62.13783705s-27.91348148 62.13783703-62.13783704 62.13783703c-34.22435555 0-62.13783703-27.91348148-62.13783703-62.13783703s27.91348148-62.13783703 62.13783703-62.13783705z m0 0"  horiz-adv-x="1024" />

    
    <glyph glyph-name="celiang" unicode="&#58889;" d="M909.99466667 593.46488889L721.23733333 782.10844445c-12.40177778 12.40177778-32.54044445 12.40177778-44.94222222 0L112.86755555 218.68088889c-12.40177778-12.40177778-12.40177778-32.54044445 0-44.94222222L301.51111111-15.018666670000016c12.40177778-12.40177778 32.54044445-12.40177778 44.94222222 0l563.42755556 563.42755556c12.51555555 12.40177778 12.51555555 32.54044445 0.11377778 45.056z m-585.95555556-541.01333334L180.33777778 196.15288888999999l36.18133333 36.18133333 24.576-24.576c12.40177778-12.40177778 32.54044445-12.40177778 44.94222222 0 12.40177778 12.40177778 12.40177778 32.54044445 0 44.94222223l-24.576 24.576 36.18133334 36.18133333 24.576-24.576c12.40177778-12.40177778 32.54044445-12.40177778 44.94222222 0 12.40177778 12.40177778 12.40177778 32.54044445 0 44.94222222l-24.576 24.576 36.18133333 36.18133333 24.576-24.576c12.40177778-12.40177778 32.54044445-12.40177778 44.94222223 0 12.40177778 12.40177778 12.40177778 32.54044445 0 44.94222222L423.82222222 439.75111111l36.18133333 36.18133334 24.576-24.576c12.40177778-12.40177778 32.54044445-12.40177778 44.94222223 0 12.40177778 12.40177778 12.40177778 32.54044445 0 44.94222222l-24.576 24.576 36.18133333 36.18133333 24.576-24.576c12.40177778-12.40177778 32.54044445-12.40177778 44.94222222 0 12.40177778 12.40177778 12.40177778 32.54044445 0 44.94222222l-24.576 24.576 36.18133334 36.18133333 24.576-24.576c12.40177778-12.40177778 32.54044445-12.40177778 44.94222222 0 12.40177778 12.40177778 12.40177778 32.54044445 0 44.94222223L667.30666667 683.23555555l31.40266666 31.40266667 143.70133334-143.70133333-518.37155556-518.48533334z m0 0"  horiz-adv-x="1024" />

    
    <glyph glyph-name="redian" unicode="&#58890;" d="M512-91.9C249.6-91.9 36.1 121.6 36.1 384S249.6 859.9 512 859.9 987.9 646.4 987.9 384 774.4-91.9 512-91.9z m0 865.3c-214.7 0-389.4-174.7-389.4-389.4S297.3-5.4 512-5.4 901.4 169.3 901.4 384 726.7 773.4 512 773.4zM512 384m-216.3 0a216.3 216.3 0 1 1 432.6 0 216.3 216.3 0 1 1-432.6 0ZM512 146.1c-131.2 0-237.9 106.8-237.9 237.9S380.8 621.9 512 621.9 749.9 515.2 749.9 384 643.2 146.1 512 146.1z m0 432.6c-107.4 0-194.7-87.3-194.7-194.7S404.6 189.3 512 189.3 706.7 276.6 706.7 384 619.4 578.7 512 578.7z"  horiz-adv-x="1024" />

    
    <glyph glyph-name="jietu" unicode="&#58892;" d="M309.20248889 576.84574815h-96.36219259c-10.31585185 0-18.6898963-8.37404445-18.6898963-18.6898963v-447.34388148c0-10.31585185 8.37404445-18.6898963 18.6898963-18.68989629H809.33925925c4.97588148 0 9.70903703 1.94180741 13.22856297 5.46133333 3.51952592 3.51952592 5.46133333 8.25268148 5.46133333 13.22856296V558.15585185c0 4.97588148-1.94180741 9.70903703-5.46133333 13.22856297-3.51952592 3.51952592-8.25268148 5.46133333-13.22856297 5.46133333h-96.36219258c-13.71401482 0-26.2144 7.76722963-32.28254815 19.90352593l-34.58844444 69.17688889c-3.15543703 6.31087408-9.58767408 10.31585185-16.62672593 10.31585185h-236.65777778c-7.03905185 0-13.47128889-4.00497778-16.62672592-10.31585185l-34.58844445-69.17688889c-6.18951111-12.25765925-18.6898963-19.90352592-32.40391111-19.90352593z m-16.01991111 62.13783703l27.30666667 54.7346963c13.71401482 27.30666667 41.74885925 44.66157037 72.33232592 44.66157037h236.77914074c30.58346667 0 58.61831111-17.23354075 72.21096297-44.66157037l27.42802962-54.7346963h80.22091852c44.54020741 0 80.82773333-36.16616297 80.82773333-80.82773333v-447.34388148c0-44.54020741-36.16616297-80.82773333-80.82773333-80.82773334H212.96165925c-21.48124445 0-41.99158518 8.49540741-57.16195555 23.66577779a80.73064297 80.73064297 0 0 0-23.66577778 57.16195555V558.15585185c0 44.66157037 36.16616297 80.82773333 80.82773333 80.82773333h80.22091853z m0 0M511.15045925 179.13931851999996c-99.51762963 0-180.224 80.70637037-180.224 180.224s80.70637037 180.224 180.224 180.224 180.224-80.70637037 180.224-180.224-80.70637037-180.224-180.224-180.224z m0 62.13783703c65.17191111 0 118.08616297 52.91425185 118.08616297 118.08616297 0 65.17191111-52.91425185 118.08616297-118.08616297 118.08616296-65.17191111 0-118.08616297-52.91425185-118.08616295-118.08616296 0-65.17191111 52.91425185-118.08616297 118.08616295-118.08616297z m0 0"  horiz-adv-x="1024" />

    
    <glyph glyph-name="daolan" unicode="&#58893;" d="M860.95644445 10.922666670000012H161.90577778c-64.28444445 0-116.50844445 52.224-116.50844445 116.50844444V640c0 64.28444445 52.224 116.50844445 116.50844445 116.50844445h699.05066667c64.28444445 0 116.50844445-52.224 116.50844444-116.50844445v-512.68266667c0-64.17066667-52.224-116.39466667-116.50844444-116.39466666zM161.90577778 709.9733333300001c-38.68444445 0-69.85955555-31.17511111-69.85955556-69.85955555v-512.68266667c0-38.68444445 31.17511111-69.85955555 69.85955556-69.85955556h699.05066667c38.68444445 0 69.85955555 31.17511111 69.85955555 69.85955556V640c0 38.68444445-31.17511111 69.85955555-69.85955555 69.85955555H161.90577778z m0 0M278.41422222 406.98311111c-64.28444445 0-116.50844445 52.224-116.50844444 116.50844444 0 64.28444445 52.224 116.50844445 116.50844444 116.50844445 64.28444445 0 116.50844445-52.224 116.50844445-116.50844445 0-64.28444445-52.224-116.50844445-116.50844445-116.50844444z m0 186.48177778c-38.68444445 0-69.85955555-31.17511111-69.85955555-69.85955556s31.17511111-69.85955555 69.85955555-69.85955555 69.85955555 31.17511111 69.85955556 69.85955555-31.17511111 69.85955555-69.85955556 69.85955556z m-46.64888889-419.49866667c-6.94044445 0-13.99466667 3.29955555-18.65955555 9.32977778-7.96444445 10.24-5.57511111 24.68977778 4.66488889 32.65422222l165.43288888 124.01777778c19.56977778 14.44977778 45.16977778 18.20444445 68.03911112 8.87466667l180.33777778-72.24888889c8.87466667-3.29955555 18.65955555-1.36533333 25.14488888 5.12l117.87377778 117.87377777c9.32977778 9.32977778 23.77955555 9.32977778 33.10933334 0 9.32977778-9.32977778 9.32977778-23.77955555 0-33.10933333L689.94844445 248.60444444999996c-19.56977778-19.56977778-49.37955555-26.05511111-75.54844445-15.36L434.06222222 305.49333333000004c-7.39555555 2.84444445-16.27022222 1.82044445-22.86933333-2.84444444L245.76 178.63111111c-4.20977778-3.18577778-9.32977778-4.66488889-13.99466667-4.66488889z m0 0"  horiz-adv-x="1024" />

    
    <glyph glyph-name="moxingmian" unicode="&#58894;" d="M818.5 579.4l-0.7 1.4-1-0.5-305 161-331.9-172.8v-371.4l331.9-172 331.9 173.6V566.1l-25.2 13.3zM762 551.3L510.8 418.7l-252.1 133 253 131.7L762 551.3z m-530.9-42.9L487.8 373v-277.8l-256.7 133V508.4z m471.7-325.6L626 142.6l-87-45.4V375.8l253.5 133.8v-279.8l-89.7-47z m0 0"  horiz-adv-x="1024" />

    
    <glyph glyph-name="huxingtu" unicode="&#58896;" d="M439.86488889 774.03022222v-364.31644444h-364.08888889c-41.52888889 0-75.20711111-33.67822222-75.20711111-75.20711111V-36.97777778c0-41.52888889 33.67822222-75.20711111 75.20711111-75.20711111h810.66666667c41.52888889 0 75.20711111 33.67822222 75.20711111 75.20711111V774.03022222c0 41.52888889-33.67822222 75.20711111-75.20711111 75.20711111H515.072c-41.52888889-0.11377778-75.20711111-33.67822222-75.20711111-75.20711111z m438.38577778-363.29244444H606.77688889v-84.53688889H878.36444445v-354.98666667H523.37777778V241.77777777999995h-84.19555556v-270.56355556H84.19555555v354.98666667h439.18222223V765.72444445h354.98666667v-354.98666667z"  horiz-adv-x="1024" />

    
    <glyph glyph-name="kaiguan" unicode="&#58891;" d="M512.8 284.1c34.8 0 63 27 63 60.4V733.1c0 33.4-28.2 60.4-63 60.4s-63-27-63-60.4v-388.6c0-33.4 28.2-60.4 63-60.4z m0 0M769.2 622.1c-25.9 22.2-65.8 20.1-88.9-4.9-23.2-24.9-20.9-63.1 5.1-85.3 53.7-46.1 87.2-112.3 87.3-186.7-0.2-138.2-116.8-250-260.9-250.2-144.1 0.2-260.6 112-260.9 250.2 0 74.7 33.9 141.2 88 187.3 26 22.1 28.4 60.3 5.4 85.2-23.1 25-62.9 27.3-88.9 5.2-79.8-67.8-130.5-167.3-130.4-277.7 0-204.9 173.2-371 386.8-371 213.6 0 386.8 166.1 386.8 371 0 110-50.2 209.2-129.4 276.9z m0 0"  horiz-adv-x="1024" />

    
    <glyph glyph-name="jiepingguanli" unicode="&#58895;" d="M1023.4 749.5H731v-73.1h292.4v73.1z m-438.6 0H292.4v-73.1h292.4v73.1z m-438.6 0H0v-146.2h73.1v73.1h73.1v73.1zM73.1 457.1H0v-292.4h73.1V457.1z m219.3-365.5H0v-73.1h292.4v73.1z m438.6 0H438.6v-73.1H731v73.1z m292.4 73.1h-73.1v-73.1h-73.1v-73.1h146.2V164.7z m0 438.6h-73.1v-292.4h73.1V603.3zM511.7 749.5h511.7v-219.3H511.7z"  horiz-adv-x="1024" />

    
    <glyph glyph-name="tongjiliebiao" unicode="&#58898;" d="M767.1 690.5h-512c-28.2-0.1-51.1-23-51.2-51.2v-512c0.1-28.2 23-51.1 51.2-51.2h512c28.2 0.1 51.1 23 51.2 51.2v512c-0.1 28.3-23 51.1-51.2 51.2z m-384-512H280.7V485.7h102.4v-307.2z m179.2 0H459.9V588.1h102.4v-409.6z m179.2 0H639.1V408.9h102.4v-230.4z m0 0"  horiz-adv-x="1024" />

    
    <glyph glyph-name="Dmoxing" unicode="&#58899;" d="M58.514286 449.828571l416.914285-197.485714 709.485715 299.885714v-299.885714l-709.485715-358.4-416.914285 204.8zM475.428571 230.4L58.514286 427.885714C51.2 435.2 43.885714 449.828571 51.2 457.142857v7.314286l7.314286 7.314286 365.714285 131.657142-182.857142 80.457143-7.314286 7.314286v21.942857c0 7.314286 7.314286 14.628571 14.628571 14.628572L592.457143 822.857143l592.457143-248.685714c14.628571-7.314286 14.628571-14.628571 14.628571-29.257143v-7.314286l-14.628571-7.314286-709.485715-299.885714z m-365.714285 219.428571l365.714285-175.542857 665.6 277.942857-548.571428 226.742858L292.571429 698.514286l190.171428-80.457143 7.314286-14.628572-7.314286-14.628571h-7.314286l-365.714285-138.971429z m146.285714 256z m0 7.314286c7.314286 0 7.314286 0 0 0zM475.428571-120.685714L51.2 91.428571 43.885714 449.828571h36.571429l7.314286-336.457142 387.657142-197.485715L1155.657143 237.714286l7.314286 314.514285h36.571428l-7.314286-336.457142-7.314285-7.314286zM453.485714 252.342857h36.571429v-351.085714h-36.571429zM234.057143 698.514286h36.571428v-190.171429h-36.571428zM453.485714 603.428571h36.571429v-351.085714h-36.571429zM577.828571 800.914286h36.571429v-519.314286h-36.571429z"  horiz-adv-x="1243" />

    
    <glyph glyph-name="daohangtu" unicode="&#58900;" d="M754.9406874 626.77381897L593.78670334 212.69567871000004 549.57016587 373.29347991l-10.01129151 36.42997743-36.42997741 10.15033722-163.23966982 45.46794891L754.9406874 626.77381897M843.23471665 731.61428833c-1.94664002 0-4.03232575-0.41713715-5.97896577-1.11236572L174.84196304 472.85021211c-6.53514862-2.50282287-10.8455658-9.0379715-10.42842865-16.129303 0.41713715-7.09133149 5.14469147-13.07029724 11.95793153-15.01693725l308.82053374-86.06929779 84.53979492-307.15198517c1.94664002-6.81324006 7.92560578-11.67984009 15.01693726-12.09697723h0.8342743c6.81324006 0 12.79220581 4.17137146 15.29502868 10.42842865L858.52974534 709.22792816c2.36377717 6.11801148 0.97332001 12.93125153-3.75423432 17.51976012-3.05900573 3.19805146-7.23037719 4.86660004-11.54079438 4.86660005z"  horiz-adv-x="1024" />

    
    <glyph glyph-name="ruhumen" unicode="&#58901;" d="M512.84290707 737.59952536c137.05669336 0 248.65759259-106.37487488 248.6575926-237.19405572 0-42.31393643-11.96928095-84.12212796-34.55919086-120.70429596L513.01148816 62.09378128000003 299.41883133 378.8582666c-23.09565399 37.08791208-35.23351685 79.06468552-35.23351685 121.71578413 0 130.65059976 111.60089923 237.02547464 248.65759259 237.02547463m0 67.43256757C338.52972056 805.03209293 196.75274692 668.48114365 196.75274692 500.40546963c0-55.80044962 15.84665332-110.08366616 46.02272772-158.2979521l248.48901069-368.35039958c4.88886136-7.24900067 12.9807691-11.63211795 21.74700283-11.63211795 8.59765265 0 17.02672339 4.38311728 21.74700366 11.63211795L783.41608359 343.11900567c29.67032949 47.37137887 45.34840174 101.82317651 45.34840173 157.28646396C828.93306723 668.48114365 687.1560936 805.03209293 512.84290707 805.03209293zM512.84290707 579.13299216c45.34840174 0 82.26773191-34.72777194 82.26773191-77.37887138 0-42.65109861-36.919331-77.37887137-82.2677319-77.37887136s-82.26773191 34.72777194-82.2677319 77.37887137c0 42.65109861 36.919331 77.37887137 82.2677319 77.37887137m0 67.43256756c-82.43631382 0-149.70029947-65.07242743-149.70029948-144.81143894s67.26398566-144.81143894 149.70029948-144.8114381 149.70029947 65.07242743 149.70029946 144.8114381-67.26398566 144.81143894-149.70029947 144.81143894z"  horiz-adv-x="1024" />

    


  </font>
</defs>
</svg>
